<svg
    xmlns="http://www.w3.org/2000/svg" height="500" viewBox="-10 -10 120 120"
    style="background: white;">
    <path d="M0,0 L100,0 L100,10 L30,10 L30,25 L90,25 L90,50 L60,50 L60,80 L100,80 L100,100 L0,100 Z" stroke="black" fill="none" />
    <path d="M0,50 L0,80 L60,80 L60,50 Z" stroke="none" fill="red" />
<path d="M0,10 L0,25 L30,25 L30,10 Z" stroke="none" fill="green" />
<path d="M30,10 L100,10 L100,0 L0,0 L0,10 Z" stroke="none" fill="blue" />
<path d="M0,25 L0,50 L60,50 L90,50 L90,25 L30,25 Z" stroke="none" fill="yellow" />
<path d="M0,80 L0,100 L100,100 L100,80 L60,80 Z" stroke="none" fill="orange" />
  </svg>