<svg xmlns="http://www.w3.org/2000/svg" width="64760" height="21360" viewBox="0 0 64760 21360">
<text x="500" y="500" fill="#222" font-size="200" font-family="monospace">E00_OKRD</text>
<polygon points="8005,13355 8005,8005 7755,8005 7755,9180 7755,9380 7755,13355" fill="none" stroke="#2979ff" stroke-width="20" />
<polygon points="15005,13605 15005,13355 7755,13355 7755,13605" fill="none" stroke="#2979ff" stroke-width="20" />
<polygon points="15005,7755 14755,7755 14755,13355 15005,13355" fill="none" stroke="#2979ff" stroke-width="20" />
<polygon points="1005,8005 7755,8005 8005,8005 13620,8005 14630,8005 14755,8005 14755,7755 14630,7755 13620,7755 1005,7755 755,7755 755,8005" fill="none" stroke="#2979ff" stroke-width="20" />
<polygon points="11005,9380 10805,9380 10805,13355 11005,13355" fill="none" stroke="#2979ff" stroke-width="20" />
<polygon points="11005,9380 11405,9380 12605,9380 13005,9380 13205,9380 14755,9380 14755,9180 12605,9180 11405,9180 10805,9180 10805,9380" fill="none" stroke="#2979ff" stroke-width="20" />
<polygon points="13205,9380 13005,9380 13005,11955 13205,11955" fill="none" stroke="#2979ff" stroke-width="20" />
<polygon points="14755,12155 14755,11955 11005,11955 11005,12155" fill="none" stroke="#2979ff" stroke-width="20" />
<polygon points="7755,9380 7755,9180 1005,9180 1005,9380" fill="none" stroke="#2979ff" stroke-width="20" />
<polygon points="1005,9380 1005,9180 1005,8005 755,8005 755,9380" fill="none" stroke="#2979ff" stroke-width="20" />
<polygon points="1005,5380 1005,1380 755,1380 755,1410 500,1410 500,5350 755,5350 755,5380" fill="#FFFFFF55" stroke="white" stroke-width="20" />
<polygon points="1005,19980 1005,15980 755,15980 755,16010 500,16010 500,19950 755,19950 755,19980" fill="#FFFFFF55" stroke="white" stroke-width="20" />
<polygon points="57005,13355 57005,9380 57005,9180 57005,8005 56755,8005 56755,13355" fill="none" stroke="#2979ff" stroke-width="20" />
<polygon points="57005,13605 57005,13355 49755,13355 49755,13605" fill="none" stroke="#2979ff" stroke-width="20" />
<polygon points="50005,7755 49755,7755 49755,13355 50005,13355" fill="none" stroke="#2979ff" stroke-width="20" />
<polygon points="50130,8005 51140,8005 56755,8005 57005,8005 63755,8005 64005,8005 64005,7755 63755,7755 51140,7755 50130,7755 50005,7755 50005,8005" fill="none" stroke="#2979ff" stroke-width="20" />
<polygon points="53955,9380 53755,9380 53755,13355 53955,13355" fill="none" stroke="#2979ff" stroke-width="20" />
<polygon points="51555,9380 51755,9380 52155,9380 53355,9380 53755,9380 53955,9380 53955,9180 53355,9180 52155,9180 50005,9180 50005,9380" fill="none" stroke="#2979ff" stroke-width="20" />
<polygon points="51755,9380 51555.01,9380 51555.01,11955 51755,11955" fill="none" stroke="#2979ff" stroke-width="20" />
<polygon points="53755,12155 53755,11955 50005,11955 50005,12155" fill="none" stroke="#2979ff" stroke-width="20" />
<polygon points="63755,9380 63755,9180 57005,9180 57005,9380" fill="none" stroke="#2979ff" stroke-width="20" />
<polygon points="64005,9380 64005,8005 63755,8005 63755,9180 63755,9380" fill="none" stroke="#2979ff" stroke-width="20" />
<polygon points="64005,19980 64005,19950 64260,19950 64260,16010 64005,16010 64005,15980 63755,15980 63755,19980" fill="#FFFFFF55" stroke="white" stroke-width="20" />
<polygon points="64005,5380 64005,5350 64260,5350 64260,1410 64005,1410 64005,1380 63755,1380 63755,5380" fill="#FFFFFF55" stroke="white" stroke-width="20" />
<polygon points="1005,20355 1005,14852.5 1005,14702.5 1005,13605 755,13605 755,20355" fill="none" stroke="#2979ff" stroke-width="20" />
<polygon points="1005,5380 1005,1380 755,1380 755,1410 500,1410 500,5350 755,5350 755,5380" fill="#FFFFFF55" stroke="white" stroke-width="20" />
<polygon points="1005,19980 1005,15980 755,15980 755,16010 500,16010 500,19950 755,19950 755,19980" fill="#FFFFFF55" stroke="white" stroke-width="20" />
<polygon points="1005,13355 1005,9380 755,9380 755,13355" fill="none" stroke="#2979ff" stroke-width="20" />
<polygon points="1005,5380 1005,1380 755,1380 755,1410 500,1410 500,5350 755,5350 755,5380" fill="#FFFFFF55" stroke="white" stroke-width="20" />
<polygon points="1005,19980 1005,15980 755,15980 755,16010 500,16010 500,19950 755,19950 755,19980" fill="#FFFFFF55" stroke="white" stroke-width="20" />
<polygon points="1005,7755 1005,6582.5 1005,6432.5 1005,1005 755,1005 755,7755" fill="none" stroke="#2979ff" stroke-width="20" />
<polygon points="1005,19980 1005,15980 755,15980 755,16010 500,16010 500,19950 755,19950 755,19980" fill="#FFFFFF55" stroke="white" stroke-width="20" />
<polygon points="1005,5380 1005,1380 755,1380 755,1410 500,1410 500,5350 755,5350 755,5380" fill="#FFFFFF55" stroke="white" stroke-width="20" />
<polygon points="7380,1005 7680,1005 7680,755 7380,755 1005,755 1005,1005 1380,1005" fill="none" stroke="#2979ff" stroke-width="20" />
<polygon points="63350,755 63350,500 57410,500 57410,755 57380,755 57380,1005 63380,1005 63380,755" fill="#FFFFFF55" stroke="white" stroke-width="20" />
<polygon points="56350,755 56350,500 50410,500 50410,755 50380,755 50380,1005 56380,1005 56380,755" fill="#FFFFFF55" stroke="white" stroke-width="20" />
<polygon points="49350,755 49350,500 43410,500 43410,755 43380,755 43380,1005 49380,1005 49380,755" fill="#FFFFFF55" stroke="white" stroke-width="20" />
<polygon points="42350,755 42350,500 36410,500 36410,755 36380,755 36380,1005 42380,1005 42380,755" fill="#FFFFFF55" stroke="white" stroke-width="20" />
<polygon points="35350,755 35350,500 29410,500 29410,755 29380,755 29380,1005 35380,1005 35380,755" fill="#FFFFFF55" stroke="white" stroke-width="20" />
<polygon points="21350,755 21350,500 15410,500 15410,755 15380,755 15380,1005 21380,1005 21380,755" fill="#FFFFFF55" stroke="white" stroke-width="20" />
<polygon points="14350,755 14350,500 8410,500 8410,755 8380,755 8380,1005 14380,1005 14380,755" fill="#FFFFFF55" stroke="white" stroke-width="20" />
<polygon points="7350,755 7350,500 1410,500 1410,755 1380,755 1380,1005 7380,1005 7380,755" fill="#FFFFFF55" stroke="white" stroke-width="20" />
<polygon points="28350,755 28350,500 22410,500 22410,755 22380,755 22380,1005 28380,1005 28380,755" fill="#FFFFFF55" stroke="white" stroke-width="20" />
<polygon points="63380,1005 63755,1005 63755,755 63380,755 57080,755 57080,1005 57380,1005" fill="none" stroke="#2979ff" stroke-width="20" />
<polygon points="63350,755 63350,500 57410,500 57410,755 57380,755 57380,1005 63380,1005 63380,755" fill="#FFFFFF55" stroke="white" stroke-width="20" />
<polygon points="56350,755 56350,500 50410,500 50410,755 50380,755 50380,1005 56380,1005 56380,755" fill="#FFFFFF55" stroke="white" stroke-width="20" />
<polygon points="49350,755 49350,500 43410,500 43410,755 43380,755 43380,1005 49380,1005 49380,755" fill="#FFFFFF55" stroke="white" stroke-width="20" />
<polygon points="42350,755 42350,500 36410,500 36410,755 36380,755 36380,1005 42380,1005 42380,755" fill="#FFFFFF55" stroke="white" stroke-width="20" />
<polygon points="35350,755 35350,500 29410,500 29410,755 29380,755 29380,1005 35380,1005 35380,755" fill="#FFFFFF55" stroke="white" stroke-width="20" />
<polygon points="21350,755 21350,500 15410,500 15410,755 15380,755 15380,1005 21380,1005 21380,755" fill="#FFFFFF55" stroke="white" stroke-width="20" />
<polygon points="14350,755 14350,500 8410,500 8410,755 8380,755 8380,1005 14380,1005 14380,755" fill="#FFFFFF55" stroke="white" stroke-width="20" />
<polygon points="7350,755 7350,500 1410,500 1410,755 1380,755 1380,1005 7380,1005 7380,755" fill="#FFFFFF55" stroke="white" stroke-width="20" />
<polygon points="28350,755 28350,500 22410,500 22410,755 22380,755 22380,1005 28380,1005 28380,755" fill="#FFFFFF55" stroke="white" stroke-width="20" />
<polygon points="14380,1005 14680,1005 14680,755 14380,755 8080,755 8080,1005 8380,1005" fill="none" stroke="#2979ff" stroke-width="20" />
<polygon points="63350,755 63350,500 57410,500 57410,755 57380,755 57380,1005 63380,1005 63380,755" fill="#FFFFFF55" stroke="white" stroke-width="20" />
<polygon points="56350,755 56350,500 50410,500 50410,755 50380,755 50380,1005 56380,1005 56380,755" fill="#FFFFFF55" stroke="white" stroke-width="20" />
<polygon points="49350,755 49350,500 43410,500 43410,755 43380,755 43380,1005 49380,1005 49380,755" fill="#FFFFFF55" stroke="white" stroke-width="20" />
<polygon points="42350,755 42350,500 36410,500 36410,755 36380,755 36380,1005 42380,1005 42380,755" fill="#FFFFFF55" stroke="white" stroke-width="20" />
<polygon points="35350,755 35350,500 29410,500 29410,755 29380,755 29380,1005 35380,1005 35380,755" fill="#FFFFFF55" stroke="white" stroke-width="20" />
<polygon points="21350,755 21350,500 15410,500 15410,755 15380,755 15380,1005 21380,1005 21380,755" fill="#FFFFFF55" stroke="white" stroke-width="20" />
<polygon points="14350,755 14350,500 8410,500 8410,755 8380,755 8380,1005 14380,1005 14380,755" fill="#FFFFFF55" stroke="white" stroke-width="20" />
<polygon points="7350,755 7350,500 1410,500 1410,755 1380,755 1380,1005 7380,1005 7380,755" fill="#FFFFFF55" stroke="white" stroke-width="20" />
<polygon points="28350,755 28350,500 22410,500 22410,755 22380,755 22380,1005 28380,1005 28380,755" fill="#FFFFFF55" stroke="white" stroke-width="20" />
<polygon points="21380,1005 21680,1005 21680,755 21380,755 15080,755 15080,1005 15380,1005" fill="none" stroke="#2979ff" stroke-width="20" />
<polygon points="63350,755 63350,500 57410,500 57410,755 57380,755 57380,1005 63380,1005 63380,755" fill="#FFFFFF55" stroke="white" stroke-width="20" />
<polygon points="56350,755 56350,500 50410,500 50410,755 50380,755 50380,1005 56380,1005 56380,755" fill="#FFFFFF55" stroke="white" stroke-width="20" />
<polygon points="49350,755 49350,500 43410,500 43410,755 43380,755 43380,1005 49380,1005 49380,755" fill="#FFFFFF55" stroke="white" stroke-width="20" />
<polygon points="42350,755 42350,500 36410,500 36410,755 36380,755 36380,1005 42380,1005 42380,755" fill="#FFFFFF55" stroke="white" stroke-width="20" />
<polygon points="35350,755 35350,500 29410,500 29410,755 29380,755 29380,1005 35380,1005 35380,755" fill="#FFFFFF55" stroke="white" stroke-width="20" />
<polygon points="21350,755 21350,500 15410,500 15410,755 15380,755 15380,1005 21380,1005 21380,755" fill="#FFFFFF55" stroke="white" stroke-width="20" />
<polygon points="14350,755 14350,500 8410,500 8410,755 8380,755 8380,1005 14380,1005 14380,755" fill="#FFFFFF55" stroke="white" stroke-width="20" />
<polygon points="7350,755 7350,500 1410,500 1410,755 1380,755 1380,1005 7380,1005 7380,755" fill="#FFFFFF55" stroke="white" stroke-width="20" />
<polygon points="28350,755 28350,500 22410,500 22410,755 22380,755 22380,1005 28380,1005 28380,755" fill="#FFFFFF55" stroke="white" stroke-width="20" />
<polygon points="28380,1005 28680,1005 28680,755 28380,755 22080,755 22080,1005 22380,1005" fill="none" stroke="#2979ff" stroke-width="20" />
<polygon points="63350,755 63350,500 57410,500 57410,755 57380,755 57380,1005 63380,1005 63380,755" fill="#FFFFFF55" stroke="white" stroke-width="20" />
<polygon points="56350,755 56350,500 50410,500 50410,755 50380,755 50380,1005 56380,1005 56380,755" fill="#FFFFFF55" stroke="white" stroke-width="20" />
<polygon points="49350,755 49350,500 43410,500 43410,755 43380,755 43380,1005 49380,1005 49380,755" fill="#FFFFFF55" stroke="white" stroke-width="20" />
<polygon points="42350,755 42350,500 36410,500 36410,755 36380,755 36380,1005 42380,1005 42380,755" fill="#FFFFFF55" stroke="white" stroke-width="20" />
<polygon points="35350,755 35350,500 29410,500 29410,755 29380,755 29380,1005 35380,1005 35380,755" fill="#FFFFFF55" stroke="white" stroke-width="20" />
<polygon points="21350,755 21350,500 15410,500 15410,755 15380,755 15380,1005 21380,1005 21380,755" fill="#FFFFFF55" stroke="white" stroke-width="20" />
<polygon points="14350,755 14350,500 8410,500 8410,755 8380,755 8380,1005 14380,1005 14380,755" fill="#FFFFFF55" stroke="white" stroke-width="20" />
<polygon points="7350,755 7350,500 1410,500 1410,755 1380,755 1380,1005 7380,1005 7380,755" fill="#FFFFFF55" stroke="white" stroke-width="20" />
<polygon points="28350,755 28350,500 22410,500 22410,755 22380,755 22380,1005 28380,1005 28380,755" fill="#FFFFFF55" stroke="white" stroke-width="20" />
<polygon points="35380,1005 35680,1005 35680,755 35380,755 29080,755 29080,1005 29380,1005" fill="none" stroke="#2979ff" stroke-width="20" />
<polygon points="63350,755 63350,500 57410,500 57410,755 57380,755 57380,1005 63380,1005 63380,755" fill="#FFFFFF55" stroke="white" stroke-width="20" />
<polygon points="56350,755 56350,500 50410,500 50410,755 50380,755 50380,1005 56380,1005 56380,755" fill="#FFFFFF55" stroke="white" stroke-width="20" />
<polygon points="49350,755 49350,500 43410,500 43410,755 43380,755 43380,1005 49380,1005 49380,755" fill="#FFFFFF55" stroke="white" stroke-width="20" />
<polygon points="42350,755 42350,500 36410,500 36410,755 36380,755 36380,1005 42380,1005 42380,755" fill="#FFFFFF55" stroke="white" stroke-width="20" />
<polygon points="35350,755 35350,500 29410,500 29410,755 29380,755 29380,1005 35380,1005 35380,755" fill="#FFFFFF55" stroke="white" stroke-width="20" />
<polygon points="21350,755 21350,500 15410,500 15410,755 15380,755 15380,1005 21380,1005 21380,755" fill="#FFFFFF55" stroke="white" stroke-width="20" />
<polygon points="14350,755 14350,500 8410,500 8410,755 8380,755 8380,1005 14380,1005 14380,755" fill="#FFFFFF55" stroke="white" stroke-width="20" />
<polygon points="7350,755 7350,500 1410,500 1410,755 1380,755 1380,1005 7380,1005 7380,755" fill="#FFFFFF55" stroke="white" stroke-width="20" />
<polygon points="28350,755 28350,500 22410,500 22410,755 22380,755 22380,1005 28380,1005 28380,755" fill="#FFFFFF55" stroke="white" stroke-width="20" />
<polygon points="42380,1005 42680,1005 42680,755 42380,755 36080,755 36080,1005 36380,1005" fill="none" stroke="#2979ff" stroke-width="20" />
<polygon points="63350,755 63350,500 57410,500 57410,755 57380,755 57380,1005 63380,1005 63380,755" fill="#FFFFFF55" stroke="white" stroke-width="20" />
<polygon points="56350,755 56350,500 50410,500 50410,755 50380,755 50380,1005 56380,1005 56380,755" fill="#FFFFFF55" stroke="white" stroke-width="20" />
<polygon points="49350,755 49350,500 43410,500 43410,755 43380,755 43380,1005 49380,1005 49380,755" fill="#FFFFFF55" stroke="white" stroke-width="20" />
<polygon points="42350,755 42350,500 36410,500 36410,755 36380,755 36380,1005 42380,1005 42380,755" fill="#FFFFFF55" stroke="white" stroke-width="20" />
<polygon points="35350,755 35350,500 29410,500 29410,755 29380,755 29380,1005 35380,1005 35380,755" fill="#FFFFFF55" stroke="white" stroke-width="20" />
<polygon points="21350,755 21350,500 15410,500 15410,755 15380,755 15380,1005 21380,1005 21380,755" fill="#FFFFFF55" stroke="white" stroke-width="20" />
<polygon points="14350,755 14350,500 8410,500 8410,755 8380,755 8380,1005 14380,1005 14380,755" fill="#FFFFFF55" stroke="white" stroke-width="20" />
<polygon points="7350,755 7350,500 1410,500 1410,755 1380,755 1380,1005 7380,1005 7380,755" fill="#FFFFFF55" stroke="white" stroke-width="20" />
<polygon points="28350,755 28350,500 22410,500 22410,755 22380,755 22380,1005 28380,1005 28380,755" fill="#FFFFFF55" stroke="white" stroke-width="20" />
<polygon points="49380,1005 49680,1005 49680,755 49380,755 43080,755 43080,1005 43380,1005" fill="none" stroke="#2979ff" stroke-width="20" />
<polygon points="63350,755 63350,500 57410,500 57410,755 57380,755 57380,1005 63380,1005 63380,755" fill="#FFFFFF55" stroke="white" stroke-width="20" />
<polygon points="56350,755 56350,500 50410,500 50410,755 50380,755 50380,1005 56380,1005 56380,755" fill="#FFFFFF55" stroke="white" stroke-width="20" />
<polygon points="49350,755 49350,500 43410,500 43410,755 43380,755 43380,1005 49380,1005 49380,755" fill="#FFFFFF55" stroke="white" stroke-width="20" />
<polygon points="42350,755 42350,500 36410,500 36410,755 36380,755 36380,1005 42380,1005 42380,755" fill="#FFFFFF55" stroke="white" stroke-width="20" />
<polygon points="35350,755 35350,500 29410,500 29410,755 29380,755 29380,1005 35380,1005 35380,755" fill="#FFFFFF55" stroke="white" stroke-width="20" />
<polygon points="21350,755 21350,500 15410,500 15410,755 15380,755 15380,1005 21380,1005 21380,755" fill="#FFFFFF55" stroke="white" stroke-width="20" />
<polygon points="14350,755 14350,500 8410,500 8410,755 8380,755 8380,1005 14380,1005 14380,755" fill="#FFFFFF55" stroke="white" stroke-width="20" />
<polygon points="7350,755 7350,500 1410,500 1410,755 1380,755 1380,1005 7380,1005 7380,755" fill="#FFFFFF55" stroke="white" stroke-width="20" />
<polygon points="28350,755 28350,500 22410,500 22410,755 22380,755 22380,1005 28380,1005 28380,755" fill="#FFFFFF55" stroke="white" stroke-width="20" />
<polygon points="56380,1005 56680,1005 56680,755 56380,755 50080,755 50080,1005 50380,1005" fill="none" stroke="#2979ff" stroke-width="20" />
<polygon points="63350,755 63350,500 57410,500 57410,755 57380,755 57380,1005 63380,1005 63380,755" fill="#FFFFFF55" stroke="white" stroke-width="20" />
<polygon points="56350,755 56350,500 50410,500 50410,755 50380,755 50380,1005 56380,1005 56380,755" fill="#FFFFFF55" stroke="white" stroke-width="20" />
<polygon points="49350,755 49350,500 43410,500 43410,755 43380,755 43380,1005 49380,1005 49380,755" fill="#FFFFFF55" stroke="white" stroke-width="20" />
<polygon points="42350,755 42350,500 36410,500 36410,755 36380,755 36380,1005 42380,1005 42380,755" fill="#FFFFFF55" stroke="white" stroke-width="20" />
<polygon points="35350,755 35350,500 29410,500 29410,755 29380,755 29380,1005 35380,1005 35380,755" fill="#FFFFFF55" stroke="white" stroke-width="20" />
<polygon points="21350,755 21350,500 15410,500 15410,755 15380,755 15380,1005 21380,1005 21380,755" fill="#FFFFFF55" stroke="white" stroke-width="20" />
<polygon points="14350,755 14350,500 8410,500 8410,755 8380,755 8380,1005 14380,1005 14380,755" fill="#FFFFFF55" stroke="white" stroke-width="20" />
<polygon points="7350,755 7350,500 1410,500 1410,755 1380,755 1380,1005 7380,1005 7380,755" fill="#FFFFFF55" stroke="white" stroke-width="20" />
<polygon points="28350,755 28350,500 22410,500 22410,755 22380,755 22380,1005 28380,1005 28380,755" fill="#FFFFFF55" stroke="white" stroke-width="20" />
<polygon points="64005,7755 64005,1005 63755,1005 63755,6432.5 63755,6582.5 63755,7755" fill="none" stroke="#2979ff" stroke-width="20" />
<polygon points="64005,19980 64005,19950 64260,19950 64260,16010 64005,16010 64005,15980 63755,15980 63755,19980" fill="#FFFFFF55" stroke="white" stroke-width="20" />
<polygon points="64005,5380 64005,5350 64260,5350 64260,1410 64005,1410 64005,1380 63755,1380 63755,5380" fill="#FFFFFF55" stroke="white" stroke-width="20" />
<polygon points="64005,13355 64005,9380 63755,9380 63755,13355" fill="none" stroke="#2979ff" stroke-width="20" />
<polygon points="64005,5380 64005,5350 64260,5350 64260,1410 64005,1410 64005,1380 63755,1380 63755,5380" fill="#FFFFFF55" stroke="white" stroke-width="20" />
<polygon points="64005,19980 64005,19950 64260,19950 64260,16010 64005,16010 64005,15980 63755,15980 63755,19980" fill="#FFFFFF55" stroke="white" stroke-width="20" />
<polygon points="64005,20355 64005,13605 63755,13605 63755,20355" fill="none" stroke="#2979ff" stroke-width="20" />
<polygon points="64005,5380 64005,5350 64260,5350 64260,1410 64005,1410 64005,1380 63755,1380 63755,5380" fill="#FFFFFF55" stroke="white" stroke-width="20" />
<polygon points="64005,19980 64005,19950 64260,19950 64260,16010 64005,16010 64005,15980 63755,15980 63755,19980" fill="#FFFFFF55" stroke="white" stroke-width="20" />
<polygon points="63380,20605 63755,20605 63755,20355 63380,20355 57080,20355 57080,20605 57380,20605" fill="none" stroke="#2979ff" stroke-width="20" />
<polygon points="1410,20605 1410,20860 7350,20860 7350,20605 7380,20605 7380,20355 1380,20355 1380,20605" fill="#FFFFFF55" stroke="white" stroke-width="20" />
<polygon points="8410,20605 8410,20860 14350,20860 14350,20605 14380,20605 14380,20355 8380,20355 8380,20605" fill="#FFFFFF55" stroke="white" stroke-width="20" />
<polygon points="15410,20605 15410,20860 21350,20860 21350,20605 21380,20605 21380,20355 15380,20355 15380,20605" fill="#FFFFFF55" stroke="white" stroke-width="20" />
<polygon points="29410,20605 29410,20860 35350,20860 35350,20605 35380,20605 35380,20355 29380,20355 29380,20605" fill="#FFFFFF55" stroke="white" stroke-width="20" />
<polygon points="36410,20605 36410,20860 42350,20860 42350,20605 42380,20605 42380,20355 36380,20355 36380,20605" fill="#FFFFFF55" stroke="white" stroke-width="20" />
<polygon points="43410,20605 43410,20860 49350,20860 49350,20605 49380,20605 49380,20355 43380,20355 43380,20605" fill="#FFFFFF55" stroke="white" stroke-width="20" />
<polygon points="50410,20605 50410,20860 56350,20860 56350,20605 56380,20605 56380,20355 50380,20355 50380,20605" fill="#FFFFFF55" stroke="white" stroke-width="20" />
<polygon points="57410,20605 57410,20860 63350,20860 63350,20605 63380,20605 63380,20355 57380,20355 57380,20605" fill="#FFFFFF55" stroke="white" stroke-width="20" />
<polygon points="7380,20605 7680,20605 7680,20355 7380,20355 1005,20355 1005,20605 1380,20605" fill="none" stroke="#2979ff" stroke-width="20" />
<polygon points="1410,20605 1410,20860 7350,20860 7350,20605 7380,20605 7380,20355 1380,20355 1380,20605" fill="#FFFFFF55" stroke="white" stroke-width="20" />
<polygon points="8410,20605 8410,20860 14350,20860 14350,20605 14380,20605 14380,20355 8380,20355 8380,20605" fill="#FFFFFF55" stroke="white" stroke-width="20" />
<polygon points="15410,20605 15410,20860 21350,20860 21350,20605 21380,20605 21380,20355 15380,20355 15380,20605" fill="#FFFFFF55" stroke="white" stroke-width="20" />
<polygon points="29410,20605 29410,20860 35350,20860 35350,20605 35380,20605 35380,20355 29380,20355 29380,20605" fill="#FFFFFF55" stroke="white" stroke-width="20" />
<polygon points="36410,20605 36410,20860 42350,20860 42350,20605 42380,20605 42380,20355 36380,20355 36380,20605" fill="#FFFFFF55" stroke="white" stroke-width="20" />
<polygon points="43410,20605 43410,20860 49350,20860 49350,20605 49380,20605 49380,20355 43380,20355 43380,20605" fill="#FFFFFF55" stroke="white" stroke-width="20" />
<polygon points="50410,20605 50410,20860 56350,20860 56350,20605 56380,20605 56380,20355 50380,20355 50380,20605" fill="#FFFFFF55" stroke="white" stroke-width="20" />
<polygon points="57410,20605 57410,20860 63350,20860 63350,20605 63380,20605 63380,20355 57380,20355 57380,20605" fill="#FFFFFF55" stroke="white" stroke-width="20" />
<polygon points="56380,20605 56680,20605 56680,20355 56380,20355 50080,20355 50080,20605 50380,20605" fill="none" stroke="#2979ff" stroke-width="20" />
<polygon points="1410,20605 1410,20860 7350,20860 7350,20605 7380,20605 7380,20355 1380,20355 1380,20605" fill="#FFFFFF55" stroke="white" stroke-width="20" />
<polygon points="8410,20605 8410,20860 14350,20860 14350,20605 14380,20605 14380,20355 8380,20355 8380,20605" fill="#FFFFFF55" stroke="white" stroke-width="20" />
<polygon points="15410,20605 15410,20860 21350,20860 21350,20605 21380,20605 21380,20355 15380,20355 15380,20605" fill="#FFFFFF55" stroke="white" stroke-width="20" />
<polygon points="29410,20605 29410,20860 35350,20860 35350,20605 35380,20605 35380,20355 29380,20355 29380,20605" fill="#FFFFFF55" stroke="white" stroke-width="20" />
<polygon points="36410,20605 36410,20860 42350,20860 42350,20605 42380,20605 42380,20355 36380,20355 36380,20605" fill="#FFFFFF55" stroke="white" stroke-width="20" />
<polygon points="43410,20605 43410,20860 49350,20860 49350,20605 49380,20605 49380,20355 43380,20355 43380,20605" fill="#FFFFFF55" stroke="white" stroke-width="20" />
<polygon points="50410,20605 50410,20860 56350,20860 56350,20605 56380,20605 56380,20355 50380,20355 50380,20605" fill="#FFFFFF55" stroke="white" stroke-width="20" />
<polygon points="57410,20605 57410,20860 63350,20860 63350,20605 63380,20605 63380,20355 57380,20355 57380,20605" fill="#FFFFFF55" stroke="white" stroke-width="20" />
<polygon points="49380,20605 49680,20605 49680,20355 49380,20355 43080,20355 43080,20605 43380,20605" fill="none" stroke="#2979ff" stroke-width="20" />
<polygon points="1410,20605 1410,20860 7350,20860 7350,20605 7380,20605 7380,20355 1380,20355 1380,20605" fill="#FFFFFF55" stroke="white" stroke-width="20" />
<polygon points="8410,20605 8410,20860 14350,20860 14350,20605 14380,20605 14380,20355 8380,20355 8380,20605" fill="#FFFFFF55" stroke="white" stroke-width="20" />
<polygon points="15410,20605 15410,20860 21350,20860 21350,20605 21380,20605 21380,20355 15380,20355 15380,20605" fill="#FFFFFF55" stroke="white" stroke-width="20" />
<polygon points="29410,20605 29410,20860 35350,20860 35350,20605 35380,20605 35380,20355 29380,20355 29380,20605" fill="#FFFFFF55" stroke="white" stroke-width="20" />
<polygon points="36410,20605 36410,20860 42350,20860 42350,20605 42380,20605 42380,20355 36380,20355 36380,20605" fill="#FFFFFF55" stroke="white" stroke-width="20" />
<polygon points="43410,20605 43410,20860 49350,20860 49350,20605 49380,20605 49380,20355 43380,20355 43380,20605" fill="#FFFFFF55" stroke="white" stroke-width="20" />
<polygon points="50410,20605 50410,20860 56350,20860 56350,20605 56380,20605 56380,20355 50380,20355 50380,20605" fill="#FFFFFF55" stroke="white" stroke-width="20" />
<polygon points="57410,20605 57410,20860 63350,20860 63350,20605 63380,20605 63380,20355 57380,20355 57380,20605" fill="#FFFFFF55" stroke="white" stroke-width="20" />
<polygon points="42380,20605 42680,20605 42680,20355 42380,20355 36080,20355 36080,20605 36380,20605" fill="none" stroke="#2979ff" stroke-width="20" />
<polygon points="1410,20605 1410,20860 7350,20860 7350,20605 7380,20605 7380,20355 1380,20355 1380,20605" fill="#FFFFFF55" stroke="white" stroke-width="20" />
<polygon points="8410,20605 8410,20860 14350,20860 14350,20605 14380,20605 14380,20355 8380,20355 8380,20605" fill="#FFFFFF55" stroke="white" stroke-width="20" />
<polygon points="15410,20605 15410,20860 21350,20860 21350,20605 21380,20605 21380,20355 15380,20355 15380,20605" fill="#FFFFFF55" stroke="white" stroke-width="20" />
<polygon points="29410,20605 29410,20860 35350,20860 35350,20605 35380,20605 35380,20355 29380,20355 29380,20605" fill="#FFFFFF55" stroke="white" stroke-width="20" />
<polygon points="36410,20605 36410,20860 42350,20860 42350,20605 42380,20605 42380,20355 36380,20355 36380,20605" fill="#FFFFFF55" stroke="white" stroke-width="20" />
<polygon points="43410,20605 43410,20860 49350,20860 49350,20605 49380,20605 49380,20355 43380,20355 43380,20605" fill="#FFFFFF55" stroke="white" stroke-width="20" />
<polygon points="50410,20605 50410,20860 56350,20860 56350,20605 56380,20605 56380,20355 50380,20355 50380,20605" fill="#FFFFFF55" stroke="white" stroke-width="20" />
<polygon points="57410,20605 57410,20860 63350,20860 63350,20605 63380,20605 63380,20355 57380,20355 57380,20605" fill="#FFFFFF55" stroke="white" stroke-width="20" />
<polygon points="35380,20605 35680,20605 35680,20355 35380,20355 29080,20355 29080,20605 29380,20605" fill="none" stroke="#2979ff" stroke-width="20" />
<polygon points="1410,20605 1410,20860 7350,20860 7350,20605 7380,20605 7380,20355 1380,20355 1380,20605" fill="#FFFFFF55" stroke="white" stroke-width="20" />
<polygon points="8410,20605 8410,20860 14350,20860 14350,20605 14380,20605 14380,20355 8380,20355 8380,20605" fill="#FFFFFF55" stroke="white" stroke-width="20" />
<polygon points="15410,20605 15410,20860 21350,20860 21350,20605 21380,20605 21380,20355 15380,20355 15380,20605" fill="#FFFFFF55" stroke="white" stroke-width="20" />
<polygon points="29410,20605 29410,20860 35350,20860 35350,20605 35380,20605 35380,20355 29380,20355 29380,20605" fill="#FFFFFF55" stroke="white" stroke-width="20" />
<polygon points="36410,20605 36410,20860 42350,20860 42350,20605 42380,20605 42380,20355 36380,20355 36380,20605" fill="#FFFFFF55" stroke="white" stroke-width="20" />
<polygon points="43410,20605 43410,20860 49350,20860 49350,20605 49380,20605 49380,20355 43380,20355 43380,20605" fill="#FFFFFF55" stroke="white" stroke-width="20" />
<polygon points="50410,20605 50410,20860 56350,20860 56350,20605 56380,20605 56380,20355 50380,20355 50380,20605" fill="#FFFFFF55" stroke="white" stroke-width="20" />
<polygon points="57410,20605 57410,20860 63350,20860 63350,20605 63380,20605 63380,20355 57380,20355 57380,20605" fill="#FFFFFF55" stroke="white" stroke-width="20" />
<polygon points="22379.64,20605 28376.68,20605 28680,20605 28680,20355 28376.68,20355 22080,20355 22080,20605 22376.68,20605" fill="none" stroke="#2979ff" stroke-width="20" />
<polygon points="1410,20605 1410,20860 7350,20860 7350,20605 7380,20605 7380,20355 1380,20355 1380,20605" fill="#FFFFFF55" stroke="white" stroke-width="20" />
<polygon points="8410,20605 8410,20860 14350,20860 14350,20605 14380,20605 14380,20355 8380,20355 8380,20605" fill="#FFFFFF55" stroke="white" stroke-width="20" />
<polygon points="15410,20605 15410,20860 21350,20860 21350,20605 21380,20605 21380,20355 15380,20355 15380,20605" fill="#FFFFFF55" stroke="white" stroke-width="20" />
<polygon points="29410,20605 29410,20860 35350,20860 35350,20605 35380,20605 35380,20355 29380,20355 29380,20605" fill="#FFFFFF55" stroke="white" stroke-width="20" />
<polygon points="36410,20605 36410,20860 42350,20860 42350,20605 42380,20605 42380,20355 36380,20355 36380,20605" fill="#FFFFFF55" stroke="white" stroke-width="20" />
<polygon points="43410,20605 43410,20860 49350,20860 49350,20605 49380,20605 49380,20355 43380,20355 43380,20605" fill="#FFFFFF55" stroke="white" stroke-width="20" />
<polygon points="50410,20605 50410,20860 56350,20860 56350,20605 56380,20605 56380,20355 50380,20355 50380,20605" fill="#FFFFFF55" stroke="white" stroke-width="20" />
<polygon points="57410,20605 57410,20860 63350,20860 63350,20605 63380,20605 63380,20355 57380,20355 57380,20605" fill="#FFFFFF55" stroke="white" stroke-width="20" />
<polygon points="21380,20605 21680,20605 21680,20355 21380,20355 15080,20355 15080,20605 15380,20605" fill="none" stroke="#2979ff" stroke-width="20" />
<polygon points="1410,20605 1410,20860 7350,20860 7350,20605 7380,20605 7380,20355 1380,20355 1380,20605" fill="#FFFFFF55" stroke="white" stroke-width="20" />
<polygon points="8410,20605 8410,20860 14350,20860 14350,20605 14380,20605 14380,20355 8380,20355 8380,20605" fill="#FFFFFF55" stroke="white" stroke-width="20" />
<polygon points="15410,20605 15410,20860 21350,20860 21350,20605 21380,20605 21380,20355 15380,20355 15380,20605" fill="#FFFFFF55" stroke="white" stroke-width="20" />
<polygon points="29410,20605 29410,20860 35350,20860 35350,20605 35380,20605 35380,20355 29380,20355 29380,20605" fill="#FFFFFF55" stroke="white" stroke-width="20" />
<polygon points="36410,20605 36410,20860 42350,20860 42350,20605 42380,20605 42380,20355 36380,20355 36380,20605" fill="#FFFFFF55" stroke="white" stroke-width="20" />
<polygon points="43410,20605 43410,20860 49350,20860 49350,20605 49380,20605 49380,20355 43380,20355 43380,20605" fill="#FFFFFF55" stroke="white" stroke-width="20" />
<polygon points="50410,20605 50410,20860 56350,20860 56350,20605 56380,20605 56380,20355 50380,20355 50380,20605" fill="#FFFFFF55" stroke="white" stroke-width="20" />
<polygon points="57410,20605 57410,20860 63350,20860 63350,20605 63380,20605 63380,20355 57380,20355 57380,20605" fill="#FFFFFF55" stroke="white" stroke-width="20" />
<polygon points="14380,20605 14680,20605 14680,20355 14380,20355 8080,20355 8080,20605 8380,20605" fill="none" stroke="#2979ff" stroke-width="20" />
<polygon points="1410,20605 1410,20860 7350,20860 7350,20605 7380,20605 7380,20355 1380,20355 1380,20605" fill="#FFFFFF55" stroke="white" stroke-width="20" />
<polygon points="8410,20605 8410,20860 14350,20860 14350,20605 14380,20605 14380,20355 8380,20355 8380,20605" fill="#FFFFFF55" stroke="white" stroke-width="20" />
<polygon points="15410,20605 15410,20860 21350,20860 21350,20605 21380,20605 21380,20355 15380,20355 15380,20605" fill="#FFFFFF55" stroke="white" stroke-width="20" />
<polygon points="29410,20605 29410,20860 35350,20860 35350,20605 35380,20605 35380,20355 29380,20355 29380,20605" fill="#FFFFFF55" stroke="white" stroke-width="20" />
<polygon points="36410,20605 36410,20860 42350,20860 42350,20605 42380,20605 42380,20355 36380,20355 36380,20605" fill="#FFFFFF55" stroke="white" stroke-width="20" />
<polygon points="43410,20605 43410,20860 49350,20860 49350,20605 49380,20605 49380,20355 43380,20355 43380,20605" fill="#FFFFFF55" stroke="white" stroke-width="20" />
<polygon points="50410,20605 50410,20860 56350,20860 56350,20605 56380,20605 56380,20355 50380,20355 50380,20605" fill="#FFFFFF55" stroke="white" stroke-width="20" />
<polygon points="57410,20605 57410,20860 63350,20860 63350,20605 63380,20605 63380,20355 57380,20355 57380,20605" fill="#FFFFFF55" stroke="white" stroke-width="20" />
<polygon points="7350,20857 8410,20857 14350,20857 15410,20857 21350,20857 22379.64,20857 22410,20857 28350,20857 28379.64,20857 29410,20857 35350,20857 36410,20857 42350,20857 43410,20857 49350,20857 50410,20857 56350,20857 57410,20857 63350,20857 64245,20857 64245,20845 63350,20845 56350,20845 49350,20845 42350,20845 35350,20845 28379.64,20845 28350,20845 22379.64,20845 21350,20845 14350,20845 7350,20845 503,20845 503,20857 1410,20857" fill="none" stroke="#2979ff" stroke-width="20" />
<polygon points="1410,20605 1410,20860 7350,20860 7350,20605 7380,20605 7380,20355 1380,20355 1380,20605" fill="#FFFFFF55" stroke="white" stroke-width="20" />
<polygon points="8410,20605 8410,20860 14350,20860 14350,20605 14380,20605 14380,20355 8380,20355 8380,20605" fill="#FFFFFF55" stroke="white" stroke-width="20" />
<polygon points="15410,20605 15410,20860 21350,20860 21350,20605 21380,20605 21380,20355 15380,20355 15380,20605" fill="#FFFFFF55" stroke="white" stroke-width="20" />
<polygon points="22410,20605 22410,20860 28350,20860 28350,20605 28380,20605 28380,20355 22380,20355 22380,20605" fill="#FFFFFF55" stroke="white" stroke-width="20" />
<polygon points="29410,20605 29410,20860 35350,20860 35350,20605 35380,20605 35380,20355 29380,20355 29380,20605" fill="#FFFFFF55" stroke="white" stroke-width="20" />
<polygon points="36410,20605 36410,20860 42350,20860 42350,20605 42380,20605 42380,20355 36380,20355 36380,20605" fill="#FFFFFF55" stroke="white" stroke-width="20" />
<polygon points="43410,20605 43410,20860 49350,20860 49350,20605 49380,20605 49380,20355 43380,20355 43380,20605" fill="#FFFFFF55" stroke="white" stroke-width="20" />
<polygon points="50410,20605 50410,20860 56350,20860 56350,20605 56380,20605 56380,20355 50380,20355 50380,20605" fill="#FFFFFF55" stroke="white" stroke-width="20" />
<polygon points="57410,20605 57410,20860 63350,20860 63350,20605 63380,20605 63380,20355 57380,20355 57380,20605" fill="#FFFFFF55" stroke="white" stroke-width="20" />
<polygon points="1410,20605 1410,20860 7350,20860 7350,20605 7380,20605 7380,20355 1380,20355 1380,20605" fill="#FFFFFF55" stroke="white" stroke-width="20" />
<polygon points="8410,20605 8410,20860 14350,20860 14350,20605 14380,20605 14380,20355 8380,20355 8380,20605" fill="#FFFFFF55" stroke="white" stroke-width="20" />
<polygon points="15410,20605 15410,20860 21350,20860 21350,20605 21380,20605 21380,20355 15380,20355 15380,20605" fill="#FFFFFF55" stroke="white" stroke-width="20" />
<polygon points="29410,20605 29410,20860 35350,20860 35350,20605 35380,20605 35380,20355 29380,20355 29380,20605" fill="#FFFFFF55" stroke="white" stroke-width="20" />
<polygon points="36410,20605 36410,20860 42350,20860 42350,20605 42380,20605 42380,20355 36380,20355 36380,20605" fill="#FFFFFF55" stroke="white" stroke-width="20" />
<polygon points="43410,20605 43410,20860 49350,20860 49350,20605 49380,20605 49380,20355 43380,20355 43380,20605" fill="#FFFFFF55" stroke="white" stroke-width="20" />
<polygon points="50410,20605 50410,20860 56350,20860 56350,20605 56380,20605 56380,20355 50380,20355 50380,20605" fill="#FFFFFF55" stroke="white" stroke-width="20" />
<polygon points="57410,20605 57410,20860 63350,20860 63350,20605 63380,20605 63380,20355 57380,20355 57380,20605" fill="#FFFFFF55" stroke="white" stroke-width="20" />
<polygon points="7350,20845 8410,20845 14350,20845 15410,20845 21350,20845 22379.64,20845 22410,20845 28350,20845 28379.64,20845 29410,20845 35350,20845 36410,20845 42350,20845 43410,20845 49350,20845 50410,20845 56350,20845 57410,20845 63350,20845 64205,20845 64205,20805 63350,20805 56350,20805 49350,20805 42350,20805 35350,20805 28379.64,20805 28350,20805 22379.64,20805 21350,20805 14350,20805 7350,20805 515,20805 515,20845 1410,20845" fill="none" stroke="#2979ff" stroke-width="20" />
<polygon points="1410,20605 1410,20860 7350,20860 7350,20605 7380,20605 7380,20355 1380,20355 1380,20605" fill="#FFFFFF55" stroke="white" stroke-width="20" />
<polygon points="8410,20605 8410,20860 14350,20860 14350,20605 14380,20605 14380,20355 8380,20355 8380,20605" fill="#FFFFFF55" stroke="white" stroke-width="20" />
<polygon points="15410,20605 15410,20860 21350,20860 21350,20605 21380,20605 21380,20355 15380,20355 15380,20605" fill="#FFFFFF55" stroke="white" stroke-width="20" />
<polygon points="22410,20605 22410,20860 28350,20860 28350,20605 28380,20605 28380,20355 22380,20355 22380,20605" fill="#FFFFFF55" stroke="white" stroke-width="20" />
<polygon points="29410,20605 29410,20860 35350,20860 35350,20605 35380,20605 35380,20355 29380,20355 29380,20605" fill="#FFFFFF55" stroke="white" stroke-width="20" />
<polygon points="36410,20605 36410,20860 42350,20860 42350,20605 42380,20605 42380,20355 36380,20355 36380,20605" fill="#FFFFFF55" stroke="white" stroke-width="20" />
<polygon points="43410,20605 43410,20860 49350,20860 49350,20605 49380,20605 49380,20355 43380,20355 43380,20605" fill="#FFFFFF55" stroke="white" stroke-width="20" />
<polygon points="50410,20605 50410,20860 56350,20860 56350,20605 56380,20605 56380,20355 50380,20355 50380,20605" fill="#FFFFFF55" stroke="white" stroke-width="20" />
<polygon points="57410,20605 57410,20860 63350,20860 63350,20605 63380,20605 63380,20355 57380,20355 57380,20605" fill="#FFFFFF55" stroke="white" stroke-width="20" />
<polygon points="1410,20605 1410,20860 7350,20860 7350,20605 7380,20605 7380,20355 1380,20355 1380,20605" fill="#FFFFFF55" stroke="white" stroke-width="20" />
<polygon points="8410,20605 8410,20860 14350,20860 14350,20605 14380,20605 14380,20355 8380,20355 8380,20605" fill="#FFFFFF55" stroke="white" stroke-width="20" />
<polygon points="15410,20605 15410,20860 21350,20860 21350,20605 21380,20605 21380,20355 15380,20355 15380,20605" fill="#FFFFFF55" stroke="white" stroke-width="20" />
<polygon points="29410,20605 29410,20860 35350,20860 35350,20605 35380,20605 35380,20355 29380,20355 29380,20605" fill="#FFFFFF55" stroke="white" stroke-width="20" />
<polygon points="36410,20605 36410,20860 42350,20860 42350,20605 42380,20605 42380,20355 36380,20355 36380,20605" fill="#FFFFFF55" stroke="white" stroke-width="20" />
<polygon points="43410,20605 43410,20860 49350,20860 49350,20605 49380,20605 49380,20355 43380,20355 43380,20605" fill="#FFFFFF55" stroke="white" stroke-width="20" />
<polygon points="50410,20605 50410,20860 56350,20860 56350,20605 56380,20605 56380,20355 50380,20355 50380,20605" fill="#FFFFFF55" stroke="white" stroke-width="20" />
<polygon points="57410,20605 57410,20860 63350,20860 63350,20605 63380,20605 63380,20355 57380,20355 57380,20605" fill="#FFFFFF55" stroke="white" stroke-width="20" />
<polygon points="7350,20805 8410,20805 14350,20805 15410,20805 21350,20805 22379.64,20805 22410,20805 28350,20805 28379.64,20805 29410,20805 35350,20805 36410,20805 42350,20805 43410,20805 49350,20805 50410,20805 56350,20805 57410,20805 63350,20805 64005,20805 64005,20605 63350,20605 56350,20605 49350,20605 42350,20605 35350,20605 28379.64,20605 28350,20605 22379.64,20605 21350,20605 14350,20605 7350,20605 755,20605 555,20605 555,20805 1410,20805" fill="none" stroke="#2979ff" stroke-width="20" />
<polygon points="1410,20605 1410,20860 7350,20860 7350,20605 7380,20605 7380,20355 1380,20355 1380,20605" fill="#FFFFFF55" stroke="white" stroke-width="20" />
<polygon points="8410,20605 8410,20860 14350,20860 14350,20605 14380,20605 14380,20355 8380,20355 8380,20605" fill="#FFFFFF55" stroke="white" stroke-width="20" />
<polygon points="15410,20605 15410,20860 21350,20860 21350,20605 21380,20605 21380,20355 15380,20355 15380,20605" fill="#FFFFFF55" stroke="white" stroke-width="20" />
<polygon points="22410,20605 22410,20860 28350,20860 28350,20605 28380,20605 28380,20355 22380,20355 22380,20605" fill="#FFFFFF55" stroke="white" stroke-width="20" />
<polygon points="29410,20605 29410,20860 35350,20860 35350,20605 35380,20605 35380,20355 29380,20355 29380,20605" fill="#FFFFFF55" stroke="white" stroke-width="20" />
<polygon points="36410,20605 36410,20860 42350,20860 42350,20605 42380,20605 42380,20355 36380,20355 36380,20605" fill="#FFFFFF55" stroke="white" stroke-width="20" />
<polygon points="43410,20605 43410,20860 49350,20860 49350,20605 49380,20605 49380,20355 43380,20355 43380,20605" fill="#FFFFFF55" stroke="white" stroke-width="20" />
<polygon points="50410,20605 50410,20860 56350,20860 56350,20605 56380,20605 56380,20355 50380,20355 50380,20605" fill="#FFFFFF55" stroke="white" stroke-width="20" />
<polygon points="57410,20605 57410,20860 63350,20860 63350,20605 63380,20605 63380,20355 57380,20355 57380,20605" fill="#FFFFFF55" stroke="white" stroke-width="20" />
<polygon points="1410,20605 1410,20860 7350,20860 7350,20605 7380,20605 7380,20355 1380,20355 1380,20605" fill="#FFFFFF55" stroke="white" stroke-width="20" />
<polygon points="8410,20605 8410,20860 14350,20860 14350,20605 14380,20605 14380,20355 8380,20355 8380,20605" fill="#FFFFFF55" stroke="white" stroke-width="20" />
<polygon points="15410,20605 15410,20860 21350,20860 21350,20605 21380,20605 21380,20355 15380,20355 15380,20605" fill="#FFFFFF55" stroke="white" stroke-width="20" />
<polygon points="29410,20605 29410,20860 35350,20860 35350,20605 35380,20605 35380,20355 29380,20355 29380,20605" fill="#FFFFFF55" stroke="white" stroke-width="20" />
<polygon points="36410,20605 36410,20860 42350,20860 42350,20605 42380,20605 42380,20355 36380,20355 36380,20605" fill="#FFFFFF55" stroke="white" stroke-width="20" />
<polygon points="43410,20605 43410,20860 49350,20860 49350,20605 49380,20605 49380,20355 43380,20355 43380,20605" fill="#FFFFFF55" stroke="white" stroke-width="20" />
<polygon points="50410,20605 50410,20860 56350,20860 56350,20605 56380,20605 56380,20355 50380,20355 50380,20605" fill="#FFFFFF55" stroke="white" stroke-width="20" />
<polygon points="57410,20605 57410,20860 63350,20860 63350,20605 63380,20605 63380,20355 57380,20355 57380,20605" fill="#FFFFFF55" stroke="white" stroke-width="20" />
<polygon points="515,20845 515,503 503,503 503,20845" fill="none" stroke="#2979ff" stroke-width="20" />
<polygon points="1005,5380 1005,1380 755,1380 755,1410 500,1410 500,5350 755,5350 755,5380" fill="#FFFFFF55" stroke="white" stroke-width="20" />
<polygon points="1005,19980 1005,15980 755,15980 755,16010 500,16010 500,19950 755,19950 755,19980" fill="#FFFFFF55" stroke="white" stroke-width="20" />
<polygon points="1005,13055 1005,11055 755,11055 755,11085 500,11085 500,13025 755,13025 755,13055" fill="#FFFFFF55" stroke="white" stroke-width="20" />
<polygon points="1005,10305 1005,8305 755,8305 755,8335 500,8335 500,10275 755,10275 755,10305" fill="#FFFFFF55" stroke="white" stroke-width="20" />
<polygon points="1005,5380 1005,1380 755,1380 755,1410 500,1410 500,5350 755,5350 755,5380" fill="#FFFFFF55" stroke="white" stroke-width="20" />
<polygon points="1005,19980 1005,15980 755,15980 755,16010 500,16010 500,19950 755,19950 755,19980" fill="#FFFFFF55" stroke="white" stroke-width="20" />
<polygon points="555,20805 555,515 515,515 515,20805" fill="none" stroke="#2979ff" stroke-width="20" />
<polygon points="1005,5380 1005,1380 755,1380 755,1410 500,1410 500,5350 755,5350 755,5380" fill="#FFFFFF55" stroke="white" stroke-width="20" />
<polygon points="1005,19980 1005,15980 755,15980 755,16010 500,16010 500,19950 755,19950 755,19980" fill="#FFFFFF55" stroke="white" stroke-width="20" />
<polygon points="1005,13055 1005,11055 755,11055 755,11085 500,11085 500,13025 755,13025 755,13055" fill="#FFFFFF55" stroke="white" stroke-width="20" />
<polygon points="1005,10305 1005,8305 755,8305 755,8335 500,8335 500,10275 755,10275 755,10305" fill="#FFFFFF55" stroke="white" stroke-width="20" />
<polygon points="1005,5380 1005,1380 755,1380 755,1410 500,1410 500,5350 755,5350 755,5380" fill="#FFFFFF55" stroke="white" stroke-width="20" />
<polygon points="1005,19980 1005,15980 755,15980 755,16010 500,16010 500,19950 755,19950 755,19980" fill="#FFFFFF55" stroke="white" stroke-width="20" />
<polygon points="755,20605 755,755 755,555 555,555 555,20605" fill="none" stroke="#2979ff" stroke-width="20" />
<polygon points="1005,5380 1005,1380 755,1380 755,1410 500,1410 500,5350 755,5350 755,5380" fill="#FFFFFF55" stroke="white" stroke-width="20" />
<polygon points="1005,19980 1005,15980 755,15980 755,16010 500,16010 500,19950 755,19950 755,19980" fill="#FFFFFF55" stroke="white" stroke-width="20" />
<polygon points="1005,13055 1005,11055 755,11055 755,11085 500,11085 500,13025 755,13025 755,13055" fill="#FFFFFF55" stroke="white" stroke-width="20" />
<polygon points="1005,10305 1005,8305 755,8305 755,8335 500,8335 500,10275 755,10275 755,10305" fill="#FFFFFF55" stroke="white" stroke-width="20" />
<polygon points="1005,5380 1005,1380 755,1380 755,1410 500,1410 500,5350 755,5350 755,5380" fill="#FFFFFF55" stroke="white" stroke-width="20" />
<polygon points="1005,19980 1005,15980 755,15980 755,16010 500,16010 500,19950 755,19950 755,19980" fill="#FFFFFF55" stroke="white" stroke-width="20" />
<polygon points="7350,515 8410,515 14350,515 15410,515 21350,515 22410,515 28350,515 29410,515 35350,515 36410,515 42350,515 43410,515 49350,515 50410,515 56350,515 57410,515 63350,515 64257,515 64257,503 63350,503 56350,503 49350,503 42350,503 35350,503 28350,503 21350,503 14350,503 7350,503 515,503 515,515 1410,515" fill="none" stroke="#2979ff" stroke-width="20" />
<polygon points="28350,755 28350,500 22410,500 22410,755 22380,755 22380,1005 28380,1005 28380,755" fill="#FFFFFF55" stroke="white" stroke-width="20" />
<polygon points="21350,755 21350,500 15410,500 15410,755 15380,755 15380,1005 21380,1005 21380,755" fill="#FFFFFF55" stroke="white" stroke-width="20" />
<polygon points="63350,755 63350,500 57410,500 57410,755 57380,755 57380,1005 63380,1005 63380,755" fill="#FFFFFF55" stroke="white" stroke-width="20" />
<polygon points="56350,755 56350,500 50410,500 50410,755 50380,755 50380,1005 56380,1005 56380,755" fill="#FFFFFF55" stroke="white" stroke-width="20" />
<polygon points="49350,755 49350,500 43410,500 43410,755 43380,755 43380,1005 49380,1005 49380,755" fill="#FFFFFF55" stroke="white" stroke-width="20" />
<polygon points="42350,755 42350,500 36410,500 36410,755 36380,755 36380,1005 42380,1005 42380,755" fill="#FFFFFF55" stroke="white" stroke-width="20" />
<polygon points="35350,755 35350,500 29410,500 29410,755 29380,755 29380,1005 35380,1005 35380,755" fill="#FFFFFF55" stroke="white" stroke-width="20" />
<polygon points="14350,755 14350,500 8410,500 8410,755 8380,755 8380,1005 14380,1005 14380,755" fill="#FFFFFF55" stroke="white" stroke-width="20" />
<polygon points="7350,755 7350,500 1410,500 1410,755 1380,755 1380,1005 7380,1005 7380,755" fill="#FFFFFF55" stroke="white" stroke-width="20" />
<polygon points="63350,755 63350,500 57410,500 57410,755 57380,755 57380,1005 63380,1005 63380,755" fill="#FFFFFF55" stroke="white" stroke-width="20" />
<polygon points="56350,755 56350,500 50410,500 50410,755 50380,755 50380,1005 56380,1005 56380,755" fill="#FFFFFF55" stroke="white" stroke-width="20" />
<polygon points="49350,755 49350,500 43410,500 43410,755 43380,755 43380,1005 49380,1005 49380,755" fill="#FFFFFF55" stroke="white" stroke-width="20" />
<polygon points="42350,755 42350,500 36410,500 36410,755 36380,755 36380,1005 42380,1005 42380,755" fill="#FFFFFF55" stroke="white" stroke-width="20" />
<polygon points="35350,755 35350,500 29410,500 29410,755 29380,755 29380,1005 35380,1005 35380,755" fill="#FFFFFF55" stroke="white" stroke-width="20" />
<polygon points="21350,755 21350,500 15410,500 15410,755 15380,755 15380,1005 21380,1005 21380,755" fill="#FFFFFF55" stroke="white" stroke-width="20" />
<polygon points="14350,755 14350,500 8410,500 8410,755 8380,755 8380,1005 14380,1005 14380,755" fill="#FFFFFF55" stroke="white" stroke-width="20" />
<polygon points="7350,755 7350,500 1410,500 1410,755 1380,755 1380,1005 7380,1005 7380,755" fill="#FFFFFF55" stroke="white" stroke-width="20" />
<polygon points="28350,755 28350,500 22410,500 22410,755 22380,755 22380,1005 28380,1005 28380,755" fill="#FFFFFF55" stroke="white" stroke-width="20" />
<polygon points="7350,555 8410,555 14350,555 15410,555 21350,555 22410,555 28350,555 29410,555 35350,555 36410,555 42350,555 43410,555 49350,555 50410,555 56350,555 57410,555 63350,555 64245,555 64245,515 63350,515 56350,515 49350,515 42350,515 35350,515 28350,515 21350,515 14350,515 7350,515 555,515 555,555 1410,555" fill="none" stroke="#2979ff" stroke-width="20" />
<polygon points="28350,755 28350,500 22410,500 22410,755 22380,755 22380,1005 28380,1005 28380,755" fill="#FFFFFF55" stroke="white" stroke-width="20" />
<polygon points="21350,755 21350,500 15410,500 15410,755 15380,755 15380,1005 21380,1005 21380,755" fill="#FFFFFF55" stroke="white" stroke-width="20" />
<polygon points="63350,755 63350,500 57410,500 57410,755 57380,755 57380,1005 63380,1005 63380,755" fill="#FFFFFF55" stroke="white" stroke-width="20" />
<polygon points="56350,755 56350,500 50410,500 50410,755 50380,755 50380,1005 56380,1005 56380,755" fill="#FFFFFF55" stroke="white" stroke-width="20" />
<polygon points="49350,755 49350,500 43410,500 43410,755 43380,755 43380,1005 49380,1005 49380,755" fill="#FFFFFF55" stroke="white" stroke-width="20" />
<polygon points="42350,755 42350,500 36410,500 36410,755 36380,755 36380,1005 42380,1005 42380,755" fill="#FFFFFF55" stroke="white" stroke-width="20" />
<polygon points="35350,755 35350,500 29410,500 29410,755 29380,755 29380,1005 35380,1005 35380,755" fill="#FFFFFF55" stroke="white" stroke-width="20" />
<polygon points="14350,755 14350,500 8410,500 8410,755 8380,755 8380,1005 14380,1005 14380,755" fill="#FFFFFF55" stroke="white" stroke-width="20" />
<polygon points="7350,755 7350,500 1410,500 1410,755 1380,755 1380,1005 7380,1005 7380,755" fill="#FFFFFF55" stroke="white" stroke-width="20" />
<polygon points="63350,755 63350,500 57410,500 57410,755 57380,755 57380,1005 63380,1005 63380,755" fill="#FFFFFF55" stroke="white" stroke-width="20" />
<polygon points="56350,755 56350,500 50410,500 50410,755 50380,755 50380,1005 56380,1005 56380,755" fill="#FFFFFF55" stroke="white" stroke-width="20" />
<polygon points="49350,755 49350,500 43410,500 43410,755 43380,755 43380,1005 49380,1005 49380,755" fill="#FFFFFF55" stroke="white" stroke-width="20" />
<polygon points="42350,755 42350,500 36410,500 36410,755 36380,755 36380,1005 42380,1005 42380,755" fill="#FFFFFF55" stroke="white" stroke-width="20" />
<polygon points="35350,755 35350,500 29410,500 29410,755 29380,755 29380,1005 35380,1005 35380,755" fill="#FFFFFF55" stroke="white" stroke-width="20" />
<polygon points="21350,755 21350,500 15410,500 15410,755 15380,755 15380,1005 21380,1005 21380,755" fill="#FFFFFF55" stroke="white" stroke-width="20" />
<polygon points="14350,755 14350,500 8410,500 8410,755 8380,755 8380,1005 14380,1005 14380,755" fill="#FFFFFF55" stroke="white" stroke-width="20" />
<polygon points="7350,755 7350,500 1410,500 1410,755 1380,755 1380,1005 7380,1005 7380,755" fill="#FFFFFF55" stroke="white" stroke-width="20" />
<polygon points="28350,755 28350,500 22410,500 22410,755 22380,755 22380,1005 28380,1005 28380,755" fill="#FFFFFF55" stroke="white" stroke-width="20" />
<polygon points="7350,755 8410,755 14350,755 15410,755 21350,755 22410,755 28350,755 29410,755 35350,755 36410,755 42350,755 43410,755 49350,755 50410,755 56350,755 57410,755 63350,755 64005,755 64205,755 64205,555 63350,555 56350,555 49350,555 42350,555 35350,555 28350,555 21350,555 14350,555 7350,555 755,555 755,755 1410,755" fill="none" stroke="#2979ff" stroke-width="20" />
<polygon points="28350,755 28350,500 22410,500 22410,755 22380,755 22380,1005 28380,1005 28380,755" fill="#FFFFFF55" stroke="white" stroke-width="20" />
<polygon points="21350,755 21350,500 15410,500 15410,755 15380,755 15380,1005 21380,1005 21380,755" fill="#FFFFFF55" stroke="white" stroke-width="20" />
<polygon points="63350,755 63350,500 57410,500 57410,755 57380,755 57380,1005 63380,1005 63380,755" fill="#FFFFFF55" stroke="white" stroke-width="20" />
<polygon points="56350,755 56350,500 50410,500 50410,755 50380,755 50380,1005 56380,1005 56380,755" fill="#FFFFFF55" stroke="white" stroke-width="20" />
<polygon points="49350,755 49350,500 43410,500 43410,755 43380,755 43380,1005 49380,1005 49380,755" fill="#FFFFFF55" stroke="white" stroke-width="20" />
<polygon points="42350,755 42350,500 36410,500 36410,755 36380,755 36380,1005 42380,1005 42380,755" fill="#FFFFFF55" stroke="white" stroke-width="20" />
<polygon points="35350,755 35350,500 29410,500 29410,755 29380,755 29380,1005 35380,1005 35380,755" fill="#FFFFFF55" stroke="white" stroke-width="20" />
<polygon points="14350,755 14350,500 8410,500 8410,755 8380,755 8380,1005 14380,1005 14380,755" fill="#FFFFFF55" stroke="white" stroke-width="20" />
<polygon points="7350,755 7350,500 1410,500 1410,755 1380,755 1380,1005 7380,1005 7380,755" fill="#FFFFFF55" stroke="white" stroke-width="20" />
<polygon points="63350,755 63350,500 57410,500 57410,755 57380,755 57380,1005 63380,1005 63380,755" fill="#FFFFFF55" stroke="white" stroke-width="20" />
<polygon points="56350,755 56350,500 50410,500 50410,755 50380,755 50380,1005 56380,1005 56380,755" fill="#FFFFFF55" stroke="white" stroke-width="20" />
<polygon points="49350,755 49350,500 43410,500 43410,755 43380,755 43380,1005 49380,1005 49380,755" fill="#FFFFFF55" stroke="white" stroke-width="20" />
<polygon points="42350,755 42350,500 36410,500 36410,755 36380,755 36380,1005 42380,1005 42380,755" fill="#FFFFFF55" stroke="white" stroke-width="20" />
<polygon points="35350,755 35350,500 29410,500 29410,755 29380,755 29380,1005 35380,1005 35380,755" fill="#FFFFFF55" stroke="white" stroke-width="20" />
<polygon points="21350,755 21350,500 15410,500 15410,755 15380,755 15380,1005 21380,1005 21380,755" fill="#FFFFFF55" stroke="white" stroke-width="20" />
<polygon points="14350,755 14350,500 8410,500 8410,755 8380,755 8380,1005 14380,1005 14380,755" fill="#FFFFFF55" stroke="white" stroke-width="20" />
<polygon points="7350,755 7350,500 1410,500 1410,755 1380,755 1380,1005 7380,1005 7380,755" fill="#FFFFFF55" stroke="white" stroke-width="20" />
<polygon points="28350,755 28350,500 22410,500 22410,755 22380,755 22380,1005 28380,1005 28380,755" fill="#FFFFFF55" stroke="white" stroke-width="20" />
<polygon points="64257,20857 64257,515 64245,515 64245,20857" fill="none" stroke="#2979ff" stroke-width="20" />
<polygon points="64005,19980 64005,19950 64260,19950 64260,16010 64005,16010 64005,15980 63755,15980 63755,19980" fill="#FFFFFF55" stroke="white" stroke-width="20" />
<polygon points="64005,5380 64005,5350 64260,5350 64260,1410 64005,1410 64005,1380 63755,1380 63755,5380" fill="#FFFFFF55" stroke="white" stroke-width="20" />
<polygon points="64005,10305 64005,10275 64260,10275 64260,8335 64005,8335 64005,8305 63755,8305 63755,10305" fill="#FFFFFF55" stroke="white" stroke-width="20" />
<polygon points="64005,13055 64005,13025 64260,13025 64260,11085 64005,11085 64005,11055 63755,11055 63755,13055" fill="#FFFFFF55" stroke="white" stroke-width="20" />
<polygon points="64005,19980 64005,19950 64260,19950 64260,16010 64005,16010 64005,15980 63755,15980 63755,19980" fill="#FFFFFF55" stroke="white" stroke-width="20" />
<polygon points="64005,5380 64005,5350 64260,5350 64260,1410 64005,1410 64005,1380 63755,1380 63755,5380" fill="#FFFFFF55" stroke="white" stroke-width="20" />
<polygon points="64245,20845 64245,555 64205,555 64205,20845" fill="none" stroke="#2979ff" stroke-width="20" />
<polygon points="64005,19980 64005,19950 64260,19950 64260,16010 64005,16010 64005,15980 63755,15980 63755,19980" fill="#FFFFFF55" stroke="white" stroke-width="20" />
<polygon points="64005,5380 64005,5350 64260,5350 64260,1410 64005,1410 64005,1380 63755,1380 63755,5380" fill="#FFFFFF55" stroke="white" stroke-width="20" />
<polygon points="64005,10305 64005,10275 64260,10275 64260,8335 64005,8335 64005,8305 63755,8305 63755,10305" fill="#FFFFFF55" stroke="white" stroke-width="20" />
<polygon points="64005,13055 64005,13025 64260,13025 64260,11085 64005,11085 64005,11055 63755,11055 63755,13055" fill="#FFFFFF55" stroke="white" stroke-width="20" />
<polygon points="64005,19980 64005,19950 64260,19950 64260,16010 64005,16010 64005,15980 63755,15980 63755,19980" fill="#FFFFFF55" stroke="white" stroke-width="20" />
<polygon points="64005,5380 64005,5350 64260,5350 64260,1410 64005,1410 64005,1380 63755,1380 63755,5380" fill="#FFFFFF55" stroke="white" stroke-width="20" />
<polygon points="64205,20805 64205,755 64005,755 64005,20605 64005,20805" fill="none" stroke="#2979ff" stroke-width="20" />
<polygon points="64005,19980 64005,19950 64260,19950 64260,16010 64005,16010 64005,15980 63755,15980 63755,19980" fill="#FFFFFF55" stroke="white" stroke-width="20" />
<polygon points="64005,5380 64005,5350 64260,5350 64260,1410 64005,1410 64005,1380 63755,1380 63755,5380" fill="#FFFFFF55" stroke="white" stroke-width="20" />
<polygon points="64005,10305 64005,10275 64260,10275 64260,8335 64005,8335 64005,8305 63755,8305 63755,10305" fill="#FFFFFF55" stroke="white" stroke-width="20" />
<polygon points="64005,13055 64005,13025 64260,13025 64260,11085 64005,11085 64005,11055 63755,11055 63755,13055" fill="#FFFFFF55" stroke="white" stroke-width="20" />
<polygon points="64005,19980 64005,19950 64260,19950 64260,16010 64005,16010 64005,15980 63755,15980 63755,19980" fill="#FFFFFF55" stroke="white" stroke-width="20" />
<polygon points="64005,5380 64005,5350 64260,5350 64260,1410 64005,1410 64005,1380 63755,1380 63755,5380" fill="#FFFFFF55" stroke="white" stroke-width="20" />
<polygon points="21910,14747.5 21830,14747.5 21830,20355 21910,20355" fill="none" stroke="#2979ff" stroke-width="20" />
<polygon points="21930,14727.5 21910,14727.5 21910,20355 21930,20355" fill="none" stroke="#2979ff" stroke-width="20" />
<polygon points="21830,20355 21830,14827.5 21805,14827.5 21805,20355" fill="none" stroke="#2979ff" stroke-width="20" />
<polygon points="21955,20355 21955,14702.5 21930,14702.5 21930,20355" fill="none" stroke="#2979ff" stroke-width="20" />
<polygon points="63755,6432.5 1005,6432.5 1005,6582.5 63755,6582.5" fill="none" stroke="#2979ff" stroke-width="20" />
<polygon points="7930,1005 7850,1005 7850,6477.5 7930,6477.5" fill="none" stroke="#2979ff" stroke-width="20" />
<polygon points="7850,1005 7830,1005 7830,6457.5 7850,6457.5" fill="none" stroke="#2979ff" stroke-width="20" />
<polygon points="7955,6457.5 7955,1005 7930,1005 7930,6457.5" fill="none" stroke="#2979ff" stroke-width="20" />
<polygon points="7830,6432.5 7830,1005 7805,1005 7805,6432.5" fill="none" stroke="#2979ff" stroke-width="20" />
<polygon points="14930,1005 14850,1005 14850,6477.5 14930,6477.5" fill="none" stroke="#2979ff" stroke-width="20" />
<polygon points="14850,1005 14830,1005 14830,6457.5 14850,6457.5" fill="none" stroke="#2979ff" stroke-width="20" />
<polygon points="14955,6457.5 14955,1005 14930,1005 14930,6457.5" fill="none" stroke="#2979ff" stroke-width="20" />
<polygon points="14830,6432.5 14830,1005 14805,1005 14805,6432.5" fill="none" stroke="#2979ff" stroke-width="20" />
<polygon points="21930,1005 21850,1005 21850,6477.5 21930,6477.5" fill="none" stroke="#2979ff" stroke-width="20" />
<polygon points="21850,1005 21830,1005 21830,6457.5 21850,6457.5" fill="none" stroke="#2979ff" stroke-width="20" />
<polygon points="21955,6457.5 21955,1005 21930,1005 21930,6457.5" fill="none" stroke="#2979ff" stroke-width="20" />
<polygon points="21830,6432.5 21830,1005 21805,1005 21805,6432.5" fill="none" stroke="#2979ff" stroke-width="20" />
<polygon points="42930,1005 42850,1005 42850,6477.5 42930,6477.5" fill="none" stroke="#2979ff" stroke-width="20" />
<polygon points="42850,1005 42830,1005 42830,6457.5 42850,6457.5" fill="none" stroke="#2979ff" stroke-width="20" />
<polygon points="42955,6457.5 42955,1005 42930,1005 42930,6457.5" fill="none" stroke="#2979ff" stroke-width="20" />
<polygon points="42830,6432.5 42830,1005 42805,1005 42805,6432.5" fill="none" stroke="#2979ff" stroke-width="20" />
<polygon points="49930,1005 49850,1005 49850,6477.5 49930,6477.5" fill="none" stroke="#2979ff" stroke-width="20" />
<polygon points="49850,1005 49830,1005 49830,6457.5 49850,6457.5" fill="none" stroke="#2979ff" stroke-width="20" />
<polygon points="49955,6457.5 49955,1005 49930,1005 49930,6457.5" fill="none" stroke="#2979ff" stroke-width="20" />
<polygon points="49830,6432.5 49830,1005 49805,1005 49805,6432.5" fill="none" stroke="#2979ff" stroke-width="20" />
<polygon points="56930,1005 56850,1005 56850,6477.5 56930,6477.5" fill="none" stroke="#2979ff" stroke-width="20" />
<polygon points="56850,1005 56830,1005 56830,6457.5 56850,6457.5" fill="none" stroke="#2979ff" stroke-width="20" />
<polygon points="56955,6457.5 56955,1005 56930,1005 56930,6457.5" fill="none" stroke="#2979ff" stroke-width="20" />
<polygon points="56830,6432.5 56830,1005 56805,1005 56805,6432.5" fill="none" stroke="#2979ff" stroke-width="20" />
<polygon points="57005,20355 57005,13605 56855,13605 56855,20355" fill="none" stroke="#2979ff" stroke-width="20" />
<polygon points="56855,14727.5 56855,14702.5 42805,14702.5 42805,14727.5 42830,14727.5 42830,14747.5 42850,14747.5 42850,14827.5 42930,14827.5 42930,14852.5 56880,14852.5 56880,14827.5 56900,14827.5 56900,14747.5 56880,14747.5 56880,14727.5" fill="none" stroke="#2979ff" stroke-width="20" />
<polygon points="42930,14827.5 42850,14827.5 42850,20355 42930,20355" fill="none" stroke="#2979ff" stroke-width="20" />
<polygon points="42850,14747.5 42830,14747.5 42830,20355 42850,20355" fill="none" stroke="#2979ff" stroke-width="20" />
<polygon points="42955,20355 42955,14852.5 42930,14852.5 42930,20355" fill="none" stroke="#2979ff" stroke-width="20" />
<polygon points="42830,20355 42830,14727.5 42805,14727.5 42805,20355" fill="none" stroke="#2979ff" stroke-width="20" />
<polygon points="21930,14727.5 21930,14702.5 1005,14702.5 1005,14852.5 21805,14852.5 21805,14827.5 21830,14827.5 21830,14747.5 21910,14747.5 21910,14727.5" fill="none" stroke="#2979ff" stroke-width="20" />
<polygon points="7860,14747.5 7860,14727.5 7880,14727.5 7880,14702.5 7905,14702.5 7905,13605 7755,13605 7755,14727.5 7780,14727.5 7780,14747.5" fill="none" stroke="#2979ff" stroke-width="20" />
<polygon points="20555,7860 20555,7780 15005,7780 15005,7860" fill="none" stroke="#2979ff" stroke-width="20" />
<polygon points="20475,7880 20475,7860 15005,7860 15005,7880" fill="none" stroke="#2979ff" stroke-width="20" />
<polygon points="20580,7755 15005,7755 15005,7780 20580,7780" fill="none" stroke="#2979ff" stroke-width="20" />
<polygon points="20455,7905 20455,7880 15005,7880 15005,7905" fill="none" stroke="#2979ff" stroke-width="20" />
<polygon points="20555,13580 20555,13500 15005,13500 15005,13580" fill="none" stroke="#2979ff" stroke-width="20" />
<polygon points="20475,13500 20475,13480 15005,13480 15005,13500" fill="none" stroke="#2979ff" stroke-width="20" />
<polygon points="20580,13580 15005,13580 15005,13605 20580,13605" fill="none" stroke="#2979ff" stroke-width="20" />
<polygon points="20455,13480 20455,13455 15005,13455 15005,13480" fill="none" stroke="#2979ff" stroke-width="20" />
<polygon points="20580,13580 20580,7780 20555,7780 20555,7860 20475,7860 20475,7880 20455,7880 20455,7905 20430,7905 20430,13455 20455,13455 20455,13480 20475,13480 20475,13500 20555,13500 20555,13580" fill="none" stroke="#2979ff" stroke-width="20" />
<polygon points="44230.01,13605 44230.01,13580 44330,13580 44330,13480 44355.01,13480 44355.01,7880 44330,7880 44330,7780 44230.01,7780 44230.01,7755 44205,7755 44205,13605" fill="none" stroke="#2979ff" stroke-width="20" />
<polygon points="49755,7860 49755,7780 44330,7780 44330,7860" fill="none" stroke="#2979ff" stroke-width="20" />
<polygon points="49755,7880 49755,7860 44330,7860 44330,7880" fill="none" stroke="#2979ff" stroke-width="20" />
<polygon points="49755,7755 44230,7755 44230,7780 49755,7780" fill="none" stroke="#2979ff" stroke-width="20" />
<polygon points="49755,7905 49755,7880 44355,7880 44355,7905" fill="none" stroke="#2979ff" stroke-width="20" />
<polygon points="49755,13580 49755,13500 44330,13500 44330,13580" fill="none" stroke="#2979ff" stroke-width="20" />
<polygon points="49755,13500 49755,13480 44330,13480 44330,13500" fill="none" stroke="#2979ff" stroke-width="20" />
<polygon points="49755,13580 44230,13580 44230,13605 49755,13605" fill="none" stroke="#2979ff" stroke-width="20" />
<polygon points="49755,13480 49755,13455 44355,13455 44355,13480" fill="none" stroke="#2979ff" stroke-width="20" />
<polygon points="20475,10980 20475,10900 15005,10900 15005,10980" fill="none" stroke="#2979ff" stroke-width="20" />
<polygon points="20475,10710 20475,10630 15005,10630 15005,10710" fill="none" stroke="#2979ff" stroke-width="20" />
<polygon points="20455,10900 20455,10710 15005,10710 15005,10900" fill="none" stroke="#2979ff" stroke-width="20" />
<polygon points="20455,10605 15005,10605 15005,10630 20455,10630" fill="none" stroke="#2979ff" stroke-width="20" />
<polygon points="20430,11005 20430,10980 15005,10980 15005,11005" fill="none" stroke="#2979ff" stroke-width="20" />
<polygon points="49755,10710 49755,10630 44330,10630 44330,10710" fill="none" stroke="#2979ff" stroke-width="20" />
<polygon points="49755,10980 49755,10900 44330,10900 44330,10980" fill="none" stroke="#2979ff" stroke-width="20" />
<polygon points="49755,10900 49755,10710 44330,10710 44330,10900" fill="none" stroke="#2979ff" stroke-width="20" />
<polygon points="49755,11005 49755,10980 44355,10980 44355,11005" fill="none" stroke="#2979ff" stroke-width="20" />
<polygon points="49755,10605 44355,10605 44355,10630 49755,10630" fill="none" stroke="#2979ff" stroke-width="20" />
<polygon points="15295,10805 15295,7860 15255,7860 15255,10805" fill="none" stroke="#2979ff" stroke-width="20" />
<polygon points="15320,10805 15320,7905 15295,7905 15295,10805" fill="none" stroke="#2979ff" stroke-width="20" />
<polygon points="18630,10605 18630,8905 18605,8905 18605,10605" fill="none" stroke="#2979ff" stroke-width="20" />
<polygon points="18605,10630 18605,8905 18555,8905 18555,10630" fill="none" stroke="#2979ff" stroke-width="20" />
<polygon points="18555,10605 18555,8905 18530,8905 18530,10605" fill="none" stroke="#2979ff" stroke-width="20" />
<polygon points="18555,12455 18555,11005 18530,11005 18530,12455" fill="none" stroke="#2979ff" stroke-width="20" />
<polygon points="18605,10980 18555,10980 18555,12455 18605,12455" fill="none" stroke="#2979ff" stroke-width="20" />
<polygon points="18630,12455 18630,11005 18605,11005 18605,12455" fill="none" stroke="#2979ff" stroke-width="20" />
<polygon points="46255,10605 46255,8905 46230,8905 46230,10605" fill="none" stroke="#2979ff" stroke-width="20" />
<polygon points="46230.01,8905 46180,8905 46180,10630 46230.01,10630" fill="none" stroke="#2979ff" stroke-width="20" />
<polygon points="46180,10605 46180,8905 46155,8905 46155,10605" fill="none" stroke="#2979ff" stroke-width="20" />
<polygon points="46180,12455 46180,11005 46155,11005 46155,12455" fill="none" stroke="#2979ff" stroke-width="20" />
<polygon points="46230.01,12455 46230.01,10980 46180,10980 46180,12455" fill="none" stroke="#2979ff" stroke-width="20" />
<polygon points="46255,12455 46255,11005 46230,11005 46230,12455" fill="none" stroke="#2979ff" stroke-width="20" />
<polygon points="49505,10630 49505,7860 49465,7860 49465,10630" fill="none" stroke="#2979ff" stroke-width="20" />
<polygon points="49465,10605 49465,7905 49440,7905 49440,10605" fill="none" stroke="#2979ff" stroke-width="20" />
<polygon points="49440,8817.5 47990,8817.5 47990,8830 49440,8830" fill="none" stroke="#2979ff" stroke-width="20" />
<polygon points="49465.01,8817.5 49465.01,8767.5 47977.5,8767.5 47977.5,8817.5" fill="none" stroke="#2979ff" stroke-width="20" />
<polygon points="49440,8755 47990,8755 47990,8767.5 49440,8767.5" fill="none" stroke="#2979ff" stroke-width="20" />
<polygon points="49440,9680 47990,9680 47990,9692.5 49440,9692.5" fill="none" stroke="#2979ff" stroke-width="20" />
<polygon points="49465.01,9742.5 49465.01,9692.5 47977.5,9692.5 47977.5,9742.5" fill="none" stroke="#2979ff" stroke-width="20" />
<polygon points="49440,9742.5 47990,9742.5 47990,9755 49440,9755" fill="none" stroke="#2979ff" stroke-width="20" />
<polygon points="47977.5,10630 47977.5,10605 47990,10605 47990,7905 47977.5,7905 47977.5,7860 47927.5,7860 47927.5,7905 47915,7905 47915,10605 47927.5,10605 47927.5,10630" fill="none" stroke="#2979ff" stroke-width="20" />
<polygon points="48742.51,13500 48742.51,13455 48755,13455 48755,11005 48742.51,11005 48742.51,10980 48692.5,10980 48692.5,11005 48680.01,11005 48680.01,13455 48692.5,13455 48692.5,13500" fill="none" stroke="#2979ff" stroke-width="20" />
<polygon points="16770,8817.5 15320,8817.5 15320,8830 16770,8830" fill="none" stroke="#2979ff" stroke-width="20" />
<polygon points="16782.5,8817.5 16782.5,8767.5 15295,8767.5 15295,8817.5" fill="none" stroke="#2979ff" stroke-width="20" />
<polygon points="16770,8755 15320,8755 15320,8767.5 16770,8767.5" fill="none" stroke="#2979ff" stroke-width="20" />
<polygon points="16770,9742.5 15320,9742.5 15320,9755 16770,9755" fill="none" stroke="#2979ff" stroke-width="20" />
<polygon points="16782.5,9742.5 16782.5,9692.5 15295,9692.5 15295,9742.5" fill="none" stroke="#2979ff" stroke-width="20" />
<polygon points="16770,9680 15320,9680 15320,9692.5 16770,9692.5" fill="none" stroke="#2979ff" stroke-width="20" />
<polygon points="16832.5,10630 16832.5,10605 16845,10605 16845,7905 16832.5,7905 16832.5,7860 16782.5,7860 16782.5,7905 16770,7905 16770,10605 16782.5,10605 16782.5,10630" fill="none" stroke="#2979ff" stroke-width="20" />
<polygon points="16067.5,13500 16067.5,13455 16080,13455 16080,11005 16067.5,11005 16067.5,10980 16017.5,10980 16017.5,11005 16005,11005 16005,13455 16017.5,13455 16017.5,13500" fill="none" stroke="#2979ff" stroke-width="20" />
<polygon points="64005,20605 755,20605 755,755 64005,755" fill="none" stroke="#ff1744" stroke-width="40" />
<line x1="7380" y1="20605" x2="1380" y2="20605" stroke="#00b0ff" stroke-width="40" stroke-linecap="round" />
<line x1="14380" y1="20605" x2="8380" y2="20605" stroke="#00b0ff" stroke-width="40" stroke-linecap="round" />
<line x1="21380" y1="20605" x2="15380" y2="20605" stroke="#00b0ff" stroke-width="40" stroke-linecap="round" />
<line x1="35380" y1="20605" x2="29380" y2="20605" stroke="#00b0ff" stroke-width="40" stroke-linecap="round" />
<line x1="42380" y1="20605" x2="36380" y2="20605" stroke="#00b0ff" stroke-width="40" stroke-linecap="round" />
<line x1="49380" y1="20605" x2="43380" y2="20605" stroke="#00b0ff" stroke-width="40" stroke-linecap="round" />
<line x1="56380" y1="20605" x2="50380" y2="20605" stroke="#00b0ff" stroke-width="40" stroke-linecap="round" />
<line x1="63380" y1="20605" x2="57380" y2="20605" stroke="#00b0ff" stroke-width="40" stroke-linecap="round" />
<line x1="7380" y1="20605" x2="1380" y2="20605" stroke="#8e24aa" stroke-width="40" stroke-linecap="round" />
<line x1="14380" y1="20605" x2="8380" y2="20605" stroke="#8e24aa" stroke-width="40" stroke-linecap="round" />
<line x1="21380" y1="20605" x2="15380" y2="20605" stroke="#8e24aa" stroke-width="40" stroke-linecap="round" />
<line x1="28380" y1="20605" x2="22380" y2="20605" stroke="#8e24aa" stroke-width="40" stroke-linecap="round" />
<line x1="35380" y1="20605" x2="29380" y2="20605" stroke="#8e24aa" stroke-width="40" stroke-linecap="round" />
<line x1="42380" y1="20605" x2="36380" y2="20605" stroke="#8e24aa" stroke-width="40" stroke-linecap="round" />
<line x1="49380" y1="20605" x2="43380" y2="20605" stroke="#8e24aa" stroke-width="40" stroke-linecap="round" />
<line x1="56380" y1="20605" x2="50380" y2="20605" stroke="#8e24aa" stroke-width="40" stroke-linecap="round" />
<line x1="63380" y1="20605" x2="57380" y2="20605" stroke="#8e24aa" stroke-width="40" stroke-linecap="round" />
<line x1="7380" y1="20605" x2="1380" y2="20605" stroke="#8e24aa" stroke-width="40" stroke-linecap="round" />
<line x1="14380" y1="20605" x2="8380" y2="20605" stroke="#8e24aa" stroke-width="40" stroke-linecap="round" />
<line x1="21380" y1="20605" x2="15380" y2="20605" stroke="#8e24aa" stroke-width="40" stroke-linecap="round" />
<line x1="35380" y1="20605" x2="29380" y2="20605" stroke="#8e24aa" stroke-width="40" stroke-linecap="round" />
<line x1="42380" y1="20605" x2="36380" y2="20605" stroke="#8e24aa" stroke-width="40" stroke-linecap="round" />
<line x1="49380" y1="20605" x2="43380" y2="20605" stroke="#8e24aa" stroke-width="40" stroke-linecap="round" />
<line x1="56380" y1="20605" x2="50380" y2="20605" stroke="#8e24aa" stroke-width="40" stroke-linecap="round" />
<line x1="63380" y1="20605" x2="57380" y2="20605" stroke="#8e24aa" stroke-width="40" stroke-linecap="round" />
<line x1="755" y1="5380" x2="755" y2="1380" stroke="#8e24aa" stroke-width="40" stroke-linecap="round" />
<line x1="755" y1="19980" x2="755" y2="15980" stroke="#8e24aa" stroke-width="40" stroke-linecap="round" />
<line x1="755" y1="5380" x2="755" y2="1380" stroke="#8e24aa" stroke-width="40" stroke-linecap="round" />
<line x1="755" y1="19980" x2="755" y2="15980" stroke="#00b0ff" stroke-width="40" stroke-linecap="round" />
<line x1="755" y1="19980" x2="755" y2="15980" stroke="#8e24aa" stroke-width="40" stroke-linecap="round" />
<line x1="755" y1="5380" x2="755" y2="1380" stroke="#00b0ff" stroke-width="40" stroke-linecap="round" />
<line x1="755" y1="5380" x2="755" y2="1380" stroke="#8e24aa" stroke-width="40" stroke-linecap="round" />
<line x1="755" y1="19980" x2="755" y2="15980" stroke="#8e24aa" stroke-width="40" stroke-linecap="round" />
<line x1="755" y1="13055" x2="755" y2="11055" stroke="#8e24aa" stroke-width="40" stroke-linecap="round" />
<line x1="755" y1="10305" x2="755" y2="8305" stroke="#8e24aa" stroke-width="40" stroke-linecap="round" />
<line x1="755" y1="5380" x2="755" y2="1380" stroke="#8e24aa" stroke-width="40" stroke-linecap="round" />
<line x1="755" y1="19980" x2="755" y2="15980" stroke="#8e24aa" stroke-width="40" stroke-linecap="round" />
<line x1="57380" y1="755" x2="63380" y2="755" stroke="#00b0ff" stroke-width="40" stroke-linecap="round" />
<line x1="50380" y1="755" x2="56380" y2="755" stroke="#00b0ff" stroke-width="40" stroke-linecap="round" />
<line x1="43380" y1="755" x2="49380" y2="755" stroke="#00b0ff" stroke-width="40" stroke-linecap="round" />
<line x1="36380" y1="755" x2="42380" y2="755" stroke="#00b0ff" stroke-width="40" stroke-linecap="round" />
<line x1="29380" y1="755" x2="35380" y2="755" stroke="#00b0ff" stroke-width="40" stroke-linecap="round" />
<line x1="15380" y1="755" x2="21380" y2="755" stroke="#00b0ff" stroke-width="40" stroke-linecap="round" />
<line x1="8380" y1="755" x2="14380" y2="755" stroke="#00b0ff" stroke-width="40" stroke-linecap="round" />
<line x1="1380" y1="755" x2="7380" y2="755" stroke="#00b0ff" stroke-width="40" stroke-linecap="round" />
<line x1="22380" y1="755" x2="28380" y2="755" stroke="#00b0ff" stroke-width="40" stroke-linecap="round" />
<line x1="22380" y1="755" x2="28380" y2="755" stroke="#8e24aa" stroke-width="40" stroke-linecap="round" />
<line x1="15380" y1="755" x2="21380" y2="755" stroke="#8e24aa" stroke-width="40" stroke-linecap="round" />
<line x1="57380" y1="755" x2="63380" y2="755" stroke="#8e24aa" stroke-width="40" stroke-linecap="round" />
<line x1="50380" y1="755" x2="56380" y2="755" stroke="#8e24aa" stroke-width="40" stroke-linecap="round" />
<line x1="43380" y1="755" x2="49380" y2="755" stroke="#8e24aa" stroke-width="40" stroke-linecap="round" />
<line x1="36380" y1="755" x2="42380" y2="755" stroke="#8e24aa" stroke-width="40" stroke-linecap="round" />
<line x1="29380" y1="755" x2="35380" y2="755" stroke="#8e24aa" stroke-width="40" stroke-linecap="round" />
<line x1="8380" y1="755" x2="14380" y2="755" stroke="#8e24aa" stroke-width="40" stroke-linecap="round" />
<line x1="1380" y1="755" x2="7380" y2="755" stroke="#8e24aa" stroke-width="40" stroke-linecap="round" />
<line x1="57380" y1="755" x2="63380" y2="755" stroke="#8e24aa" stroke-width="40" stroke-linecap="round" />
<line x1="50380" y1="755" x2="56380" y2="755" stroke="#8e24aa" stroke-width="40" stroke-linecap="round" />
<line x1="43380" y1="755" x2="49380" y2="755" stroke="#8e24aa" stroke-width="40" stroke-linecap="round" />
<line x1="36380" y1="755" x2="42380" y2="755" stroke="#8e24aa" stroke-width="40" stroke-linecap="round" />
<line x1="29380" y1="755" x2="35380" y2="755" stroke="#8e24aa" stroke-width="40" stroke-linecap="round" />
<line x1="15380" y1="755" x2="21380" y2="755" stroke="#8e24aa" stroke-width="40" stroke-linecap="round" />
<line x1="8380" y1="755" x2="14380" y2="755" stroke="#8e24aa" stroke-width="40" stroke-linecap="round" />
<line x1="1380" y1="755" x2="7380" y2="755" stroke="#8e24aa" stroke-width="40" stroke-linecap="round" />
<line x1="22380" y1="755" x2="28380" y2="755" stroke="#8e24aa" stroke-width="40" stroke-linecap="round" />
<line x1="64005" y1="15980" x2="64005" y2="19980" stroke="#8e24aa" stroke-width="40" stroke-linecap="round" />
<line x1="64005" y1="1380" x2="64005" y2="5380" stroke="#8e24aa" stroke-width="40" stroke-linecap="round" />
<line x1="64005" y1="15980" x2="64005" y2="19980" stroke="#8e24aa" stroke-width="40" stroke-linecap="round" />
<line x1="64005" y1="1380" x2="64005" y2="5380" stroke="#00b0ff" stroke-width="40" stroke-linecap="round" />
<line x1="64005" y1="1380" x2="64005" y2="5380" stroke="#8e24aa" stroke-width="40" stroke-linecap="round" />
<line x1="64005" y1="15980" x2="64005" y2="19980" stroke="#00b0ff" stroke-width="40" stroke-linecap="round" />
<line x1="64005" y1="15980" x2="64005" y2="19980" stroke="#8e24aa" stroke-width="40" stroke-linecap="round" />
<line x1="64005" y1="1380" x2="64005" y2="5380" stroke="#8e24aa" stroke-width="40" stroke-linecap="round" />
<line x1="64005" y1="8305" x2="64005" y2="10305" stroke="#8e24aa" stroke-width="40" stroke-linecap="round" />
<line x1="64005" y1="11055" x2="64005" y2="13055" stroke="#8e24aa" stroke-width="40" stroke-linecap="round" />
<line x1="64005" y1="15980" x2="64005" y2="19980" stroke="#8e24aa" stroke-width="40" stroke-linecap="round" />
<line x1="64005" y1="1380" x2="64005" y2="5380" stroke="#8e24aa" stroke-width="40" stroke-linecap="round" />
</svg>