<svg xmlns="http://www.w3.org/2000/svg" width="64760" height="21360" viewBox="0 0 64760 21360">
<text x="500" y="500" fill="#222" font-size="200" font-family="monospace">E01_OKRD</text>
<polygon points="64005,955 64005,755 755,755 755,955" fill="none" stroke="#2979ff" stroke-width="20" />
<polygon points="64005,955 63805,955 63805,20605 64005,20605" fill="none" stroke="#2979ff" stroke-width="20" />
<polygon points="63805,20605 63805,20405 755,20405 755,20605" fill="none" stroke="#2979ff" stroke-width="20" />
<polygon points="955,955 755,955 755,20405 955,20405" fill="none" stroke="#2979ff" stroke-width="20" />
<polygon points="28955,8005 28955,7805 21805,7805 21805,8005" fill="none" stroke="#2979ff" stroke-width="20" />
<polygon points="28955,8005 28755,8005 28755,13555 28955,13555" fill="none" stroke="#2979ff" stroke-width="20" />
<polygon points="28755,13555 28755,13355 21805,13355 21805,13555" fill="none" stroke="#2979ff" stroke-width="20" />
<polygon points="22005,8005 21805,8005 21805,13355 22005,13355" fill="none" stroke="#2979ff" stroke-width="20" />
<polygon points="42955,8005 42955,7805 35805,7805 35805,8005" fill="none" stroke="#2979ff" stroke-width="20" />
<polygon points="42955,8005 42755,8005 42755,13555 42955,13555" fill="none" stroke="#2979ff" stroke-width="20" />
<polygon points="42755,13555 42755,13355 35805.01,13355 35805.01,13555" fill="none" stroke="#2979ff" stroke-width="20" />
<polygon points="36005,8005 35805.01,8005 35805.01,13355 36005,13355" fill="none" stroke="#2979ff" stroke-width="20" />
<polygon points="8005,8005 7755,8005 7755,13355 8005,13355" fill="none" stroke="#2979ff" stroke-width="20" />
<polygon points="15005,13605 15005,13355 7755,13355 7755,13605" fill="none" stroke="#2979ff" stroke-width="20" />
<polygon points="15005,7755 14755,7755 14755,13355 15005,13355" fill="none" stroke="#2979ff" stroke-width="20" />
<polygon points="8005,8005 13620,8005 14630,8005 14755,8005 14755,7755 14630,7755 13620,7755 7755,7755 7755,8005" fill="none" stroke="#2979ff" stroke-width="20" />
<polygon points="11005,9180 10805,9180 10805,13355 11005,13355" fill="none" stroke="#2979ff" stroke-width="20" />
<polygon points="11405,9380 12605,9380 13005,9380 13205,9380 14755,9380 14755,9180 12605,9180 11405,9180 11005,9180 11005,9380" fill="none" stroke="#2979ff" stroke-width="20" />
<polygon points="13205,9380 13005,9380 13005,11955 13205,11955" fill="none" stroke="#2979ff" stroke-width="20" />
<polygon points="14755,12155 14755,11955 11005,11955 11005,12155" fill="none" stroke="#2979ff" stroke-width="20" />
<polygon points="57005,8005 56755,8005 56755,13355 57005,13355" fill="none" stroke="#2979ff" stroke-width="20" />
<polygon points="57005,13605 57005,13355 49755,13355 49755,13605" fill="none" stroke="#2979ff" stroke-width="20" />
<polygon points="50005,7755 49755,7755 49755,13355 50005,13355" fill="none" stroke="#2979ff" stroke-width="20" />
<polygon points="50130,8005 51140,8005 56755,8005 57005,8005 57005,7755 51140,7755 50130,7755 50005,7755 50005,8005" fill="none" stroke="#2979ff" stroke-width="20" />
<polygon points="53955,9180 53755,9180 53755,13355 53955,13355" fill="none" stroke="#2979ff" stroke-width="20" />
<polygon points="51555,9380 51755,9380 52155,9380 53355,9380 53755,9380 53755,9180 53355,9180 52155,9180 50005,9180 50005,9380" fill="none" stroke="#2979ff" stroke-width="20" />
<polygon points="51755,9380 51555.01,9380 51555.01,11955 51755,11955" fill="none" stroke="#2979ff" stroke-width="20" />
<polygon points="53755,12155 53755,11955 50005,11955 50005,12155" fill="none" stroke="#2979ff" stroke-width="20" />
<polygon points="7380,20605 7680,20605 7680,20355 7380,20355 1005,20355 1005,20605 1380,20605" fill="none" stroke="#2979ff" stroke-width="20" />
<polygon points="1410,20605 1410,20860 7350,20860 7350,20605 7380,20605 7380,20355 1380,20355 1380,20605" fill="#FFFFFF55" stroke="white" stroke-width="20" />
<polygon points="8410,20605 8410,20860 14350,20860 14350,20605 14380,20605 14380,20355 8380,20355 8380,20605" fill="#FFFFFF55" stroke="white" stroke-width="20" />
<polygon points="15410,20605 15410,20860 21350,20860 21350,20605 21380,20605 21380,20355 15380,20355 15380,20605" fill="#FFFFFF55" stroke="white" stroke-width="20" />
<polygon points="22410,20605 22410,20860 28350,20860 28350,20605 28380,20605 28380,20355 22380,20355 22380,20605" fill="#FFFFFF55" stroke="white" stroke-width="20" />
<polygon points="29410,20605 29410,20860 35350,20860 35350,20605 35380,20605 35380,20355 29380,20355 29380,20605" fill="#FFFFFF55" stroke="white" stroke-width="20" />
<polygon points="36410,20605 36410,20860 42350,20860 42350,20605 42380,20605 42380,20355 36380,20355 36380,20605" fill="#FFFFFF55" stroke="white" stroke-width="20" />
<polygon points="43410,20605 43410,20860 49350,20860 49350,20605 49380,20605 49380,20355 43380,20355 43380,20605" fill="#FFFFFF55" stroke="white" stroke-width="20" />
<polygon points="50410,20605 50410,20860 56350,20860 56350,20605 56380,20605 56380,20355 50380,20355 50380,20605" fill="#FFFFFF55" stroke="white" stroke-width="20" />
<polygon points="57410,20605 57410,20860 63350,20860 63350,20605 63380,20605 63380,20355 57380,20355 57380,20605" fill="#FFFFFF55" stroke="white" stroke-width="20" />
<polygon points="63380,20605 63755,20605 63755,20355 63380,20355 57080,20355 57080,20605 57380,20605" fill="none" stroke="#2979ff" stroke-width="20" />
<polygon points="1410,20605 1410,20860 7350,20860 7350,20605 7380,20605 7380,20355 1380,20355 1380,20605" fill="#FFFFFF55" stroke="white" stroke-width="20" />
<polygon points="8410,20605 8410,20860 14350,20860 14350,20605 14380,20605 14380,20355 8380,20355 8380,20605" fill="#FFFFFF55" stroke="white" stroke-width="20" />
<polygon points="15410,20605 15410,20860 21350,20860 21350,20605 21380,20605 21380,20355 15380,20355 15380,20605" fill="#FFFFFF55" stroke="white" stroke-width="20" />
<polygon points="22410,20605 22410,20860 28350,20860 28350,20605 28380,20605 28380,20355 22380,20355 22380,20605" fill="#FFFFFF55" stroke="white" stroke-width="20" />
<polygon points="29410,20605 29410,20860 35350,20860 35350,20605 35380,20605 35380,20355 29380,20355 29380,20605" fill="#FFFFFF55" stroke="white" stroke-width="20" />
<polygon points="36410,20605 36410,20860 42350,20860 42350,20605 42380,20605 42380,20355 36380,20355 36380,20605" fill="#FFFFFF55" stroke="white" stroke-width="20" />
<polygon points="43410,20605 43410,20860 49350,20860 49350,20605 49380,20605 49380,20355 43380,20355 43380,20605" fill="#FFFFFF55" stroke="white" stroke-width="20" />
<polygon points="50410,20605 50410,20860 56350,20860 56350,20605 56380,20605 56380,20355 50380,20355 50380,20605" fill="#FFFFFF55" stroke="white" stroke-width="20" />
<polygon points="57410,20605 57410,20860 63350,20860 63350,20605 63380,20605 63380,20355 57380,20355 57380,20605" fill="#FFFFFF55" stroke="white" stroke-width="20" />
<polygon points="14380,20605 14680,20605 14680,20355 14380,20355 8080,20355 8080,20605 8380,20605" fill="none" stroke="#2979ff" stroke-width="20" />
<polygon points="1410,20605 1410,20860 7350,20860 7350,20605 7380,20605 7380,20355 1380,20355 1380,20605" fill="#FFFFFF55" stroke="white" stroke-width="20" />
<polygon points="8410,20605 8410,20860 14350,20860 14350,20605 14380,20605 14380,20355 8380,20355 8380,20605" fill="#FFFFFF55" stroke="white" stroke-width="20" />
<polygon points="15410,20605 15410,20860 21350,20860 21350,20605 21380,20605 21380,20355 15380,20355 15380,20605" fill="#FFFFFF55" stroke="white" stroke-width="20" />
<polygon points="22410,20605 22410,20860 28350,20860 28350,20605 28380,20605 28380,20355 22380,20355 22380,20605" fill="#FFFFFF55" stroke="white" stroke-width="20" />
<polygon points="29410,20605 29410,20860 35350,20860 35350,20605 35380,20605 35380,20355 29380,20355 29380,20605" fill="#FFFFFF55" stroke="white" stroke-width="20" />
<polygon points="36410,20605 36410,20860 42350,20860 42350,20605 42380,20605 42380,20355 36380,20355 36380,20605" fill="#FFFFFF55" stroke="white" stroke-width="20" />
<polygon points="43410,20605 43410,20860 49350,20860 49350,20605 49380,20605 49380,20355 43380,20355 43380,20605" fill="#FFFFFF55" stroke="white" stroke-width="20" />
<polygon points="50410,20605 50410,20860 56350,20860 56350,20605 56380,20605 56380,20355 50380,20355 50380,20605" fill="#FFFFFF55" stroke="white" stroke-width="20" />
<polygon points="57410,20605 57410,20860 63350,20860 63350,20605 63380,20605 63380,20355 57380,20355 57380,20605" fill="#FFFFFF55" stroke="white" stroke-width="20" />
<polygon points="21380,20605 21680,20605 21680,20355 21380,20355 15080,20355 15080,20605 15380,20605" fill="none" stroke="#2979ff" stroke-width="20" />
<polygon points="1410,20605 1410,20860 7350,20860 7350,20605 7380,20605 7380,20355 1380,20355 1380,20605" fill="#FFFFFF55" stroke="white" stroke-width="20" />
<polygon points="8410,20605 8410,20860 14350,20860 14350,20605 14380,20605 14380,20355 8380,20355 8380,20605" fill="#FFFFFF55" stroke="white" stroke-width="20" />
<polygon points="15410,20605 15410,20860 21350,20860 21350,20605 21380,20605 21380,20355 15380,20355 15380,20605" fill="#FFFFFF55" stroke="white" stroke-width="20" />
<polygon points="22410,20605 22410,20860 28350,20860 28350,20605 28380,20605 28380,20355 22380,20355 22380,20605" fill="#FFFFFF55" stroke="white" stroke-width="20" />
<polygon points="29410,20605 29410,20860 35350,20860 35350,20605 35380,20605 35380,20355 29380,20355 29380,20605" fill="#FFFFFF55" stroke="white" stroke-width="20" />
<polygon points="36410,20605 36410,20860 42350,20860 42350,20605 42380,20605 42380,20355 36380,20355 36380,20605" fill="#FFFFFF55" stroke="white" stroke-width="20" />
<polygon points="43410,20605 43410,20860 49350,20860 49350,20605 49380,20605 49380,20355 43380,20355 43380,20605" fill="#FFFFFF55" stroke="white" stroke-width="20" />
<polygon points="50410,20605 50410,20860 56350,20860 56350,20605 56380,20605 56380,20355 50380,20355 50380,20605" fill="#FFFFFF55" stroke="white" stroke-width="20" />
<polygon points="57410,20605 57410,20860 63350,20860 63350,20605 63380,20605 63380,20355 57380,20355 57380,20605" fill="#FFFFFF55" stroke="white" stroke-width="20" />
<polygon points="28380,20605 28680,20605 28680,20355 28380,20355 22080,20355 22080,20605 22380,20605" fill="none" stroke="#2979ff" stroke-width="20" />
<polygon points="1410,20605 1410,20860 7350,20860 7350,20605 7380,20605 7380,20355 1380,20355 1380,20605" fill="#FFFFFF55" stroke="white" stroke-width="20" />
<polygon points="8410,20605 8410,20860 14350,20860 14350,20605 14380,20605 14380,20355 8380,20355 8380,20605" fill="#FFFFFF55" stroke="white" stroke-width="20" />
<polygon points="15410,20605 15410,20860 21350,20860 21350,20605 21380,20605 21380,20355 15380,20355 15380,20605" fill="#FFFFFF55" stroke="white" stroke-width="20" />
<polygon points="22410,20605 22410,20860 28350,20860 28350,20605 28380,20605 28380,20355 22380,20355 22380,20605" fill="#FFFFFF55" stroke="white" stroke-width="20" />
<polygon points="29410,20605 29410,20860 35350,20860 35350,20605 35380,20605 35380,20355 29380,20355 29380,20605" fill="#FFFFFF55" stroke="white" stroke-width="20" />
<polygon points="36410,20605 36410,20860 42350,20860 42350,20605 42380,20605 42380,20355 36380,20355 36380,20605" fill="#FFFFFF55" stroke="white" stroke-width="20" />
<polygon points="43410,20605 43410,20860 49350,20860 49350,20605 49380,20605 49380,20355 43380,20355 43380,20605" fill="#FFFFFF55" stroke="white" stroke-width="20" />
<polygon points="50410,20605 50410,20860 56350,20860 56350,20605 56380,20605 56380,20355 50380,20355 50380,20605" fill="#FFFFFF55" stroke="white" stroke-width="20" />
<polygon points="57410,20605 57410,20860 63350,20860 63350,20605 63380,20605 63380,20355 57380,20355 57380,20605" fill="#FFFFFF55" stroke="white" stroke-width="20" />
<polygon points="35380,20605 35680,20605 35680,20355 35380,20355 29080,20355 29080,20605 29380,20605" fill="none" stroke="#2979ff" stroke-width="20" />
<polygon points="1410,20605 1410,20860 7350,20860 7350,20605 7380,20605 7380,20355 1380,20355 1380,20605" fill="#FFFFFF55" stroke="white" stroke-width="20" />
<polygon points="8410,20605 8410,20860 14350,20860 14350,20605 14380,20605 14380,20355 8380,20355 8380,20605" fill="#FFFFFF55" stroke="white" stroke-width="20" />
<polygon points="15410,20605 15410,20860 21350,20860 21350,20605 21380,20605 21380,20355 15380,20355 15380,20605" fill="#FFFFFF55" stroke="white" stroke-width="20" />
<polygon points="22410,20605 22410,20860 28350,20860 28350,20605 28380,20605 28380,20355 22380,20355 22380,20605" fill="#FFFFFF55" stroke="white" stroke-width="20" />
<polygon points="29410,20605 29410,20860 35350,20860 35350,20605 35380,20605 35380,20355 29380,20355 29380,20605" fill="#FFFFFF55" stroke="white" stroke-width="20" />
<polygon points="36410,20605 36410,20860 42350,20860 42350,20605 42380,20605 42380,20355 36380,20355 36380,20605" fill="#FFFFFF55" stroke="white" stroke-width="20" />
<polygon points="43410,20605 43410,20860 49350,20860 49350,20605 49380,20605 49380,20355 43380,20355 43380,20605" fill="#FFFFFF55" stroke="white" stroke-width="20" />
<polygon points="50410,20605 50410,20860 56350,20860 56350,20605 56380,20605 56380,20355 50380,20355 50380,20605" fill="#FFFFFF55" stroke="white" stroke-width="20" />
<polygon points="57410,20605 57410,20860 63350,20860 63350,20605 63380,20605 63380,20355 57380,20355 57380,20605" fill="#FFFFFF55" stroke="white" stroke-width="20" />
<polygon points="42380,20605 42680,20605 42680,20355 42380,20355 36080,20355 36080,20605 36380,20605" fill="none" stroke="#2979ff" stroke-width="20" />
<polygon points="1410,20605 1410,20860 7350,20860 7350,20605 7380,20605 7380,20355 1380,20355 1380,20605" fill="#FFFFFF55" stroke="white" stroke-width="20" />
<polygon points="8410,20605 8410,20860 14350,20860 14350,20605 14380,20605 14380,20355 8380,20355 8380,20605" fill="#FFFFFF55" stroke="white" stroke-width="20" />
<polygon points="15410,20605 15410,20860 21350,20860 21350,20605 21380,20605 21380,20355 15380,20355 15380,20605" fill="#FFFFFF55" stroke="white" stroke-width="20" />
<polygon points="22410,20605 22410,20860 28350,20860 28350,20605 28380,20605 28380,20355 22380,20355 22380,20605" fill="#FFFFFF55" stroke="white" stroke-width="20" />
<polygon points="29410,20605 29410,20860 35350,20860 35350,20605 35380,20605 35380,20355 29380,20355 29380,20605" fill="#FFFFFF55" stroke="white" stroke-width="20" />
<polygon points="36410,20605 36410,20860 42350,20860 42350,20605 42380,20605 42380,20355 36380,20355 36380,20605" fill="#FFFFFF55" stroke="white" stroke-width="20" />
<polygon points="43410,20605 43410,20860 49350,20860 49350,20605 49380,20605 49380,20355 43380,20355 43380,20605" fill="#FFFFFF55" stroke="white" stroke-width="20" />
<polygon points="50410,20605 50410,20860 56350,20860 56350,20605 56380,20605 56380,20355 50380,20355 50380,20605" fill="#FFFFFF55" stroke="white" stroke-width="20" />
<polygon points="57410,20605 57410,20860 63350,20860 63350,20605 63380,20605 63380,20355 57380,20355 57380,20605" fill="#FFFFFF55" stroke="white" stroke-width="20" />
<polygon points="49380,20605 49680,20605 49680,20355 49380,20355 43080,20355 43080,20605 43380,20605" fill="none" stroke="#2979ff" stroke-width="20" />
<polygon points="1410,20605 1410,20860 7350,20860 7350,20605 7380,20605 7380,20355 1380,20355 1380,20605" fill="#FFFFFF55" stroke="white" stroke-width="20" />
<polygon points="8410,20605 8410,20860 14350,20860 14350,20605 14380,20605 14380,20355 8380,20355 8380,20605" fill="#FFFFFF55" stroke="white" stroke-width="20" />
<polygon points="15410,20605 15410,20860 21350,20860 21350,20605 21380,20605 21380,20355 15380,20355 15380,20605" fill="#FFFFFF55" stroke="white" stroke-width="20" />
<polygon points="22410,20605 22410,20860 28350,20860 28350,20605 28380,20605 28380,20355 22380,20355 22380,20605" fill="#FFFFFF55" stroke="white" stroke-width="20" />
<polygon points="29410,20605 29410,20860 35350,20860 35350,20605 35380,20605 35380,20355 29380,20355 29380,20605" fill="#FFFFFF55" stroke="white" stroke-width="20" />
<polygon points="36410,20605 36410,20860 42350,20860 42350,20605 42380,20605 42380,20355 36380,20355 36380,20605" fill="#FFFFFF55" stroke="white" stroke-width="20" />
<polygon points="43410,20605 43410,20860 49350,20860 49350,20605 49380,20605 49380,20355 43380,20355 43380,20605" fill="#FFFFFF55" stroke="white" stroke-width="20" />
<polygon points="50410,20605 50410,20860 56350,20860 56350,20605 56380,20605 56380,20355 50380,20355 50380,20605" fill="#FFFFFF55" stroke="white" stroke-width="20" />
<polygon points="57410,20605 57410,20860 63350,20860 63350,20605 63380,20605 63380,20355 57380,20355 57380,20605" fill="#FFFFFF55" stroke="white" stroke-width="20" />
<polygon points="56380,20605 56680,20605 56680,20355 56380,20355 50080,20355 50080,20605 50380,20605" fill="none" stroke="#2979ff" stroke-width="20" />
<polygon points="1410,20605 1410,20860 7350,20860 7350,20605 7380,20605 7380,20355 1380,20355 1380,20605" fill="#FFFFFF55" stroke="white" stroke-width="20" />
<polygon points="8410,20605 8410,20860 14350,20860 14350,20605 14380,20605 14380,20355 8380,20355 8380,20605" fill="#FFFFFF55" stroke="white" stroke-width="20" />
<polygon points="15410,20605 15410,20860 21350,20860 21350,20605 21380,20605 21380,20355 15380,20355 15380,20605" fill="#FFFFFF55" stroke="white" stroke-width="20" />
<polygon points="22410,20605 22410,20860 28350,20860 28350,20605 28380,20605 28380,20355 22380,20355 22380,20605" fill="#FFFFFF55" stroke="white" stroke-width="20" />
<polygon points="29410,20605 29410,20860 35350,20860 35350,20605 35380,20605 35380,20355 29380,20355 29380,20605" fill="#FFFFFF55" stroke="white" stroke-width="20" />
<polygon points="36410,20605 36410,20860 42350,20860 42350,20605 42380,20605 42380,20355 36380,20355 36380,20605" fill="#FFFFFF55" stroke="white" stroke-width="20" />
<polygon points="43410,20605 43410,20860 49350,20860 49350,20605 49380,20605 49380,20355 43380,20355 43380,20605" fill="#FFFFFF55" stroke="white" stroke-width="20" />
<polygon points="50410,20605 50410,20860 56350,20860 56350,20605 56380,20605 56380,20355 50380,20355 50380,20605" fill="#FFFFFF55" stroke="white" stroke-width="20" />
<polygon points="57410,20605 57410,20860 63350,20860 63350,20605 63380,20605 63380,20355 57380,20355 57380,20605" fill="#FFFFFF55" stroke="white" stroke-width="20" />
<polygon points="64005,20355 64005,13605 63755,13605 63755,14702.5 63755,14852.5 63755,20355" fill="none" stroke="#2979ff" stroke-width="20" />
<polygon points="64005,19980 64005,19950 64260,19950 64260,16010 64005,16010 64005,15980 63755,15980 63755,19980" fill="#FFFFFF55" stroke="white" stroke-width="20" />
<polygon points="64005,5380 64005,5350 64260,5350 64260,1410 64005,1410 64005,1380 63755,1380 63755,5380" fill="#FFFFFF55" stroke="white" stroke-width="20" />
<polygon points="64005,10305 64005,10275 64260,10275 64260,8335 64005,8335 64005,8305 63755,8305 63755,10305" fill="#FFFFFF55" stroke="white" stroke-width="20" />
<polygon points="64005,13055 64005,13025 64260,13025 64260,11085 64005,11085 64005,11055 63755,11055 63755,13055" fill="#FFFFFF55" stroke="white" stroke-width="20" />
<polygon points="64005,7755 64005,1005 63755,1005 63755,6405 63755,6555 63755,7755" fill="none" stroke="#2979ff" stroke-width="20" />
<polygon points="64005,19980 64005,19950 64260,19950 64260,16010 64005,16010 64005,15980 63755,15980 63755,19980" fill="#FFFFFF55" stroke="white" stroke-width="20" />
<polygon points="64005,5380 64005,5350 64260,5350 64260,1410 64005,1410 64005,1380 63755,1380 63755,5380" fill="#FFFFFF55" stroke="white" stroke-width="20" />
<polygon points="64005,10305 64005,10275 64260,10275 64260,8335 64005,8335 64005,8305 63755,8305 63755,10305" fill="#FFFFFF55" stroke="white" stroke-width="20" />
<polygon points="64005,13055 64005,13025 64260,13025 64260,11085 64005,11085 64005,11055 63755,11055 63755,13055" fill="#FFFFFF55" stroke="white" stroke-width="20" />
<polygon points="64005,13355 64005,8005 63755,8005 63755,10605 63755,10755 63755,13355" fill="none" stroke="#2979ff" stroke-width="20" />
<polygon points="64005,19980 64005,19950 64260,19950 64260,16010 64005,16010 64005,15980 63755,15980 63755,19980" fill="#FFFFFF55" stroke="white" stroke-width="20" />
<polygon points="64005,5380 64005,5350 64260,5350 64260,1410 64005,1410 64005,1380 63755,1380 63755,5380" fill="#FFFFFF55" stroke="white" stroke-width="20" />
<polygon points="64005,10305 64005,10275 64260,10275 64260,8335 64005,8335 64005,8305 63755,8305 63755,10305" fill="#FFFFFF55" stroke="white" stroke-width="20" />
<polygon points="64005,13055 64005,13025 64260,13025 64260,11085 64005,11085 64005,11055 63755,11055 63755,13055" fill="#FFFFFF55" stroke="white" stroke-width="20" />
<polygon points="63380,1005 63755,1005 63755,755 63380,755 57080,755 57080,1005 57380,1005" fill="none" stroke="#2979ff" stroke-width="20" />
<polygon points="28350,755 28350,500 22410,500 22410,755 22380,755 22380,1005 28380,1005 28380,755" fill="#FFFFFF55" stroke="white" stroke-width="20" />
<polygon points="21350,755 21350,500 15410,500 15410,755 15380,755 15380,1005 21380,1005 21380,755" fill="#FFFFFF55" stroke="white" stroke-width="20" />
<polygon points="63350,755 63350,500 57410,500 57410,755 57380,755 57380,1005 63380,1005 63380,755" fill="#FFFFFF55" stroke="white" stroke-width="20" />
<polygon points="56350,755 56350,500 50410,500 50410,755 50380,755 50380,1005 56380,1005 56380,755" fill="#FFFFFF55" stroke="white" stroke-width="20" />
<polygon points="49350,755 49350,500 43410,500 43410,755 43380,755 43380,1005 49380,1005 49380,755" fill="#FFFFFF55" stroke="white" stroke-width="20" />
<polygon points="42350,755 42350,500 36410,500 36410,755 36380,755 36380,1005 42380,1005 42380,755" fill="#FFFFFF55" stroke="white" stroke-width="20" />
<polygon points="35350,755 35350,500 29410,500 29410,755 29380,755 29380,1005 35380,1005 35380,755" fill="#FFFFFF55" stroke="white" stroke-width="20" />
<polygon points="14350,755 14350,500 8410,500 8410,755 8380,755 8380,1005 14380,1005 14380,755" fill="#FFFFFF55" stroke="white" stroke-width="20" />
<polygon points="7350,755 7350,500 1410,500 1410,755 1380,755 1380,1005 7380,1005 7380,755" fill="#FFFFFF55" stroke="white" stroke-width="20" />
<polygon points="7380,1005 7680,1005 7680,755 7380,755 1005,755 1005,1005 1380,1005" fill="none" stroke="#2979ff" stroke-width="20" />
<polygon points="28350,755 28350,500 22410,500 22410,755 22380,755 22380,1005 28380,1005 28380,755" fill="#FFFFFF55" stroke="white" stroke-width="20" />
<polygon points="21350,755 21350,500 15410,500 15410,755 15380,755 15380,1005 21380,1005 21380,755" fill="#FFFFFF55" stroke="white" stroke-width="20" />
<polygon points="63350,755 63350,500 57410,500 57410,755 57380,755 57380,1005 63380,1005 63380,755" fill="#FFFFFF55" stroke="white" stroke-width="20" />
<polygon points="56350,755 56350,500 50410,500 50410,755 50380,755 50380,1005 56380,1005 56380,755" fill="#FFFFFF55" stroke="white" stroke-width="20" />
<polygon points="49350,755 49350,500 43410,500 43410,755 43380,755 43380,1005 49380,1005 49380,755" fill="#FFFFFF55" stroke="white" stroke-width="20" />
<polygon points="42350,755 42350,500 36410,500 36410,755 36380,755 36380,1005 42380,1005 42380,755" fill="#FFFFFF55" stroke="white" stroke-width="20" />
<polygon points="35350,755 35350,500 29410,500 29410,755 29380,755 29380,1005 35380,1005 35380,755" fill="#FFFFFF55" stroke="white" stroke-width="20" />
<polygon points="14350,755 14350,500 8410,500 8410,755 8380,755 8380,1005 14380,1005 14380,755" fill="#FFFFFF55" stroke="white" stroke-width="20" />
<polygon points="7350,755 7350,500 1410,500 1410,755 1380,755 1380,1005 7380,1005 7380,755" fill="#FFFFFF55" stroke="white" stroke-width="20" />
<polygon points="56380,1005 56680,1005 56680,755 56380,755 50080,755 50080,1005 50380,1005" fill="none" stroke="#2979ff" stroke-width="20" />
<polygon points="28350,755 28350,500 22410,500 22410,755 22380,755 22380,1005 28380,1005 28380,755" fill="#FFFFFF55" stroke="white" stroke-width="20" />
<polygon points="21350,755 21350,500 15410,500 15410,755 15380,755 15380,1005 21380,1005 21380,755" fill="#FFFFFF55" stroke="white" stroke-width="20" />
<polygon points="63350,755 63350,500 57410,500 57410,755 57380,755 57380,1005 63380,1005 63380,755" fill="#FFFFFF55" stroke="white" stroke-width="20" />
<polygon points="56350,755 56350,500 50410,500 50410,755 50380,755 50380,1005 56380,1005 56380,755" fill="#FFFFFF55" stroke="white" stroke-width="20" />
<polygon points="49350,755 49350,500 43410,500 43410,755 43380,755 43380,1005 49380,1005 49380,755" fill="#FFFFFF55" stroke="white" stroke-width="20" />
<polygon points="42350,755 42350,500 36410,500 36410,755 36380,755 36380,1005 42380,1005 42380,755" fill="#FFFFFF55" stroke="white" stroke-width="20" />
<polygon points="35350,755 35350,500 29410,500 29410,755 29380,755 29380,1005 35380,1005 35380,755" fill="#FFFFFF55" stroke="white" stroke-width="20" />
<polygon points="14350,755 14350,500 8410,500 8410,755 8380,755 8380,1005 14380,1005 14380,755" fill="#FFFFFF55" stroke="white" stroke-width="20" />
<polygon points="7350,755 7350,500 1410,500 1410,755 1380,755 1380,1005 7380,1005 7380,755" fill="#FFFFFF55" stroke="white" stroke-width="20" />
<polygon points="49380,1005 49680,1005 49680,755 49380,755 43080,755 43080,1005 43380,1005" fill="none" stroke="#2979ff" stroke-width="20" />
<polygon points="28350,755 28350,500 22410,500 22410,755 22380,755 22380,1005 28380,1005 28380,755" fill="#FFFFFF55" stroke="white" stroke-width="20" />
<polygon points="21350,755 21350,500 15410,500 15410,755 15380,755 15380,1005 21380,1005 21380,755" fill="#FFFFFF55" stroke="white" stroke-width="20" />
<polygon points="63350,755 63350,500 57410,500 57410,755 57380,755 57380,1005 63380,1005 63380,755" fill="#FFFFFF55" stroke="white" stroke-width="20" />
<polygon points="56350,755 56350,500 50410,500 50410,755 50380,755 50380,1005 56380,1005 56380,755" fill="#FFFFFF55" stroke="white" stroke-width="20" />
<polygon points="49350,755 49350,500 43410,500 43410,755 43380,755 43380,1005 49380,1005 49380,755" fill="#FFFFFF55" stroke="white" stroke-width="20" />
<polygon points="42350,755 42350,500 36410,500 36410,755 36380,755 36380,1005 42380,1005 42380,755" fill="#FFFFFF55" stroke="white" stroke-width="20" />
<polygon points="35350,755 35350,500 29410,500 29410,755 29380,755 29380,1005 35380,1005 35380,755" fill="#FFFFFF55" stroke="white" stroke-width="20" />
<polygon points="14350,755 14350,500 8410,500 8410,755 8380,755 8380,1005 14380,1005 14380,755" fill="#FFFFFF55" stroke="white" stroke-width="20" />
<polygon points="7350,755 7350,500 1410,500 1410,755 1380,755 1380,1005 7380,1005 7380,755" fill="#FFFFFF55" stroke="white" stroke-width="20" />
<polygon points="42380,1005 42680,1005 42680,755 42380,755 36080,755 36080,1005 36380,1005" fill="none" stroke="#2979ff" stroke-width="20" />
<polygon points="28350,755 28350,500 22410,500 22410,755 22380,755 22380,1005 28380,1005 28380,755" fill="#FFFFFF55" stroke="white" stroke-width="20" />
<polygon points="21350,755 21350,500 15410,500 15410,755 15380,755 15380,1005 21380,1005 21380,755" fill="#FFFFFF55" stroke="white" stroke-width="20" />
<polygon points="63350,755 63350,500 57410,500 57410,755 57380,755 57380,1005 63380,1005 63380,755" fill="#FFFFFF55" stroke="white" stroke-width="20" />
<polygon points="56350,755 56350,500 50410,500 50410,755 50380,755 50380,1005 56380,1005 56380,755" fill="#FFFFFF55" stroke="white" stroke-width="20" />
<polygon points="49350,755 49350,500 43410,500 43410,755 43380,755 43380,1005 49380,1005 49380,755" fill="#FFFFFF55" stroke="white" stroke-width="20" />
<polygon points="42350,755 42350,500 36410,500 36410,755 36380,755 36380,1005 42380,1005 42380,755" fill="#FFFFFF55" stroke="white" stroke-width="20" />
<polygon points="35350,755 35350,500 29410,500 29410,755 29380,755 29380,1005 35380,1005 35380,755" fill="#FFFFFF55" stroke="white" stroke-width="20" />
<polygon points="14350,755 14350,500 8410,500 8410,755 8380,755 8380,1005 14380,1005 14380,755" fill="#FFFFFF55" stroke="white" stroke-width="20" />
<polygon points="7350,755 7350,500 1410,500 1410,755 1380,755 1380,1005 7380,1005 7380,755" fill="#FFFFFF55" stroke="white" stroke-width="20" />
<polygon points="35380,1005 35680,1005 35680,755 35380,755 29080,755 29080,1005 29380,1005" fill="none" stroke="#2979ff" stroke-width="20" />
<polygon points="28350,755 28350,500 22410,500 22410,755 22380,755 22380,1005 28380,1005 28380,755" fill="#FFFFFF55" stroke="white" stroke-width="20" />
<polygon points="21350,755 21350,500 15410,500 15410,755 15380,755 15380,1005 21380,1005 21380,755" fill="#FFFFFF55" stroke="white" stroke-width="20" />
<polygon points="63350,755 63350,500 57410,500 57410,755 57380,755 57380,1005 63380,1005 63380,755" fill="#FFFFFF55" stroke="white" stroke-width="20" />
<polygon points="56350,755 56350,500 50410,500 50410,755 50380,755 50380,1005 56380,1005 56380,755" fill="#FFFFFF55" stroke="white" stroke-width="20" />
<polygon points="49350,755 49350,500 43410,500 43410,755 43380,755 43380,1005 49380,1005 49380,755" fill="#FFFFFF55" stroke="white" stroke-width="20" />
<polygon points="42350,755 42350,500 36410,500 36410,755 36380,755 36380,1005 42380,1005 42380,755" fill="#FFFFFF55" stroke="white" stroke-width="20" />
<polygon points="35350,755 35350,500 29410,500 29410,755 29380,755 29380,1005 35380,1005 35380,755" fill="#FFFFFF55" stroke="white" stroke-width="20" />
<polygon points="14350,755 14350,500 8410,500 8410,755 8380,755 8380,1005 14380,1005 14380,755" fill="#FFFFFF55" stroke="white" stroke-width="20" />
<polygon points="7350,755 7350,500 1410,500 1410,755 1380,755 1380,1005 7380,1005 7380,755" fill="#FFFFFF55" stroke="white" stroke-width="20" />
<polygon points="28380,1005 28680,1005 28680,755 28380,755 22080,755 22080,1005 22380,1005" fill="none" stroke="#2979ff" stroke-width="20" />
<polygon points="28350,755 28350,500 22410,500 22410,755 22380,755 22380,1005 28380,1005 28380,755" fill="#FFFFFF55" stroke="white" stroke-width="20" />
<polygon points="21350,755 21350,500 15410,500 15410,755 15380,755 15380,1005 21380,1005 21380,755" fill="#FFFFFF55" stroke="white" stroke-width="20" />
<polygon points="63350,755 63350,500 57410,500 57410,755 57380,755 57380,1005 63380,1005 63380,755" fill="#FFFFFF55" stroke="white" stroke-width="20" />
<polygon points="56350,755 56350,500 50410,500 50410,755 50380,755 50380,1005 56380,1005 56380,755" fill="#FFFFFF55" stroke="white" stroke-width="20" />
<polygon points="49350,755 49350,500 43410,500 43410,755 43380,755 43380,1005 49380,1005 49380,755" fill="#FFFFFF55" stroke="white" stroke-width="20" />
<polygon points="42350,755 42350,500 36410,500 36410,755 36380,755 36380,1005 42380,1005 42380,755" fill="#FFFFFF55" stroke="white" stroke-width="20" />
<polygon points="35350,755 35350,500 29410,500 29410,755 29380,755 29380,1005 35380,1005 35380,755" fill="#FFFFFF55" stroke="white" stroke-width="20" />
<polygon points="14350,755 14350,500 8410,500 8410,755 8380,755 8380,1005 14380,1005 14380,755" fill="#FFFFFF55" stroke="white" stroke-width="20" />
<polygon points="7350,755 7350,500 1410,500 1410,755 1380,755 1380,1005 7380,1005 7380,755" fill="#FFFFFF55" stroke="white" stroke-width="20" />
<polygon points="21380,1005 21680,1005 21680,755 21380,755 15080,755 15080,1005 15380,1005" fill="none" stroke="#2979ff" stroke-width="20" />
<polygon points="28350,755 28350,500 22410,500 22410,755 22380,755 22380,1005 28380,1005 28380,755" fill="#FFFFFF55" stroke="white" stroke-width="20" />
<polygon points="21350,755 21350,500 15410,500 15410,755 15380,755 15380,1005 21380,1005 21380,755" fill="#FFFFFF55" stroke="white" stroke-width="20" />
<polygon points="63350,755 63350,500 57410,500 57410,755 57380,755 57380,1005 63380,1005 63380,755" fill="#FFFFFF55" stroke="white" stroke-width="20" />
<polygon points="56350,755 56350,500 50410,500 50410,755 50380,755 50380,1005 56380,1005 56380,755" fill="#FFFFFF55" stroke="white" stroke-width="20" />
<polygon points="49350,755 49350,500 43410,500 43410,755 43380,755 43380,1005 49380,1005 49380,755" fill="#FFFFFF55" stroke="white" stroke-width="20" />
<polygon points="42350,755 42350,500 36410,500 36410,755 36380,755 36380,1005 42380,1005 42380,755" fill="#FFFFFF55" stroke="white" stroke-width="20" />
<polygon points="35350,755 35350,500 29410,500 29410,755 29380,755 29380,1005 35380,1005 35380,755" fill="#FFFFFF55" stroke="white" stroke-width="20" />
<polygon points="14350,755 14350,500 8410,500 8410,755 8380,755 8380,1005 14380,1005 14380,755" fill="#FFFFFF55" stroke="white" stroke-width="20" />
<polygon points="7350,755 7350,500 1410,500 1410,755 1380,755 1380,1005 7380,1005 7380,755" fill="#FFFFFF55" stroke="white" stroke-width="20" />
<polygon points="14380,1005 14680,1005 14680,755 14380,755 8080,755 8080,1005 8380,1005" fill="none" stroke="#2979ff" stroke-width="20" />
<polygon points="28350,755 28350,500 22410,500 22410,755 22380,755 22380,1005 28380,1005 28380,755" fill="#FFFFFF55" stroke="white" stroke-width="20" />
<polygon points="21350,755 21350,500 15410,500 15410,755 15380,755 15380,1005 21380,1005 21380,755" fill="#FFFFFF55" stroke="white" stroke-width="20" />
<polygon points="63350,755 63350,500 57410,500 57410,755 57380,755 57380,1005 63380,1005 63380,755" fill="#FFFFFF55" stroke="white" stroke-width="20" />
<polygon points="56350,755 56350,500 50410,500 50410,755 50380,755 50380,1005 56380,1005 56380,755" fill="#FFFFFF55" stroke="white" stroke-width="20" />
<polygon points="49350,755 49350,500 43410,500 43410,755 43380,755 43380,1005 49380,1005 49380,755" fill="#FFFFFF55" stroke="white" stroke-width="20" />
<polygon points="42350,755 42350,500 36410,500 36410,755 36380,755 36380,1005 42380,1005 42380,755" fill="#FFFFFF55" stroke="white" stroke-width="20" />
<polygon points="35350,755 35350,500 29410,500 29410,755 29380,755 29380,1005 35380,1005 35380,755" fill="#FFFFFF55" stroke="white" stroke-width="20" />
<polygon points="14350,755 14350,500 8410,500 8410,755 8380,755 8380,1005 14380,1005 14380,755" fill="#FFFFFF55" stroke="white" stroke-width="20" />
<polygon points="7350,755 7350,500 1410,500 1410,755 1380,755 1380,1005 7380,1005 7380,755" fill="#FFFFFF55" stroke="white" stroke-width="20" />
<polygon points="1005,7755 1005,6555 1005,6405 1005,1005 755,1005 755,7755" fill="none" stroke="#2979ff" stroke-width="20" />
<polygon points="1005,5380 1005,1380 755,1380 755,1410 500,1410 500,5350 755,5350 755,5380" fill="#FFFFFF55" stroke="white" stroke-width="20" />
<polygon points="1005,19980 1005,15980 755,15980 755,16010 500,16010 500,19950 755,19950 755,19980" fill="#FFFFFF55" stroke="white" stroke-width="20" />
<polygon points="1005,13055 1005,11055 755,11055 755,11085 500,11085 500,13025 755,13025 755,13055" fill="#FFFFFF55" stroke="white" stroke-width="20" />
<polygon points="1005,10305 1005,8305 755,8305 755,8335 500,8335 500,10275 755,10275 755,10305" fill="#FFFFFF55" stroke="white" stroke-width="20" />
<polygon points="1005,20355 1005,14852.5 1005,14702.5 1005,13605 755,13605 755,20355" fill="none" stroke="#2979ff" stroke-width="20" />
<polygon points="1005,5380 1005,1380 755,1380 755,1410 500,1410 500,5350 755,5350 755,5380" fill="#FFFFFF55" stroke="white" stroke-width="20" />
<polygon points="1005,19980 1005,15980 755,15980 755,16010 500,16010 500,19950 755,19950 755,19980" fill="#FFFFFF55" stroke="white" stroke-width="20" />
<polygon points="1005,13055 1005,11055 755,11055 755,11085 500,11085 500,13025 755,13025 755,13055" fill="#FFFFFF55" stroke="white" stroke-width="20" />
<polygon points="1005,10305 1005,8305 755,8305 755,8335 500,8335 500,10275 755,10275 755,10305" fill="#FFFFFF55" stroke="white" stroke-width="20" />
<polygon points="1005,13355 1005,10755 1005,10605 1005,8005 755,8005 755,13355" fill="none" stroke="#2979ff" stroke-width="20" />
<polygon points="1005,5380 1005,1380 755,1380 755,1410 500,1410 500,5350 755,5350 755,5380" fill="#FFFFFF55" stroke="white" stroke-width="20" />
<polygon points="1005,19980 1005,15980 755,15980 755,16010 500,16010 500,19950 755,19950 755,19980" fill="#FFFFFF55" stroke="white" stroke-width="20" />
<polygon points="1005,13055 1005,11055 755,11055 755,11085 500,11085 500,13025 755,13025 755,13055" fill="#FFFFFF55" stroke="white" stroke-width="20" />
<polygon points="1005,10305 1005,8305 755,8305 755,8335 500,8335 500,10275 755,10275 755,10305" fill="#FFFFFF55" stroke="white" stroke-width="20" />
<polygon points="63755,6405 21930,6405 21930,6430 21910,6430 21910,6510 21830,6510 21830,6530 21805,6530 21805,6555 63755,6555" fill="none" stroke="#2979ff" stroke-width="20" />
<polygon points="58330.01,14727.5 58330.01,14702.5 58355,14702.5 58355,6530 58330.01,6530 58330.01,6510 58250.01,6510 58250.01,6530 58230,6530 58230,6555 58205.01,6555 58205.01,14702.5 58230,14702.5 58230,14727.5" fill="none" stroke="#2979ff" stroke-width="20" />
<polygon points="42930,14727.5 42930,14702.5 1005,14702.5 1005,14852.5 42805,14852.5 42805,14827.5 42830,14827.5 42830,14747.5 42910,14747.5 42910,14727.5" fill="none" stroke="#2979ff" stroke-width="20" />
<polygon points="6510,14747.5 6510,14727.5 6530,14727.5 6530,14702.5 6555,14702.5 6555,6555 6530,6555 6530,6530 6430,6530 6430,6555 6405,6555 6405,14727.5 6430,14727.5 6430,14747.5" fill="none" stroke="#2979ff" stroke-width="20" />
<polygon points="6430,10710 6430,10630 1005,10630 1005,10710" fill="none" stroke="#2979ff" stroke-width="20" />
<polygon points="6430,10730 6430,10710 1005,10710 1005,10730" fill="none" stroke="#2979ff" stroke-width="20" />
<polygon points="6405,10605 1005,10605 1005,10630 6405,10630" fill="none" stroke="#2979ff" stroke-width="20" />
<polygon points="6405,10730 1005,10730 1005,10755 6405,10755" fill="none" stroke="#2979ff" stroke-width="20" />
<polygon points="7910,14827.5 7830,14827.5 7830,20355 7910,20355" fill="none" stroke="#2979ff" stroke-width="20" />
<polygon points="7930,14827.5 7910,14827.5 7910,20355 7930,20355" fill="none" stroke="#2979ff" stroke-width="20" />
<polygon points="7830,20355 7830,14852.5 7805,14852.5 7805,20355" fill="none" stroke="#2979ff" stroke-width="20" />
<polygon points="7955,20355 7955,14852.5 7930,14852.5 7930,20355" fill="none" stroke="#2979ff" stroke-width="20" />
<polygon points="14910,14827.5 14830,14827.5 14830,20355 14910,20355" fill="none" stroke="#2979ff" stroke-width="20" />
<polygon points="14930,14827.5 14910,14827.5 14910,20355 14930,20355" fill="none" stroke="#2979ff" stroke-width="20" />
<polygon points="14830,20355 14830,14852.5 14805,14852.5 14805,20355" fill="none" stroke="#2979ff" stroke-width="20" />
<polygon points="14955,20355 14955,14852.5 14930,14852.5 14930,20355" fill="none" stroke="#2979ff" stroke-width="20" />
<polygon points="21910,14827.5 21830,14827.5 21830,20355 21910,20355" fill="none" stroke="#2979ff" stroke-width="20" />
<polygon points="21930,14827.5 21910,14827.5 21910,20355 21930,20355" fill="none" stroke="#2979ff" stroke-width="20" />
<polygon points="21830,20355 21830,14852.5 21805,14852.5 21805,20355" fill="none" stroke="#2979ff" stroke-width="20" />
<polygon points="21955,20355 21955,14852.5 21930,14852.5 21930,20355" fill="none" stroke="#2979ff" stroke-width="20" />
<polygon points="35910.01,14827.5 35830,14827.5 35830,20355 35910.01,20355" fill="none" stroke="#2979ff" stroke-width="20" />
<polygon points="35930,14827.5 35910.01,14827.5 35910.01,20355 35930,20355" fill="none" stroke="#2979ff" stroke-width="20" />
<polygon points="35830,20355 35830,14852.5 35805,14852.5 35805,20355" fill="none" stroke="#2979ff" stroke-width="20" />
<polygon points="35955,20355 35955,14852.5 35930,14852.5 35930,20355" fill="none" stroke="#2979ff" stroke-width="20" />
<polygon points="42910.01,14747.5 42830,14747.5 42830,20355 42910.01,20355" fill="none" stroke="#2979ff" stroke-width="20" />
<polygon points="42930,14727.5 42910.01,14727.5 42910.01,20355 42930,20355" fill="none" stroke="#2979ff" stroke-width="20" />
<polygon points="42830,20355 42830,14827.5 42805,14827.5 42805,20355" fill="none" stroke="#2979ff" stroke-width="20" />
<polygon points="42955,20355 42955,14702.5 42930,14702.5 42930,20355" fill="none" stroke="#2979ff" stroke-width="20" />
<polygon points="63755,14702.5 49830,14702.5 49830,14727.5 49850,14727.5 49850,14807.5 49930,14807.5 49930,14827.5 49955,14827.5 49955,14852.5 63755,14852.5" fill="none" stroke="#2979ff" stroke-width="20" />
<polygon points="49930,14807.5 49850,14807.5 49850,20355 49930,20355" fill="none" stroke="#2979ff" stroke-width="20" />
<polygon points="49850,14727.5 49830,14727.5 49830,20355 49850,20355" fill="none" stroke="#2979ff" stroke-width="20" />
<polygon points="49955,20355 49955,14827.5 49930,14827.5 49930,20355" fill="none" stroke="#2979ff" stroke-width="20" />
<polygon points="49830,20355 49830,14702.5 49805,14702.5 49805,20355" fill="none" stroke="#2979ff" stroke-width="20" />
<polygon points="56918.75,14807.5 56838.75,14807.5 56838.75,20355 56918.75,20355" fill="none" stroke="#2979ff" stroke-width="20" />
<polygon points="56838.75,14827.5 56818.75,14827.5 56818.75,20355 56838.75,20355" fill="none" stroke="#2979ff" stroke-width="20" />
<polygon points="56943.75,20355 56943.75,14827.5 56918.75,14827.5 56918.75,20355" fill="none" stroke="#2979ff" stroke-width="20" />
<polygon points="56818.75,20355 56818.75,14852.5 56793.75,14852.5 56793.75,20355" fill="none" stroke="#2979ff" stroke-width="20" />
<polygon points="56910.01,1005 56830,1005 56830,6430 56910.01,6430" fill="none" stroke="#2979ff" stroke-width="20" />
<polygon points="56930,1005 56910.01,1005 56910.01,6430 56930,6430" fill="none" stroke="#2979ff" stroke-width="20" />
<polygon points="56830,6405 56830,1005 56805,1005 56805,6405" fill="none" stroke="#2979ff" stroke-width="20" />
<polygon points="56955,6405 56955,1005 56930,1005 56930,6405" fill="none" stroke="#2979ff" stroke-width="20" />
<polygon points="49910.01,1005 49830,1005 49830,6430 49910.01,6430" fill="none" stroke="#2979ff" stroke-width="20" />
<polygon points="49930,1005 49910.01,1005 49910.01,6430 49930,6430" fill="none" stroke="#2979ff" stroke-width="20" />
<polygon points="49830,6405 49830,1005 49805,1005 49805,6405" fill="none" stroke="#2979ff" stroke-width="20" />
<polygon points="49955,6405 49955,1005 49930,1005 49930,6405" fill="none" stroke="#2979ff" stroke-width="20" />
<polygon points="42910.01,1005 42830,1005 42830,6430 42910.01,6430" fill="none" stroke="#2979ff" stroke-width="20" />
<polygon points="42930,1005 42910.01,1005 42910.01,6430 42930,6430" fill="none" stroke="#2979ff" stroke-width="20" />
<polygon points="42830,6405 42830,1005 42805,1005 42805,6405" fill="none" stroke="#2979ff" stroke-width="20" />
<polygon points="42955,6405 42955,1005 42930,1005 42930,6405" fill="none" stroke="#2979ff" stroke-width="20" />
<polygon points="21910,1005 21830,1005 21830,6510 21910,6510" fill="none" stroke="#2979ff" stroke-width="20" />
<polygon points="21930,1005 21910,1005 21910,6430 21930,6430" fill="none" stroke="#2979ff" stroke-width="20" />
<polygon points="21830,6530 21830,1005 21805,1005 21805,6530" fill="none" stroke="#2979ff" stroke-width="20" />
<polygon points="21955,1005 21930,1005 21930,6405 21955,6405" fill="none" stroke="#2979ff" stroke-width="20" />
<polygon points="14910,1005 14830,1005 14830,6530 14910,6530" fill="none" stroke="#2979ff" stroke-width="20" />
<polygon points="14930,1005 14910,1005 14910,6530 14930,6530" fill="none" stroke="#2979ff" stroke-width="20" />
<polygon points="14830,1005 14805,1005 14805,6430 14830,6430" fill="none" stroke="#2979ff" stroke-width="20" />
<polygon points="14955,6555 14955,1005 14930,1005 14930,6555" fill="none" stroke="#2979ff" stroke-width="20" />
<polygon points="7910,1005 7830,1005 7830,6450 7910,6450" fill="none" stroke="#2979ff" stroke-width="20" />
<polygon points="7930,1005 7910,1005 7910,6430 7930,6430" fill="none" stroke="#2979ff" stroke-width="20" />
<polygon points="7830,6430 7830,1005 7805,1005 7805,6430" fill="none" stroke="#2979ff" stroke-width="20" />
<polygon points="7955,6405 7955,1005 7930,1005 7930,6405" fill="none" stroke="#2979ff" stroke-width="20" />
<polygon points="14805,6430 14805,6405 1005,6405 1005,6555 14930,6555 14930,6530 14830,6530 14830,6430" fill="none" stroke="#2979ff" stroke-width="20" />
<polygon points="63755,10730 63755,10650 58330,10650 58330,10730" fill="none" stroke="#2979ff" stroke-width="20" />
<polygon points="63755,10650 63755,10630 58330,10630 58330,10650" fill="none" stroke="#2979ff" stroke-width="20" />
<polygon points="63755,10730 58355.01,10730 58355.01,10755 63755,10755" fill="none" stroke="#2979ff" stroke-width="20" />
<polygon points="63755,10605 58355.01,10605 58355.01,10630 63755,10630" fill="none" stroke="#2979ff" stroke-width="20" />
<polygon points="49755,12130 49755,12050 44230,12050 44230,12130" fill="none" stroke="#2979ff" stroke-width="20" />
<polygon points="49755,12050 49755,12030 44310,12030 44310,12050" fill="none" stroke="#2979ff" stroke-width="20" />
<polygon points="49755,12130 44205,12130 44205,12155 49755,12155" fill="none" stroke="#2979ff" stroke-width="20" />
<polygon points="49755,12030 49755,12005 44330,12005 44330,12030" fill="none" stroke="#2979ff" stroke-width="20" />
<polygon points="44230.01,12130 44230.01,12050 44310,12050 44310,12030 44330,12030 44330,12005 44355.01,12005 44355.01,7880 44330,7880 44330,7860 44310,7860 44310,7780 44230.01,7780 44230.01,7755 44205,7755 44205,12130" fill="none" stroke="#2979ff" stroke-width="20" />
<polygon points="49755,7860 49755,7780 44310,7780 44310,7860" fill="none" stroke="#2979ff" stroke-width="20" />
<polygon points="49755,7880 49755,7860 44330,7860 44330,7880" fill="none" stroke="#2979ff" stroke-width="20" />
<polygon points="49755,7755 44230,7755 44230,7780 49755,7780" fill="none" stroke="#2979ff" stroke-width="20" />
<polygon points="49755,7905 49755,7880 44355,7880 44355,7905" fill="none" stroke="#2979ff" stroke-width="20" />
<polygon points="20530,13580 20530,13500 15005,13500 15005,13580" fill="none" stroke="#2979ff" stroke-width="20" />
<polygon points="20450,13500 20450,13480 15005,13480 15005,13500" fill="none" stroke="#2979ff" stroke-width="20" />
<polygon points="20555,13580 15005,13580 15005,13605 20555,13605" fill="none" stroke="#2979ff" stroke-width="20" />
<polygon points="20430,13455 15005,13455 15005,13480 20430,13480" fill="none" stroke="#2979ff" stroke-width="20" />
<polygon points="20530,9310 20530,9230 15005,9230 15005,9310" fill="none" stroke="#2979ff" stroke-width="20" />
<polygon points="20450,9330 20450,9310 15005,9310 15005,9330" fill="none" stroke="#2979ff" stroke-width="20" />
<polygon points="20555,9205 15005,9205 15005,9230 20555,9230" fill="none" stroke="#2979ff" stroke-width="20" />
<polygon points="20430,9355 20430,9330 15005,9330 15005,9355" fill="none" stroke="#2979ff" stroke-width="20" />
<polygon points="20555,13580 20555,9230 20530,9230 20530,9310 20450,9310 20450,9330 20430,9330 20430,9355 20405,9355 20405,13455 20430,13455 20430,13480 20450,13480 20450,13500 20530,13500 20530,13580" fill="none" stroke="#2979ff" stroke-width="20" />
<polygon points="20450,11580 20450,11500 15295,11500 15295,11580" fill="none" stroke="#2979ff" stroke-width="20" />
<polygon points="20450,11310 20450,11230 15295,11230 15295,11310" fill="none" stroke="#2979ff" stroke-width="20" />
<polygon points="20430,11500 20430,11310 15295,11310 15295,11500" fill="none" stroke="#2979ff" stroke-width="20" />
<polygon points="20430,11205 15295,11205 15295,11230 20430,11230" fill="none" stroke="#2979ff" stroke-width="20" />
<polygon points="20405,11605 20405,11580 15320,11580 15320,11605" fill="none" stroke="#2979ff" stroke-width="20" />
<polygon points="49465,9860 49465,9780 44310,9780 44310,9860" fill="none" stroke="#2979ff" stroke-width="20" />
<polygon points="49465,10130 49465,10050 44310,10050 44310,10130" fill="none" stroke="#2979ff" stroke-width="20" />
<polygon points="49465.01,10050 49465.01,9860 44330,9860 44330,10050" fill="none" stroke="#2979ff" stroke-width="20" />
<polygon points="49465.01,10155 49465.01,10130 44330,10130 44330,10155" fill="none" stroke="#2979ff" stroke-width="20" />
<polygon points="49440,9755 44355.01,9755 44355.01,9780 49440,9780" fill="none" stroke="#2979ff" stroke-width="20" />
<polygon points="15295,13500 15295,9310 15255,9310 15255,13500" fill="none" stroke="#2979ff" stroke-width="20" />
<polygon points="15320,13455 15320,9355 15295,9355 15295,13455" fill="none" stroke="#2979ff" stroke-width="20" />
<polygon points="16770,10242.5 15320,10242.5 15320,10255 16770,10255" fill="none" stroke="#2979ff" stroke-width="20" />
<polygon points="16782.5,10305 16782.5,10255 15295,10255 15295,10305" fill="none" stroke="#2979ff" stroke-width="20" />
<polygon points="16770,10305 15320,10305 15320,10317.5 16770,10317.5" fill="none" stroke="#2979ff" stroke-width="20" />
<polygon points="16832.5,11230 16832.5,11205 16845,11205 16845,9355 16832.5,9355 16832.5,9310 16782.5,9310 16782.5,9355 16770,9355 16770,11205 16782.5,11205 16782.5,11230" fill="none" stroke="#2979ff" stroke-width="20" />
<polygon points="16832.5,13500 16832.5,13455 16845,13455 16845,11605 16832.5,11605 16832.5,11580 16782.5,11580 16782.5,11605 16770,11605 16770,13455 16782.5,13455 16782.5,13500" fill="none" stroke="#2979ff" stroke-width="20" />
<polygon points="16770,12492.5 15320,12492.5 15320,12505 16770,12505" fill="none" stroke="#2979ff" stroke-width="20" />
<polygon points="16782.5,12555 16782.5,12505 15295,12505 15295,12555" fill="none" stroke="#2979ff" stroke-width="20" />
<polygon points="16770,12555 15320,12555 15320,12567.5 16770,12567.5" fill="none" stroke="#2979ff" stroke-width="20" />
<polygon points="18530,12365 18530,11605 18505,11605 18505,12365" fill="none" stroke="#2979ff" stroke-width="20" />
<polygon points="18580,12365 18580,11580 18530,11580 18530,12365" fill="none" stroke="#2979ff" stroke-width="20" />
<polygon points="18605,12365 18605,11605 18580,11605 18580,12365" fill="none" stroke="#2979ff" stroke-width="20" />
<polygon points="18605,11205 18605,10355 18580,10355 18580,11205" fill="none" stroke="#2979ff" stroke-width="20" />
<polygon points="18580,11230 18580,10355 18530,10355 18530,11230" fill="none" stroke="#2979ff" stroke-width="20" />
<polygon points="18530,11205 18530,10355 18505,10355 18505,11205" fill="none" stroke="#2979ff" stroke-width="20" />
<polygon points="49505,12050 49505,7860 49465,7860 49465,12050" fill="none" stroke="#2979ff" stroke-width="20" />
<polygon points="49465,12005 49465,7905 49440,7905 49440,12005" fill="none" stroke="#2979ff" stroke-width="20" />
<polygon points="49440,11042.5 47990,11042.5 47990,11055 49440,11055" fill="none" stroke="#2979ff" stroke-width="20" />
<polygon points="49465.01,11105 49465.01,11055 47977.5,11055 47977.5,11105" fill="none" stroke="#2979ff" stroke-width="20" />
<polygon points="49440,11105 47990,11105 47990,11117.5 49440,11117.5" fill="none" stroke="#2979ff" stroke-width="20" />
<polygon points="47977.5,12050 47977.5,12005 47990,12005 47990,10155 47977.5,10155 47977.5,10130 47927.5,10130 47927.5,10155 47915,10155 47915,12005 47927.5,12005 47927.5,12050" fill="none" stroke="#2979ff" stroke-width="20" />
<polygon points="47977.5,9780 47977.5,9755 47990,9755 47990,7905 47977.5,7905 47977.5,7860 47927.5,7860 47927.5,7905 47915,7905 47915,9755 47927.5,9755 47927.5,9780" fill="none" stroke="#2979ff" stroke-width="20" />
<polygon points="49440,8855 47990,8855 47990,8867.5 49440,8867.5" fill="none" stroke="#2979ff" stroke-width="20" />
<polygon points="49465.01,8855 49465.01,8805 47977.5,8805 47977.5,8855" fill="none" stroke="#2979ff" stroke-width="20" />
<polygon points="49440,8792.5 47990,8792.5 47990,8805 49440,8805" fill="none" stroke="#2979ff" stroke-width="20" />
<polygon points="46180,11005 46180,10155 46155,10155 46155,11005" fill="none" stroke="#2979ff" stroke-width="20" />
<polygon points="46230.01,10130 46180,10130 46180,11005 46230.01,11005" fill="none" stroke="#2979ff" stroke-width="20" />
<polygon points="46255,11005 46255,10155 46230,10155 46230,11005" fill="none" stroke="#2979ff" stroke-width="20" />
<polygon points="46255,9755 46255,8905 46230,8905 46230,9755" fill="none" stroke="#2979ff" stroke-width="20" />
<polygon points="46230.01,8905 46180,8905 46180,9780 46230.01,9780" fill="none" stroke="#2979ff" stroke-width="20" />
<polygon points="46180,9755 46180,8905 46155,8905 46155,9755" fill="none" stroke="#2979ff" stroke-width="20" />
<polygon points="12605,9380 12605,9180 14755,9180 14755,8005 14630,8005 14630,7755 13620,7755 13620,8005 8005,8005 8005,9185 11405,9185 11405,9380" fill="rgba(0,200,83,0.18)" stroke="#2979ff" stroke-width="20" />
<polygon points="53355,9380 53355,9185 53945,9185 53955,9185 55255,9185 55265,9185 56755,9185 56755,8005 51140,8005 51140,7755 50130,7755 50130,8005 50005,8005 50005,9180 52155,9180 52155,9380" fill="rgba(0,200,83,0.18)" stroke="#2979ff" stroke-width="20" />
<polygon points="63805,20405 955,20405 955,955 63805,955" fill="none" stroke="#ff1744" stroke-width="40" />
<line x1="7380" y1="20405" x2="1380" y2="20405" stroke="#00b0ff" stroke-width="40" stroke-linecap="round" />
<line x1="14380" y1="20405" x2="8380" y2="20405" stroke="#00b0ff" stroke-width="40" stroke-linecap="round" />
<line x1="21380" y1="20405" x2="15380" y2="20405" stroke="#00b0ff" stroke-width="40" stroke-linecap="round" />
<line x1="28380" y1="20405" x2="22380" y2="20405" stroke="#00b0ff" stroke-width="40" stroke-linecap="round" />
<line x1="35380" y1="20405" x2="29380" y2="20405" stroke="#00b0ff" stroke-width="40" stroke-linecap="round" />
<line x1="42380" y1="20405" x2="36380" y2="20405" stroke="#00b0ff" stroke-width="40" stroke-linecap="round" />
<line x1="49380" y1="20405" x2="43380" y2="20405" stroke="#00b0ff" stroke-width="40" stroke-linecap="round" />
<line x1="56380" y1="20405" x2="50380" y2="20405" stroke="#00b0ff" stroke-width="40" stroke-linecap="round" />
<line x1="63380" y1="20405" x2="57380" y2="20405" stroke="#00b0ff" stroke-width="40" stroke-linecap="round" />
<line x1="955" y1="5380" x2="955" y2="1380" stroke="#00b0ff" stroke-width="40" stroke-linecap="round" />
<line x1="955" y1="19980" x2="955" y2="15980" stroke="#00b0ff" stroke-width="40" stroke-linecap="round" />
<line x1="955" y1="13055" x2="955" y2="11055" stroke="#00b0ff" stroke-width="40" stroke-linecap="round" />
<line x1="955" y1="10305" x2="955" y2="8305" stroke="#00b0ff" stroke-width="40" stroke-linecap="round" />
<line x1="22380" y1="955" x2="28380" y2="955" stroke="#00b0ff" stroke-width="40" stroke-linecap="round" />
<line x1="15380" y1="955" x2="21380" y2="955" stroke="#00b0ff" stroke-width="40" stroke-linecap="round" />
<line x1="57380" y1="955" x2="63380" y2="955" stroke="#00b0ff" stroke-width="40" stroke-linecap="round" />
<line x1="50380" y1="955" x2="56380" y2="955" stroke="#00b0ff" stroke-width="40" stroke-linecap="round" />
<line x1="43380" y1="955" x2="49380" y2="955" stroke="#00b0ff" stroke-width="40" stroke-linecap="round" />
<line x1="36380" y1="955" x2="42380" y2="955" stroke="#00b0ff" stroke-width="40" stroke-linecap="round" />
<line x1="29380" y1="955" x2="35380" y2="955" stroke="#00b0ff" stroke-width="40" stroke-linecap="round" />
<line x1="8380" y1="955" x2="14380" y2="955" stroke="#00b0ff" stroke-width="40" stroke-linecap="round" />
<line x1="1380" y1="955" x2="7380" y2="955" stroke="#00b0ff" stroke-width="40" stroke-linecap="round" />
<line x1="63805" y1="15980" x2="63805" y2="19980" stroke="#00b0ff" stroke-width="40" stroke-linecap="round" />
<line x1="63805" y1="1380" x2="63805" y2="5380" stroke="#00b0ff" stroke-width="40" stroke-linecap="round" />
<line x1="63805" y1="8305" x2="63805" y2="10305" stroke="#00b0ff" stroke-width="40" stroke-linecap="round" />
<line x1="63805" y1="11055" x2="63805" y2="13055" stroke="#00b0ff" stroke-width="40" stroke-linecap="round" />
</svg>