<svg xmlns="http://www.w3.org/2000/svg" width="64650" height="21250" viewBox="0 0 64650 21250">
<text x="500" y="500" fill="#222" font-size="200" font-family="monospace">B01_OKRD</text>
<polygon points="7950,700 7650,700 7650,13300 7950,13300" fill="none" stroke="#2979ff" stroke-width="20" />
<polygon points="57000.01,1000 57000.01,700 7950,700 7950,1000" fill="none" stroke="#2979ff" stroke-width="20" />
<polygon points="57000.01,1000 56700,1000 56700,13300 57000.01,13300" fill="none" stroke="#2979ff" stroke-width="20" />
<polygon points="57000,13600 57000,13300 7650,13300 7650,13600" fill="none" stroke="#2979ff" stroke-width="20" />
<polygon points="10950,9125 10750,9125 10750,13300 10950,13300" fill="none" stroke="#2979ff" stroke-width="20" />
<polygon points="14950,7925 14700,7925 14700,9125 14950,9125" fill="none" stroke="#2979ff" stroke-width="20" />
<polygon points="11350,9325 12550,9325 12950,9325 13150,9325 14950,9325 14950,9125 14700,9125 12550,9125 11350,9125 10950,9125 10950,9325" fill="none" stroke="#2979ff" stroke-width="20" />
<polygon points="13150,9325 12950,9325 12950,11900 13150,11900" fill="none" stroke="#2979ff" stroke-width="20" />
<polygon points="13150,12100 13150,11900 10950,11900 10950,12100" fill="none" stroke="#2979ff" stroke-width="20" />
<polygon points="53900,9125 53700,9125 53700,13300 53900,13300" fill="none" stroke="#2979ff" stroke-width="20" />
<polygon points="49950,7925 49700,7925 49700,9125 49950,9125" fill="none" stroke="#2979ff" stroke-width="20" />
<polygon points="51500,9325 51700,9325 52100,9325 53300,9325 53700,9325 53700,9125 53300,9125 52100,9125 49950,9125 49700,9125 49700,9325" fill="none" stroke="#2979ff" stroke-width="20" />
<polygon points="51700,9325 51500.01,9325 51500.01,11900 51700,11900" fill="none" stroke="#2979ff" stroke-width="20" />
<polygon points="53700,12100 53700,11900 51500.01,11900 51500.01,12100" fill="none" stroke="#2979ff" stroke-width="20" />
<polygon points="13525,7925 14615,7925 14700,7925 14950,7925 17780,7925 18870,7925 31780,7925 32870,7925 45780,7925 46870,7925 49700,7925 49950,7925 50035,7925 51125,7925 56700,7925 56700,7725 51125,7725 50035,7725 46870,7725 45780,7725 32870,7725 31780,7725 18870,7725 17780,7725 14615,7725 13525,7725 7950,7725 7950,7925" fill="none" stroke="#2979ff" stroke-width="20" />
<polygon points="11925,5125 12125,5125 12180,5125 13270,5125 19180,5125 20270,5125 23380,5125 24470,5125 40180,5125 41270,5125 47180,5125 48270,5125 51380,5125 52470,5125 52525,5125 52725,5125 56700,5125 56700,4925 52470,4925 51380,4925 49950,4925 49700,4925 48270,4925 47180,4925 42950,4925 42700,4925 41270,4925 40180,4925 35950,4925 35700,4925 24470,4925 23380,4925 21950,4925 21700,4925 20270,4925 19180,4925 14950,4925 14700,4925 13270,4925 12180,4925 7950,4925 7950,5125" fill="none" stroke="#2979ff" stroke-width="20" />
<polygon points="14950,1000 14700,1000 14700,4925 14950,4925" fill="none" stroke="#2979ff" stroke-width="20" />
<polygon points="21950,1000 21700,1000 21700,4925 21950,4925" fill="none" stroke="#2979ff" stroke-width="20" />
<polygon points="35950,1000 35700,1000 35700,4925 35950,4925" fill="none" stroke="#2979ff" stroke-width="20" />
<polygon points="42950,1000 42700,1000 42700,4925 42950,4925" fill="none" stroke="#2979ff" stroke-width="20" />
<polygon points="49950,1000 49700,1000 49700,4925 49950,4925" fill="none" stroke="#2979ff" stroke-width="20" />
<polygon points="12125,7725 12125,5025 11925,5025 11925,7725" fill="none" stroke="#2979ff" stroke-width="20" />
<polygon points="52725,7725 52725,5125 52525,5125 52525,7725" fill="none" stroke="#2979ff" stroke-width="20" />
<polygon points="7650,13800 7650,13600 7650,700 7650,500 7450,500 7450,13800" fill="none" stroke="#2979ff" stroke-width="20" />
<polygon points="57000,500 7650,500 7650,700 57000,700" fill="none" stroke="#2979ff" stroke-width="20" />
<polygon points="57200,13800 57200,500 57000,500 57000,700 57000,13600 57000,13800" fill="none" stroke="#2979ff" stroke-width="20" />
<polygon points="57000,13800 57000,13600 7650,13600 7650,13800" fill="none" stroke="#2979ff" stroke-width="20" />
<polygon points="64150,20750 64150,20550 700,20550 700,20750" fill="none" stroke="#2979ff" stroke-width="20" />
<polygon points="64150,500 63950,500 63950,20550 64150,20550" fill="none" stroke="#2979ff" stroke-width="20" />
<polygon points="700,500 500,500 500,20750 700,20750" fill="none" stroke="#2979ff" stroke-width="20" />
<polygon points="63950,700 63950,500 57100,500 57100,700" fill="none" stroke="#2979ff" stroke-width="20" />
<polygon points="7450,500 700,500 700,700 7450,700" fill="none" stroke="#2979ff" stroke-width="20" />
<polygon points="7650,9725 7650,9525 7250,9525 7250,9725" fill="none" stroke="#2979ff" stroke-width="20" />
<polygon points="7450,8825 7250,8825 7250,9525 7450,9525" fill="none" stroke="#2979ff" stroke-width="20" />
<polygon points="7650,8825 7650,8625 7250,8625 7250,8825" fill="none" stroke="#2979ff" stroke-width="20" />
<polygon points="7450,8625 7450,8425 7050,8425 7050,8625" fill="none" stroke="#2979ff" stroke-width="20" />
<polygon points="7250,8625 7050,8625 7050,9725 7250,9725" fill="none" stroke="#2979ff" stroke-width="20" />
<polygon points="7450,9925 7450,9725 7050,9725 7050,9925" fill="none" stroke="#2979ff" stroke-width="20" />
<polygon points="63950,20550 700,20550 700,700 63950,700" fill="none" stroke="#ff1744" stroke-width="40" />
</svg>