<svg xmlns="http://www.w3.org/2000/svg" width="10000" height="7200.01" viewBox="0 0 10000 7200.01">
<text x="500" y="500" fill="#222" font-size="200" font-family="monospace">EG</text>
<polygon points="900,920 1325,920 1325,500 500,520" fill="none" stroke="#2979ff" stroke-width="20" />
<polygon points="1325,920 4535,920 4535,500 1325,500" fill="none" stroke="#2979ff" stroke-width="20" />
<polygon points="1445,920 4045,920 4045,500 1445,500" fill="#FFFFFF55" stroke="white" stroke-width="20" />
<polygon points="4535,920 9080,920 9500,500 4535,500" fill="none" stroke="#2979ff" stroke-width="20" />
<polygon points="9080,920 9080,6300.01 9500,6700.01 9500,500" fill="none" stroke="#2979ff" stroke-width="20" />
<polygon points="9080,3770.01 9080,5600.01 9500,5600.01 9500,3770.01" fill="#FFFFFF55" stroke="white" stroke-width="20" />
<polygon points="9080,2210 9080,3040 9500,3040 9500,2210" fill="#FFFFFF55" stroke="white" stroke-width="20" />
<polygon points="9080,6300.01 900,6300.01 500,6700.01 9500,6700.01" fill="none" stroke="#2979ff" stroke-width="20" />
<polygon points="900,6300.01 900,920 500,520 500,6700.01" fill="none" stroke="#2979ff" stroke-width="20" />
<polygon points="500,6700.01 9500,6700.01 9500,500 4535,500 1325,500 500,520" fill="rgba(0,200,83,0.18)" stroke="#2979ff" stroke-width="20" />
<polygon points="9080.01,6300.38 899.82,6300.08 899.73,930.46 1332.1,920.06 9080.16,920.06" fill="none" stroke="#ff1744" stroke-width="40" />
<line x1="1445" y1="920.06" x2="4045" y2="920.06" stroke="#8e24aa" stroke-width="40" stroke-linecap="round" />
<line x1="9080.08" y1="3770" x2="9080.03" y2="5600.01" stroke="#8e24aa" stroke-width="40" stroke-linecap="round" />
<line x1="9080.12" y1="2209.99" x2="9080.1" y2="3040" stroke="#8e24aa" stroke-width="40" stroke-linecap="round" />
</svg>