<svg xmlns="http://www.w3.org/2000/svg" width="13600" height="11000" viewBox="0 0 13600 11000">
<text x="500" y="500" fill="#222" font-size="200" font-family="monospace">Dachgeschoss</text>
<polygon points="1100,10200 1100,800 800,500 800,10500" fill="none" stroke="#2979ff" stroke-width="20" />
<polygon points="500,5002.41 500,5005.41 500,5009.61 500,5014.98 500,5021.53 500,5029.23 500,5038.06 500,5048.01 500,5059.04 500,5071.13 500,5084.27 500,5098.4 500,5113.49 500,5129.52 500,5146.45 500,5164.22 500,5182.8 500,5202.15 500,5222.21 500,5242.95 500,5264.3 500,5286.22 500,5308.66 500,5331.55 500,5354.86 500,5378.51 500,5402.45 500,5426.63 500,5450.99 500,5475.47 500,5500 500,5524.53 500,5549.01 500,5573.37 500,5597.55 500,5621.49 500,5645.14 500,5668.45 500,5691.34 500,5713.77 500,5735.7 500,5757.05 500,5777.78 500,5797.85 500,5817.2 500,5835.78 500,5853.55 500,5870.48 500,5886.51 500,5901.6 500,5915.73 500,5928.87 500,5940.96 500,5951.99 500,5961.94 500,5970.77 500,5978.47 500,5985.02 500,5990.39 500,5994.59 500,5997.59 500,5999.4 500,6000 985,6000 985,5999.4 985,5997.59 985,5994.59 985,5990.39 985,5985.02 985,5978.47 985,5970.77 985,5961.94 985,5951.99 985,5940.96 985,5928.87 985,5915.73 985,5901.6 985,5886.51 985,5870.48 985,5853.55 985,5835.78 985,5817.2 985,5797.85 985,5777.78 985,5757.05 985,5735.7 985,5713.77 985,5691.34 985,5668.45 985,5645.14 985,5621.49 985,5597.55 985,5573.37 985,5549.01 985,5524.53 985,5500 985,5475.47 985,5450.99 985,5426.63 985,5402.45 985,5378.51 985,5354.86 985,5331.55 985,5308.66 985,5286.22 985,5264.3 985,5242.95 985,5222.21 985,5202.15 985,5182.8 985,5164.22 985,5146.45 985,5129.52 985,5113.49 985,5098.4 985,5084.27 985,5071.13 985,5059.04 985,5048.01 985,5038.06 985,5029.23 985,5021.53 985,5014.98 985,5009.61 985,5005.41 985,5002.41 985,5000.6 985,5000 500,5000 500,5000.6" fill="#FFFFFF55" stroke="white" stroke-width="20" />
<polygon points="985,5002.41 985,5005.41 985,5009.61 985,5014.98 985,5021.53 985,5029.23 985,5038.06 985,5048.01 985,5059.04 985,5071.13 985,5084.27 985,5098.4 985,5113.49 985,5129.52 985,5146.45 985,5164.22 985,5182.8 985,5202.15 985,5222.21 985,5242.95 985,5264.3 985,5286.22 985,5308.66 985,5331.55 985,5354.86 985,5378.51 985,5402.45 985,5426.63 985,5450.99 985,5475.47 985,5500 985,5524.53 985,5549.01 985,5573.37 985,5597.55 985,5621.49 985,5645.14 985,5668.45 985,5691.34 985,5713.77 985,5735.7 985,5757.05 985,5777.78 985,5797.85 985,5817.2 985,5835.78 985,5853.55 985,5870.48 985,5886.51 985,5901.6 985,5915.73 985,5928.87 985,5940.96 985,5951.99 985,5961.94 985,5970.77 985,5978.47 985,5985.02 985,5990.39 985,5994.59 985,5997.59 985,5999.4 985,6000 1400,6000 1400,5999.4 1400,5997.59 1400,5994.59 1400,5990.39 1400,5985.02 1400,5978.47 1400,5970.77 1400,5961.94 1400,5951.99 1400,5940.96 1400,5928.87 1400,5915.73 1400,5901.6 1400,5886.51 1400,5870.48 1400,5853.55 1400,5835.78 1400,5817.2 1400,5797.85 1400,5777.78 1400,5757.05 1400,5735.7 1400,5713.77 1400,5691.34 1400,5668.45 1400,5645.14 1400,5621.49 1400,5597.55 1400,5573.37 1400,5549.01 1400,5524.53 1400,5500 1400,5475.47 1400,5450.99 1400,5426.63 1400,5402.45 1400,5378.51 1400,5354.86 1400,5331.55 1400,5308.66 1400,5286.22 1400,5264.3 1400,5242.95 1400,5222.21 1400,5202.15 1400,5182.8 1400,5164.22 1400,5146.45 1400,5129.52 1400,5113.49 1400,5098.4 1400,5084.27 1400,5071.13 1400,5059.04 1400,5048.01 1400,5038.06 1400,5029.23 1400,5021.53 1400,5014.98 1400,5009.61 1400,5005.41 1400,5002.41 1400,5000.6 1400,5000 985,5000 985,5000.6" fill="#FFFFFF55" stroke="white" stroke-width="20" />
<polygon points="12500,800 12800,500 800,500 1100,800" fill="none" stroke="#2979ff" stroke-width="20" />
<polygon points="12800,10500 12800,500 12500,800 12500,10200" fill="none" stroke="#2979ff" stroke-width="20" />
<polygon points="12200,5002.41 12200,5005.41 12200,5009.61 12200,5014.98 12200,5021.53 12200,5029.23 12200,5038.06 12200,5048.01 12200,5059.04 12200,5071.13 12200,5084.27 12200,5098.4 12200,5113.49 12200,5129.52 12200,5146.45 12200,5164.22 12200,5182.8 12200,5202.15 12200,5222.21 12200,5242.95 12200,5264.3 12200,5286.22 12200,5308.66 12200,5331.55 12200,5354.86 12200,5378.51 12200,5402.45 12200,5426.63 12200,5450.99 12200,5475.47 12200,5500 12200,5524.53 12200,5549.01 12200,5573.37 12200,5597.55 12200,5621.49 12200,5645.14 12200,5668.45 12200,5691.34 12200,5713.77 12200,5735.7 12200,5757.05 12200,5777.78 12200,5797.85 12200,5817.2 12200,5835.78 12200,5853.55 12200,5870.48 12200,5886.51 12200,5901.6 12200,5915.73 12200,5928.87 12200,5940.96 12200,5951.99 12200,5961.94 12200,5970.77 12200,5978.47 12200,5985.02 12200,5990.39 12200,5994.59 12200,5997.59 12200,5999.4 12200,6000 12685,6000 12685,5999.4 12685,5997.59 12685,5994.59 12685,5990.39 12685,5985.02 12685,5978.47 12685,5970.77 12685,5961.94 12685,5951.99 12685,5940.96 12685,5928.87 12685,5915.73 12685,5901.6 12685,5886.51 12685,5870.48 12685,5853.55 12685,5835.78 12685,5817.2 12685,5797.85 12685,5777.78 12685,5757.05 12685,5735.7 12685,5713.77 12685,5691.34 12685,5668.45 12685,5645.14 12685,5621.49 12685,5597.55 12685,5573.37 12685,5549.01 12685,5524.53 12685,5500 12685,5475.47 12685,5450.99 12685,5426.63 12685,5402.45 12685,5378.51 12685,5354.86 12685,5331.55 12685,5308.66 12685,5286.22 12685,5264.3 12685,5242.95 12685,5222.21 12685,5202.15 12685,5182.8 12685,5164.22 12685,5146.45 12685,5129.52 12685,5113.49 12685,5098.4 12685,5084.27 12685,5071.13 12685,5059.04 12685,5048.01 12685,5038.06 12685,5029.23 12685,5021.53 12685,5014.98 12685,5009.61 12685,5005.41 12685,5002.41 12685,5000.6 12685,5000 12200,5000 12200,5000.6" fill="#FFFFFF55" stroke="white" stroke-width="20" />
<polygon points="12685,5002.41 12685,5005.41 12685,5009.61 12685,5014.98 12685,5021.53 12685,5029.23 12685,5038.06 12685,5048.01 12685,5059.04 12685,5071.13 12685,5084.27 12685,5098.4 12685,5113.49 12685,5129.52 12685,5146.45 12685,5164.22 12685,5182.8 12685,5202.15 12685,5222.21 12685,5242.95 12685,5264.3 12685,5286.22 12685,5308.66 12685,5331.55 12685,5354.86 12685,5378.51 12685,5402.45 12685,5426.63 12685,5450.99 12685,5475.47 12685,5500 12685,5524.53 12685,5549.01 12685,5573.37 12685,5597.55 12685,5621.49 12685,5645.14 12685,5668.45 12685,5691.34 12685,5713.77 12685,5735.7 12685,5757.05 12685,5777.78 12685,5797.85 12685,5817.2 12685,5835.78 12685,5853.55 12685,5870.48 12685,5886.51 12685,5901.6 12685,5915.73 12685,5928.87 12685,5940.96 12685,5951.99 12685,5961.94 12685,5970.77 12685,5978.47 12685,5985.02 12685,5990.39 12685,5994.59 12685,5997.59 12685,5999.4 12685,6000 13100,6000 13100,5999.4 13100,5997.59 13100,5994.59 13100,5990.39 13100,5985.02 13100,5978.47 13100,5970.77 13100,5961.94 13100,5951.99 13100,5940.96 13100,5928.87 13100,5915.73 13100,5901.6 13100,5886.51 13100,5870.48 13100,5853.55 13100,5835.78 13100,5817.2 13100,5797.85 13100,5777.78 13100,5757.05 13100,5735.7 13100,5713.77 13100,5691.34 13100,5668.45 13100,5645.14 13100,5621.49 13100,5597.55 13100,5573.37 13100,5549.01 13100,5524.53 13100,5500 13100,5475.47 13100,5450.99 13100,5426.63 13100,5402.45 13100,5378.51 13100,5354.86 13100,5331.55 13100,5308.66 13100,5286.22 13100,5264.3 13100,5242.95 13100,5222.21 13100,5202.15 13100,5182.8 13100,5164.22 13100,5146.45 13100,5129.52 13100,5113.49 13100,5098.4 13100,5084.27 13100,5071.13 13100,5059.04 13100,5048.01 13100,5038.06 13100,5029.23 13100,5021.53 13100,5014.98 13100,5009.61 13100,5005.41 13100,5002.41 13100,5000.6 13100,5000 12685,5000 12685,5000.6" fill="#FFFFFF55" stroke="white" stroke-width="20" />
<polygon points="12800,10500 12500,10200 1100,10200 800,10500" fill="none" stroke="#2979ff" stroke-width="20" />
<polygon points="900,10400 12700,10400 12700,600 900,600" fill="rgba(0,200,83,0.18)" stroke="#2979ff" stroke-width="20" />
<polygon points="12500,10200.17 1099.84,10200 1099.99,799.83 12500.16,800" fill="none" stroke="#ff1744" stroke-width="40" />
<polygon points="8240.01,10200 12500,10200 12500,6490 8240.17,6490.02" fill="rgba(255,193,7,0.25)" stroke="#ff9100" stroke-width="20" />
</svg>