<svg xmlns="http://www.w3.org/2000/svg" width="13000" height="11000" viewBox="0 0 13000 11000">
<text x="500" y="500" fill="#222" font-size="200" font-family="monospace">Dachgeschoss</text>
<polygon points="800,10200 800,800 500,500 500,10500" fill="none" stroke="#2979ff" stroke-width="20" />
<polygon points="685,6000 685,5999.4 685,5997.59 685,5994.59 685,5990.39 685,5985.02 685,5978.47 685,5970.77 685,5961.94 685,5951.99 685,5940.96 685,5928.86 685,5915.73 685,5901.6 685,5886.51 685,5870.48 685,5853.55 685,5835.78 685,5817.2 685,5797.85 685,5777.79 685,5757.05 685,5735.7 685,5713.78 685,5691.34 685,5668.44 685,5645.14 685,5621.49 685,5597.54 685,5573.37 685,5549.01 685,5524.53 685,5500 685,5475.47 685,5450.99 685,5426.63 685,5402.46 685,5378.51 685,5354.86 685,5331.56 685,5308.66 685,5286.22 685,5264.3 685,5242.95 685,5222.21 685,5202.15 685,5182.8 685,5164.22 685,5146.45 685,5129.52 685,5113.49 685,5098.4 685,5084.27 685,5071.14 685,5059.04 685,5048.01 685,5038.06 685,5029.23 685,5021.53 685,5014.98 685,5009.61 685,5005.41 685,5002.41 685,5000.6 685,5000 685,5000.6 685,5002.41 685,5005.41 685,5009.61 685,5014.98 685,5021.53 685,5029.23 685,5038.06 685,5048.01 685,5059.04 685,5071.14 685,5084.27 685,5098.4 685,5113.49 685,5129.52 685,5146.45 685,5164.22 685,5182.8 685,5202.15 685,5222.21 685,5242.95 685,5264.3 685,5286.22 685,5308.66 685,5331.56 685,5354.86 685,5378.51 685,5402.46 685,5426.63 685,5450.99 685,5475.47 685,5500 685,5524.53 685,5549.01 685,5573.37 685,5597.54 685,5621.49 685,5645.14 685,5668.44 685,5691.34 685,5713.78 685,5735.7 685,5757.05 685,5777.79 685,5797.85 685,5817.2 685,5835.78 685,5853.55 685,5870.48 685,5886.51 685,5901.6 685,5915.73 685,5928.86 685,5940.96 685,5951.99 685,5961.94 685,5970.77 685,5978.47 685,5985.02 685,5990.39 685,5994.59 685,5997.59 685,5999.4" fill="#FFFFFF55" stroke="white" stroke-width="20" />
<polygon points="12200,800 12500,500 500,500 800,800" fill="none" stroke="#2979ff" stroke-width="20" />
<polygon points="12500,10500 12500,500 12200,800 12200,10200" fill="none" stroke="#2979ff" stroke-width="20" />
<polygon points="12385,5000 12385,5000.6 12385,5002.41 12385,5005.41 12385,5009.61 12385,5014.98 12385,5021.53 12385,5029.23 12385,5038.06 12385,5048.01 12385,5059.04 12385,5071.14 12385,5084.27 12385,5098.4 12385,5113.49 12385,5129.52 12385,5146.45 12385,5164.22 12385,5182.8 12385,5202.15 12385,5222.21 12385,5242.95 12385,5264.3 12385,5286.22 12385,5308.66 12385,5331.56 12385,5354.86 12385,5378.51 12385,5402.46 12385,5426.63 12385,5450.99 12385,5475.47 12385,5500 12385,5524.53 12385,5549.01 12385,5573.37 12385,5597.54 12385,5621.49 12385,5645.14 12385,5668.44 12385,5691.34 12385,5713.78 12385,5735.7 12385,5757.05 12385,5777.79 12385,5797.85 12385,5817.2 12385,5835.78 12385,5853.55 12385,5870.48 12385,5886.51 12385,5901.6 12385,5915.73 12385,5928.86 12385,5940.96 12385,5951.99 12385,5961.94 12385,5970.77 12385,5978.47 12385,5985.02 12385,5990.39 12385,5994.59 12385,5997.59 12385,5999.4 12385,6000 12385,5999.4 12385,5997.59 12385,5994.59 12385,5990.39 12385,5985.02 12385,5978.47 12385,5970.77 12385,5961.94 12385,5951.99 12385,5940.96 12385,5928.86 12385,5915.73 12385,5901.6 12385,5886.51 12385,5870.48 12385,5853.55 12385,5835.78 12385,5817.2 12385,5797.85 12385,5777.79 12385,5757.05 12385,5735.7 12385,5713.78 12385,5691.34 12385,5668.44 12385,5645.14 12385,5621.49 12385,5597.54 12385,5573.37 12385,5549.01 12385,5524.53 12385,5500 12385,5475.47 12385,5450.99 12385,5426.63 12385,5402.46 12385,5378.51 12385,5354.86 12385,5331.56 12385,5308.66 12385,5286.22 12385,5264.3 12385,5242.95 12385,5222.21 12385,5202.15 12385,5182.8 12385,5164.22 12385,5146.45 12385,5129.52 12385,5113.49 12385,5098.4 12385,5084.27 12385,5071.14 12385,5059.04 12385,5048.01 12385,5038.06 12385,5029.23 12385,5021.53 12385,5014.98 12385,5009.61 12385,5005.41 12385,5002.41 12385,5000.6" fill="#FFFFFF55" stroke="white" stroke-width="20" />
<polygon points="12500,10500 12200,10200 800,10200 500,10500" fill="none" stroke="#2979ff" stroke-width="20" />
<polygon points="600,10400 12400,10400 12400,600 600,600" fill="rgba(0,200,83,0.18)" stroke="#2979ff" stroke-width="20" />
<polygon points="800,10200 800,800 12200,800 12200,10200" fill="none" stroke="#ff1744" stroke-width="40" />
<polygon points="7940.01,10200 12200,10200 12200,6490 7940.17,6490.02" fill="rgba(255,193,7,0.25)" stroke="#ff9100" stroke-width="20" />
<line x1="800" y1="6000" x2="800" y2="5000" stroke="#00b0ff" stroke-width="40" stroke-linecap="round" />
<line x1="12200" y1="5000" x2="12200" y2="6000" stroke="#00b0ff" stroke-width="40" stroke-linecap="round" />
</svg>