<svg xmlns="http://www.w3.org/2000/svg" width="13260" height="11260" viewBox="0 0 13260 11260">
<text x="500" y="500" fill="#222" font-size="200" font-family="monospace">Erdgeschoss</text>
<polygon points="8040,6620 12330,6620 12330,6380 8280,6380" fill="none" stroke="#2979ff" stroke-width="20" />
<polygon points="8040,930 8040,6620 8280,6380 8280,930" fill="none" stroke="#2979ff" stroke-width="20" />
<polygon points="8040,6072.5 8040,5187.5 7800,5187.5 7800,6072.5" fill="#FFFFFF55" stroke="white" stroke-width="20" />
<polygon points="8280,6072.5 8280,5187.5 8040,5187.5 8040,6072.5" fill="#FFFFFF55" stroke="white" stroke-width="20" />
<polygon points="4430,930 4430,4640 4670,4640 4670,930" fill="none" stroke="#2979ff" stroke-width="20" />
<polygon points="930,4880 8040,4880 8040,4640 930,4640" fill="none" stroke="#2979ff" stroke-width="20" />
<polygon points="6732.5,5120 6732.5,4880 5847.5,4880 5847.5,5120" fill="#FFFFFF55" stroke="white" stroke-width="20" />
<polygon points="6732.5,4880 6732.5,4640 5847.5,4640 5847.5,4880" fill="#FFFFFF55" stroke="white" stroke-width="20" />
<polygon points="3122.5,5120 3122.5,4880 2237.5,4880 2237.5,5120" fill="#FFFFFF55" stroke="white" stroke-width="20" />
<polygon points="3122.5,4880 3122.5,4640 2237.5,4640 2237.5,4880" fill="#FFFFFF55" stroke="white" stroke-width="20" />
<polygon points="930,6620 4430,6620 4430,6380 930,6380" fill="none" stroke="#2979ff" stroke-width="20" />
<polygon points="930,10330 930,930 630,630 630,10630" fill="none" stroke="#2979ff" stroke-width="20" />
<polygon points="1100,4135 1100,2135 800,2135 800,4135" fill="#FFFFFF55" stroke="white" stroke-width="20" />
<polygon points="800,4135 800,2135 500,2135 500,4135" fill="#FFFFFF55" stroke="white" stroke-width="20" />
<polygon points="1100,9425 1100,7425 800,7425 800,9425" fill="#FFFFFF55" stroke="white" stroke-width="20" />
<polygon points="800,9425 800,7425 500,7425 500,9425" fill="#FFFFFF55" stroke="white" stroke-width="20" />
<polygon points="1230,6135 1230,5125 930,5125 930,6135" fill="#FFFFFF55" stroke="white" stroke-width="20" />
<polygon points="930,6135 930,5125 630,5125 630,6135" fill="#FFFFFF55" stroke="white" stroke-width="20" />
<polygon points="12330,10330 930,10330 630,10630 12630,10630" fill="none" stroke="#2979ff" stroke-width="20" />
<polygon points="4420,10460 4420,10160 2420,10160 2420,10460" fill="#FFFFFF55" stroke="white" stroke-width="20" />
<polygon points="4420,10760 4420,10460 2420,10460 2420,10760" fill="#FFFFFF55" stroke="white" stroke-width="20" />
<polygon points="10840,10460 10840,10160 8840,10160 8840,10460" fill="#FFFFFF55" stroke="white" stroke-width="20" />
<polygon points="10840,10760 10840,10460 8840,10460 8840,10760" fill="#FFFFFF55" stroke="white" stroke-width="20" />
<polygon points="7635,10330 7635,10030 5625,10030 5625,10330" fill="#FFFFFF55" stroke="white" stroke-width="20" />
<polygon points="7635,10630 7635,10330 5625,10330 5625,10630" fill="#FFFFFF55" stroke="white" stroke-width="20" />
<polygon points="12330,930 12330,10330 12630,10630 12630,630" fill="none" stroke="#2979ff" stroke-width="20" />
<polygon points="12460,4127.61 12460,2127.61 12160,2127.61 12160,4127.61" fill="#FFFFFF55" stroke="white" stroke-width="20" />
<polygon points="12760,4127.61 12760,2127.61 12460,2127.61 12460,4127.61" fill="#FFFFFF55" stroke="white" stroke-width="20" />
<polygon points="12460,9425 12460,7425 12160,7425 12160,9425" fill="#FFFFFF55" stroke="white" stroke-width="20" />
<polygon points="12760,9425 12760,7425 12460,7425 12460,9425" fill="#FFFFFF55" stroke="white" stroke-width="20" />
<polygon points="930,930 12330,930 12630,630 630,630" fill="none" stroke="#2979ff" stroke-width="20" />
<polygon points="3680,1100 3680,800 1680,800 1680,1100" fill="#FFFFFF55" stroke="white" stroke-width="20" />
<polygon points="3680,800 3680,500 1680,500 1680,800" fill="#FFFFFF55" stroke="white" stroke-width="20" />
<polygon points="7290,1100 7290,800 5290,800 5290,1100" fill="#FFFFFF55" stroke="white" stroke-width="20" />
<polygon points="7290,800 7290,500 5290,500 5290,800" fill="#FFFFFF55" stroke="white" stroke-width="20" />
<polygon points="11425,1100 11425,800 9425,800 9425,1100" fill="#FFFFFF55" stroke="white" stroke-width="20" />
<polygon points="11425,800 11425,500 9425,500 9425,800" fill="#FFFFFF55" stroke="white" stroke-width="20" />
<polygon points="630,630 630,10630 12630,10630 12630,630" fill="rgba(0,200,83,0.18)" stroke="#2979ff" stroke-width="20" />
<polygon points="12330,10330.17 929.84,10330 929.99,929.83 12330.16,930" fill="none" stroke="#ff1744" stroke-width="40" />
<line x1="4420" y1="10330.05" x2="2420" y2="10330.03" stroke="#00b0ff" stroke-width="40" stroke-linecap="round" />
<line x1="10840" y1="10330.14" x2="8840" y2="10330.12" stroke="#00b0ff" stroke-width="40" stroke-linecap="round" />
<line x1="7635" y1="10330.1" x2="5625" y2="10330.07" stroke="#d84315" stroke-width="40" stroke-linecap="round" />
<line x1="929.94" y1="4135" x2="929.97" y2="2135" stroke="#00b0ff" stroke-width="40" stroke-linecap="round" />
<line x1="929.85" y1="9425" x2="929.88" y2="7425" stroke="#00b0ff" stroke-width="40" stroke-linecap="round" />
<line x1="929.91" y1="6135" x2="929.92" y2="5125" stroke="#d84315" stroke-width="40" stroke-linecap="round" />
<line x1="1680" y1="929.85" x2="3680" y2="929.87" stroke="#00b0ff" stroke-width="40" stroke-linecap="round" />
<line x1="5290" y1="929.9" x2="7290" y2="929.92" stroke="#00b0ff" stroke-width="40" stroke-linecap="round" />
<line x1="9425" y1="929.96" x2="11425" y2="929.98" stroke="#00b0ff" stroke-width="40" stroke-linecap="round" />
<line x1="12330.14" y1="2127.61" x2="12330.11" y2="4127.61" stroke="#00b0ff" stroke-width="40" stroke-linecap="round" />
<line x1="12330.05" y1="7425" x2="12330.02" y2="9425" stroke="#00b0ff" stroke-width="40" stroke-linecap="round" />
</svg>