<svg xmlns="http://www.w3.org/2000/svg" width="8982.65" height="5685.47" viewBox="0 0 8982.65 5685.47">
<text x="500" y="500" fill="#222" font-size="200" font-family="monospace">Ground floor</text>
<polygon points="790.61,2149.03 790.61,2149.03 688.38,2942.47 688.38,2942.47" fill="#FFFFFF55" stroke="white" stroke-width="20" />
<polygon points="1843.98,4083.2 1843.98,4083.2 2622.04,3897.14 2622.04,3897.14" fill="#FFFFFF55" stroke="white" stroke-width="20" />
<polygon points="6186.97,4982.49 6186.97,4982.49 6979.75,4875.24 6979.75,4875.24" fill="#FFFFFF55" stroke="white" stroke-width="20" />
<polygon points="8415.88,3586.38 8415.88,3586.38 8446.14,2786.96 8446.14,2786.96" fill="#FFFFFF55" stroke="white" stroke-width="20" />
<polygon points="4542.95,529.94 4542.95,529.94 3746.5,605.17 3746.5,605.17" fill="#FFFFFF55" stroke="white" stroke-width="20" />
<polygon points="3072.12,2606.11 3072.12,2606.11 3118.5,1807.45 3118.5,1807.45" fill="#FFFFFF55" stroke="white" stroke-width="20" />
<polygon points="500,4404.56 4491.32,3450.11 4686.55,5185.47 8374.19,4686.55 8482.65,1823.21 4860.09,500 955.53,868.76" fill="rgba(0,200,83,0.18)" stroke="#2979ff" stroke-width="20" />
<polygon points="500,4404.56 4491.32,3450.11 4686.55,5185.47 8374.19,4686.55 8482.65,1823.21 4860.09,500 955.53,868.76" fill="none" stroke="#ff1744" stroke-width="40" />
<line x1="790.59" y1="2149.03" x2="688.37" y2="2942.47" stroke="#00b0ff" stroke-width="40" stroke-linecap="round" />
</svg>