<svg xmlns="http://www.w3.org/2000/svg" width="8982.65" height="5685.5" viewBox="0 0 8982.65 5685.5">
<text x="500" y="500" fill="#222" font-size="200" font-family="monospace">Ground floor</text>
<polygon points="970.81,3880.74 1311.42,1236.97 903.14,1275.53 554.68,3980.24" fill="none" stroke="#2979ff" stroke-width="20" />
<polygon points="1085.1,2993.61 1187.32,2200.16 790.6,2149.05 688.39,2942.5" fill="#FFFFFF55" stroke="white" stroke-width="20" />
<polygon points="1843.98,4083.23 2622.04,3897.16 2529.01,3508.13 1750.95,3694.19" fill="#FFFFFF55" stroke="white" stroke-width="20" />
<polygon points="6186.97,4982.51 6979.74,4875.26 6926.12,4478.87 6133.35,4586.13" fill="#FFFFFF55" stroke="white" stroke-width="20" />
<polygon points="8415.88,3586.41 8446.14,2786.98 8046.43,2771.84 8016.17,3571.27" fill="#FFFFFF55" stroke="white" stroke-width="20" />
<polygon points="3784.11,1003.41 4580.56,928.19 4542.95,529.96 3746.49,605.19" fill="#FFFFFF55" stroke="white" stroke-width="20" />
<polygon points="500.03,4404.6 3002.43,3806.2 2909.4,3417.17 554.7,3980.25" fill="none" stroke="#2979ff" stroke-width="20" />
<polygon points="1085.1,2993.61 1187.32,2200.16 790.6,2149.05 688.39,2942.5" fill="#FFFFFF55" stroke="white" stroke-width="20" />
<polygon points="1843.98,4083.23 2622.04,3897.16 2529.01,3508.13 1750.95,3694.19" fill="#FFFFFF55" stroke="white" stroke-width="20" />
<polygon points="6186.97,4982.51 6979.74,4875.26 6926.12,4478.87 6133.35,4586.13" fill="#FFFFFF55" stroke="white" stroke-width="20" />
<polygon points="8415.88,3586.41 8446.14,2786.98 8046.43,2771.84 8016.17,3571.27" fill="#FFFFFF55" stroke="white" stroke-width="20" />
<polygon points="3784.11,1003.41 4580.56,928.19 4542.95,529.96 3746.49,605.19" fill="#FFFFFF55" stroke="white" stroke-width="20" />
<polygon points="3002.43,3806.2 4629.01,3417.17 4883.31,3356.35 4838.25,2955.84 2909.39,3417.17" fill="none" stroke="#2979ff" stroke-width="20" />
<polygon points="1085.1,2993.61 1187.32,2200.16 790.6,2149.05 688.39,2942.5" fill="#FFFFFF55" stroke="white" stroke-width="20" />
<polygon points="1843.98,4083.23 2622.04,3897.16 2529.01,3508.13 1750.95,3694.19" fill="#FFFFFF55" stroke="white" stroke-width="20" />
<polygon points="6186.97,4982.51 6979.74,4875.26 6926.12,4478.87 6133.35,4586.13" fill="#FFFFFF55" stroke="white" stroke-width="20" />
<polygon points="8415.88,3586.41 8446.14,2786.98 8046.43,2771.84 8016.17,3571.27" fill="#FFFFFF55" stroke="white" stroke-width="20" />
<polygon points="3784.11,1003.41 4580.56,928.19 4542.95,529.96 3746.49,605.19" fill="#FFFFFF55" stroke="white" stroke-width="20" />
<polygon points="4946.21,3915.53 4883.31,3356.35 4491.33,3450.1 4571.63,4163.9" fill="none" stroke="#2979ff" stroke-width="20" />
<polygon points="1085.1,2993.61 1187.32,2200.16 790.6,2149.05 688.39,2942.5" fill="#FFFFFF55" stroke="white" stroke-width="20" />
<polygon points="1843.98,4083.23 2622.04,3897.16 2529.01,3508.13 1750.95,3694.19" fill="#FFFFFF55" stroke="white" stroke-width="20" />
<polygon points="6186.97,4982.51 6979.74,4875.26 6926.12,4478.87 6133.35,4586.13" fill="#FFFFFF55" stroke="white" stroke-width="20" />
<polygon points="8415.88,3586.41 8446.14,2786.98 8046.43,2771.84 8016.17,3571.27" fill="#FFFFFF55" stroke="white" stroke-width="20" />
<polygon points="3784.11,1003.41 4580.56,928.19 4542.95,529.96 3746.49,605.19" fill="#FFFFFF55" stroke="white" stroke-width="20" />
<polygon points="5038.3,4734.27 4946.22,3915.53 4571.63,4163.9 4641.81,4787.91" fill="none" stroke="#2979ff" stroke-width="20" />
<polygon points="1085.1,2993.61 1187.32,2200.16 790.6,2149.05 688.39,2942.5" fill="#FFFFFF55" stroke="white" stroke-width="20" />
<polygon points="1843.98,4083.23 2622.04,3897.16 2529.01,3508.13 1750.95,3694.19" fill="#FFFFFF55" stroke="white" stroke-width="20" />
<polygon points="6186.97,4982.51 6979.74,4875.26 6926.12,4478.87 6133.35,4586.13" fill="#FFFFFF55" stroke="white" stroke-width="20" />
<polygon points="8415.88,3586.41 8446.14,2786.98 8046.43,2771.84 8016.17,3571.27" fill="#FFFFFF55" stroke="white" stroke-width="20" />
<polygon points="3784.11,1003.41 4580.56,928.19 4542.95,529.96 3746.49,605.19" fill="#FFFFFF55" stroke="white" stroke-width="20" />
<polygon points="4686.53,5185.5 8374.19,4686.61 8374.23,4686.6 8389.59,4280.88 8389.55,4280.88 4641.81,4787.91" fill="none" stroke="#2979ff" stroke-width="20" />
<polygon points="1085.1,2993.61 1187.32,2200.16 790.6,2149.05 688.39,2942.5" fill="#FFFFFF55" stroke="white" stroke-width="20" />
<polygon points="1843.98,4083.23 2622.04,3897.16 2529.01,3508.13 1750.95,3694.19" fill="#FFFFFF55" stroke="white" stroke-width="20" />
<polygon points="6186.97,4982.51 6979.74,4875.26 6926.12,4478.87 6133.35,4586.13" fill="#FFFFFF55" stroke="white" stroke-width="20" />
<polygon points="8415.88,3586.41 8446.14,2786.98 8046.43,2771.84 8016.17,3571.27" fill="#FFFFFF55" stroke="white" stroke-width="20" />
<polygon points="3784.11,1003.41 4580.56,928.19 4542.95,529.96 3746.49,605.19" fill="#FFFFFF55" stroke="white" stroke-width="20" />
<polygon points="8389.59,4280.88 8466.73,2243.24 8071.9,2099.02 7987.24,4335.31" fill="none" stroke="#2979ff" stroke-width="20" />
<polygon points="1085.1,2993.61 1187.32,2200.16 790.6,2149.05 688.39,2942.5" fill="#FFFFFF55" stroke="white" stroke-width="20" />
<polygon points="1843.98,4083.23 2622.04,3897.16 2529.01,3508.13 1750.95,3694.19" fill="#FFFFFF55" stroke="white" stroke-width="20" />
<polygon points="6186.97,4982.51 6979.74,4875.26 6926.12,4478.87 6133.35,4586.13" fill="#FFFFFF55" stroke="white" stroke-width="20" />
<polygon points="8415.88,3586.41 8446.14,2786.98 8046.43,2771.84 8016.17,3571.27" fill="#FFFFFF55" stroke="white" stroke-width="20" />
<polygon points="3784.11,1003.41 4580.56,928.19 4542.95,529.96 3746.49,605.19" fill="#FFFFFF55" stroke="white" stroke-width="20" />
<polygon points="8482.63,1823.2 6228.83,999.9 6091.58,1375.62 8466.73,2243.24" fill="none" stroke="#2979ff" stroke-width="20" />
<polygon points="1085.1,2993.61 1187.32,2200.16 790.6,2149.05 688.39,2942.5" fill="#FFFFFF55" stroke="white" stroke-width="20" />
<polygon points="1843.98,4083.23 2622.04,3897.16 2529.01,3508.13 1750.95,3694.19" fill="#FFFFFF55" stroke="white" stroke-width="20" />
<polygon points="6186.97,4982.51 6979.74,4875.26 6926.12,4478.87 6133.35,4586.13" fill="#FFFFFF55" stroke="white" stroke-width="20" />
<polygon points="8415.88,3586.41 8446.14,2786.98 8046.43,2771.84 8016.17,3571.27" fill="#FFFFFF55" stroke="white" stroke-width="20" />
<polygon points="3784.11,1003.41 4580.56,928.19 4542.95,529.96 3746.49,605.19" fill="#FFFFFF55" stroke="white" stroke-width="20" />
<polygon points="6228.83,999.9 4860.13,500 4807.78,906.73 6091.6,1375.63" fill="none" stroke="#2979ff" stroke-width="20" />
<polygon points="1085.1,2993.61 1187.32,2200.16 790.6,2149.05 688.39,2942.5" fill="#FFFFFF55" stroke="white" stroke-width="20" />
<polygon points="1843.98,4083.23 2622.04,3897.16 2529.01,3508.13 1750.95,3694.19" fill="#FFFFFF55" stroke="white" stroke-width="20" />
<polygon points="6186.97,4982.51 6979.74,4875.26 6926.12,4478.87 6133.35,4586.13" fill="#FFFFFF55" stroke="white" stroke-width="20" />
<polygon points="8415.88,3586.41 8446.14,2786.98 8046.43,2771.84 8016.17,3571.27" fill="#FFFFFF55" stroke="white" stroke-width="20" />
<polygon points="3784.11,1003.41 4580.56,928.19 4542.95,529.96 3746.49,605.19" fill="#FFFFFF55" stroke="white" stroke-width="20" />
<polygon points="3161.79,1062.2 4807.78,906.73 4860.13,500 3185.25,658.2 3185.23,658.2 3161.77,1062.2" fill="none" stroke="#2979ff" stroke-width="20" />
<polygon points="1085.1,2993.61 1187.32,2200.16 790.6,2149.05 688.39,2942.5" fill="#FFFFFF55" stroke="white" stroke-width="20" />
<polygon points="1843.98,4083.23 2622.04,3897.16 2529.01,3508.13 1750.95,3694.19" fill="#FFFFFF55" stroke="white" stroke-width="20" />
<polygon points="6186.97,4982.51 6979.74,4875.26 6926.12,4478.87 6133.35,4586.13" fill="#FFFFFF55" stroke="white" stroke-width="20" />
<polygon points="8415.88,3586.41 8446.14,2786.98 8046.43,2771.84 8016.17,3571.27" fill="#FFFFFF55" stroke="white" stroke-width="20" />
<polygon points="3784.11,1003.41 4580.56,928.19 4542.95,529.96 3746.49,605.19" fill="#FFFFFF55" stroke="white" stroke-width="20" />
<polygon points="903.14,1275.53 3161.77,1062.2 3185.23,658.2 955.53,868.8" fill="none" stroke="#2979ff" stroke-width="20" />
<polygon points="1085.1,2993.61 1187.32,2200.16 790.6,2149.05 688.39,2942.5" fill="#FFFFFF55" stroke="white" stroke-width="20" />
<polygon points="1843.98,4083.23 2622.04,3897.16 2529.01,3508.13 1750.95,3694.19" fill="#FFFFFF55" stroke="white" stroke-width="20" />
<polygon points="6186.97,4982.51 6979.74,4875.26 6926.12,4478.87 6133.35,4586.13" fill="#FFFFFF55" stroke="white" stroke-width="20" />
<polygon points="8415.88,3586.41 8446.14,2786.98 8046.43,2771.84 8016.17,3571.27" fill="#FFFFFF55" stroke="white" stroke-width="20" />
<polygon points="3784.11,1003.41 4580.56,928.19 4542.95,529.96 3746.49,605.19" fill="#FFFFFF55" stroke="white" stroke-width="20" />
<polygon points="3026.64,3389.13 3161.78,1062.2 2960.33,1081.23 2823.49,3437.71" fill="none" stroke="#2979ff" stroke-width="20" />
<polygon points="3072.11,2606.13 3118.49,1807.48 2918.83,1795.88 2872.46,2594.53" fill="#FFFFFF55" stroke="white" stroke-width="20" />
<polygon points="4946.2,3915.52 6335.14,2994.62 6322.79,2762.84 4921.08,3692.2" fill="none" stroke="#2979ff" stroke-width="20" />
<polygon points="6322.78,2762.82 6251.98,1434.21 6047.71,1359.59 6129.33,2891.09" fill="none" stroke="#2979ff" stroke-width="20" />
<polygon points="500,4404.58 4491.32,3450.13 4686.55,5185.49 8374.19,4686.57 8482.65,1823.23 4860.09,500.02 955.53,868.79" fill="rgba(0,200,83,0.18)" stroke="#2979ff" stroke-width="20" />
<polygon points="5038.28,4734.15 4837.82,2955.73 970.97,3881.03 1311.5,1236.67 4808.08,907.04 8071.99,2098.83 7986.96,4335.51" fill="none" stroke="#ff1744" stroke-width="40" />
<line x1="2529.03" y1="3508.2" x2="1750.93" y2="3694.39" stroke="#d84315" stroke-width="40" stroke-linecap="round" />
<line x1="1085.24" y1="2993.63" x2="1187.42" y2="2200.16" stroke="#00b0ff" stroke-width="40" stroke-linecap="round" />
<line x1="3784.05" y1="1003.58" x2="4580.59" y2="928.49" stroke="#00b0ff" stroke-width="40" stroke-linecap="round" />
<line x1="8046.41" y1="2771.78" x2="8016.01" y2="3571.27" stroke="#00b0ff" stroke-width="40" stroke-linecap="round" />
<line x1="6926.16" y1="4478.92" x2="6133.34" y2="4586.11" stroke="#d84315" stroke-width="40" stroke-linecap="round" />
</svg>