<svg xmlns="http://www.w3.org/2000/svg" width="36416.77" height="31489.66" viewBox="0 0 36416.77 31489.66">
<text x="500" y="500" fill="#222" font-size="200" font-family="monospace">Grond floor</text>
<polygon points="9571.75,4400.32 7060.11,6911.97 7246.79,7098.64 9758.43,4587" fill="none" stroke="#2979ff" stroke-width="20" />
<polygon points="29048.36,15933.2 29303.38,16001.47 30746.15,10612.2 30490.71,10545.52 30422.44,10800.54 30031.12,12262.25 30010.69,12338.56 29489.73,14284.53 29469.3,14360.84 29116.63,15678.18" fill="none" stroke="#2979ff" stroke-width="20" />
<polygon points="29116.63,15678.18 27767.03,15316.88 27690.71,15296.44 26801.04,15058.27 26724.73,15037.84 25835.06,14799.66 25758.75,14779.23 24870.71,14541.49 24556.06,14730.56 29048.36,15933.2" fill="none" stroke="#2979ff" stroke-width="20" />
<polygon points="25569.67,14728.53 24833.54,14531.63 24765.32,14786.67 25501.45,14983.56" fill="#FFFFFF55" stroke="white" stroke-width="20" />
<polygon points="24166.59,14656.58 24302.56,14882.87 24556.06,14730.56 24823.31,14569.98 24833.59,14531.56 24639.63,14479.63 24516.11,14446.57 24506.69,14452.23" fill="none" stroke="#2979ff" stroke-width="20" />
<polygon points="25501.4,14983.64 25569.67,14728.62 24833.59,14531.56 24765.32,14786.58" fill="#FFFFFF55" stroke="white" stroke-width="20" />
<polygon points="20626.06,20659.5 20881.37,20726.69 22054.28,16233.77 22045.18,16239.24 21796.29,16176.87 21299.25,18080.79 21265.02,18211.9 20692.74,20404.06" fill="none" stroke="#2979ff" stroke-width="20" />
<polygon points="14568.87,14047.37 14522.29,14000.79 14413.62,14109.47 14382.36,14234.21 13322.27,18464.24 13453.32,18498.73 13982.57,16386.85 14015.51,16255.41 14493.83,14346.8 14526.77,14215.36" fill="none" stroke="#2979ff" stroke-width="20" />
<polygon points="14335.61,14187.47 14522.29,14000.79 13875.29,13353.79 13688.61,13540.47" fill="#FFFFFF55" stroke="white" stroke-width="20" />
<polygon points="14457.17,13935.68 11761.44,11239.95 11705.58,11184.08 10630.07,10108.57 10574.21,10052.71 9498.7,8977.2 9442.84,8921.34 8324.07,7802.57 8268.21,7746.71 7433.46,6911.97 7259.51,7085.92 7246.79,7098.64 8817.98,8669.83 9004.65,8856.51 14382.36,14234.21" fill="none" stroke="#2979ff" stroke-width="20" />
<polygon points="14522.29,14000.79 13875.29,13353.79 13688.61,13540.47 14335.61,14187.47" fill="#FFFFFF55" stroke="white" stroke-width="20" />
<polygon points="25806.87,9595.61 24506.69,14452.23 24516.11,14446.57 24639.63,14479.63 25323.05,11926.8 25343.48,11850.49 25710.96,10477.83 25731.39,10401.51 25937.98,9629.83" fill="none" stroke="#2979ff" stroke-width="20" />
<polygon points="25501.39,14983.64 25569.67,14728.62 24833.59,14531.56 24765.32,14786.58" fill="#FFFFFF55" stroke="white" stroke-width="20" />
<polygon points="25064.54,12892.79 25271.25,12119.96 25140.35,12084.95 24933.64,12857.78" fill="#FFFFFF55" stroke="white" stroke-width="20" />
<polygon points="21683.46,16148.59 21796.29,16176.87 22045.18,16239.24 22054.28,16233.77 22588.22,15912.95 22452.25,15686.66 21847.52,16050.02" fill="none" stroke="#2979ff" stroke-width="20" />
<polygon points="17458.12,7337.06 17526.39,7082.04 16385.71,6776.66 15875.87,6640.17 16074.42,6838.73 16225.74,6990.05 16249.08,7013.38" fill="none" stroke="#2979ff" stroke-width="20" />
<polygon points="20692.74,20404.05 12252.2,18182.61 12185.01,18437.91 20626.06,20659.5" fill="none" stroke="#2979ff" stroke-width="20" />
<polygon points="17942.74,19680.29 16393.88,19272.65 16326.69,19527.95 17875.54,19935.59" fill="#FFFFFF55" stroke="white" stroke-width="20" />
<polygon points="15466.73,19028.63 13992.92,18640.74 13925.72,18896.04 15399.54,19283.94" fill="#FFFFFF55" stroke="white" stroke-width="20" />
<polygon points="20325.28,20307.34 18851.46,19919.45 18784.28,20174.76 20258.08,20562.65" fill="#FFFFFF55" stroke="white" stroke-width="20" />
<polygon points="21847.52,16050.02 14526.77,14215.36 14493.83,14346.8 21683.46,16148.59 21826.03,16062.93" fill="none" stroke="#2979ff" stroke-width="20" />
<polygon points="17377.82,15179.91 17246.38,15146.97 17048.75,15935.58 17180.18,15968.52" fill="#FFFFFF55" stroke="white" stroke-width="20" />
<polygon points="19158.45,15648.68 19027.01,15615.74 18829.38,16404.36 18960.81,16437.29" fill="#FFFFFF55" stroke="white" stroke-width="20" />
<polygon points="14522.29,14000.79 13875.29,13353.79 13688.61,13540.47 14335.61,14187.47" fill="#FFFFFF55" stroke="white" stroke-width="20" />
<polygon points="18982.57,15332.04 17527.57,14967.4 17494.63,15098.83 18949.64,15463.47" fill="#FFFFFF55" stroke="white" stroke-width="20" />
<polygon points="16354.72,19262.34 17403.84,15076.08 17272.4,15043.14 16794.09,16951.75 16761.15,17083.19 16223.67,19227.85" fill="none" stroke="#2979ff" stroke-width="20" />
<polygon points="17180.18,15968.52 17377.82,15179.91 17246.38,15146.97 17048.75,15935.58" fill="#FFFFFF55" stroke="white" stroke-width="20" />
<polygon points="16658.24,18051.21 16855.88,17262.6 16724.44,17229.65 16526.81,18018.27" fill="#FFFFFF55" stroke="white" stroke-width="20" />
<polygon points="16794.09,16951.75 14015.51,16255.41 13982.57,16386.85 16761.15,17083.19" fill="none" stroke="#2979ff" stroke-width="20" />
<polygon points="19058.34,15490.71 18401.23,18112.76 18532.67,18145.7 19189.78,15523.65" fill="none" stroke="#2979ff" stroke-width="20" />
<polygon points="18960.81,16437.29 19158.45,15648.68 19027.01,15615.74 18829.38,16404.36" fill="#FFFFFF55" stroke="white" stroke-width="20" />
<polygon points="21265.02,18211.9 21299.25,18080.79 18711.46,17432.27 18678.52,17563.7" fill="none" stroke="#2979ff" stroke-width="20" />
<polygon points="26850.51,10701.12 25731.39,10401.51 25710.96,10477.83 26830.08,10777.43" fill="none" stroke="#2979ff" stroke-width="20" />
<polygon points="26462.6,12150.09 25343.48,11850.49 25323.05,11926.8 26442.17,12226.4" fill="none" stroke="#2979ff" stroke-width="20" />
<polygon points="25835.06,14799.66 26187.73,13482.33 26208.16,13406.01 27135.4,9942.43 27058.96,9922.48 26850.51,10701.12 26830.08,10777.43 26462.6,12150.09 26442.17,12226.4 25758.75,14779.23" fill="none" stroke="#2979ff" stroke-width="20" />
<polygon points="26270.31,13174.19 26477.02,12401.36 26400.71,12380.94 26193.99,13153.78" fill="#FFFFFF55" stroke="white" stroke-width="20" />
<polygon points="26554.25,12113.54 26751.15,11377.42 26674.83,11357.01 26477.93,12093.13" fill="#FFFFFF55" stroke="white" stroke-width="20" />
<polygon points="26952.86,10624.52 27110.38,10035.62 27034.07,10015.21 26876.55,10604.11" fill="#FFFFFF55" stroke="white" stroke-width="20" />
<polygon points="28384.35,12705.46 28460.66,12725.89 28661.08,11977.25 28681.51,11900.94 29070.58,10447.63 28994.14,10427.67" fill="none" stroke="#2979ff" stroke-width="20" />
<polygon points="26801.04,15058.27 27153.71,13740.93 27077.4,13720.5 26724.73,15037.84" fill="none" stroke="#2979ff" stroke-width="20" />
<polygon points="27767.02,15316.87 28119.69,13999.54 28043.38,13979.11 27690.71,15296.44" fill="none" stroke="#2979ff" stroke-width="20" />
<polygon points="26187.73,13482.33 29469.3,14360.84 29489.73,14284.53 26208.16,13406.01" fill="none" stroke="#2979ff" stroke-width="20" />
<polygon points="29192.64,14204.9 28419.81,13998.19 28399.39,14074.51 29172.23,14281.22" fill="#FFFFFF55" stroke="white" stroke-width="20" />
<polygon points="28005.39,13887.06 27232.55,13680.35 27212.14,13756.66 27984.97,13963.38" fill="#FFFFFF55" stroke="white" stroke-width="20" />
<polygon points="27039.4,13628.46 26266.57,13421.74 26246.15,13498.06 27018.99,13704.77" fill="#FFFFFF55" stroke="white" stroke-width="20" />
<polygon points="30031.12,12262.25 28681.51,11900.94 28661.08,11977.25 30010.69,12338.56" fill="none" stroke="#2979ff" stroke-width="20" />
<polygon points="29734.03,12182.62 28961.2,11975.9 28940.79,12052.22 29713.62,12258.94" fill="#FFFFFF55" stroke="white" stroke-width="20" />
<polygon points="11977.24,2368.19 11790.56,2554.87 15875.87,6640.17 16385.71,6776.66" fill="none" stroke="#2979ff" stroke-width="20" />
<polygon points="15157.45,9986.02 9758.43,4587 9607.11,4738.32 15006.13,10137.34" fill="none" stroke="#2979ff" stroke-width="20" />
<polygon points="16061.7,6851.45 14042.29,8870.86 14193.61,9022.18 16213.02,7002.78" fill="none" stroke="#2979ff" stroke-width="20" />
<polygon points="15561.33,7654.46 16136.21,7079.58 15984.89,6928.26 15410.01,7503.14" fill="#FFFFFF55" stroke="white" stroke-width="20" />
<polygon points="15561.33,7654.46 16136.21,7079.58 15984.89,6928.26 15410.01,7503.14" fill="#FFFFFF55" stroke="white" stroke-width="20" />
<polygon points="15561.33,7654.46 16136.21,7079.58 15984.89,6928.26 15410.01,7503.14" fill="#FFFFFF55" stroke="white" stroke-width="20" />
<polygon points="16369.43,9076.68 15254.27,7961.52 15102.95,8112.84 16218.11,9228" fill="none" stroke="#2979ff" stroke-width="20" />
<polygon points="16160.46,8867.7 15311.93,8019.18 15160.61,8170.5 16009.14,9019.02" fill="#FFFFFF55" stroke="white" stroke-width="20" />
<polygon points="16160.46,8867.7 15311.93,8019.18 15160.61,8170.5 16009.14,9019.02" fill="#FFFFFF55" stroke="white" stroke-width="20" />
<polygon points="16160.46,8867.7 15311.93,8019.18 15160.61,8170.5 16009.14,9019.02" fill="#FFFFFF55" stroke="white" stroke-width="20" />
<polygon points="12996.53,12449.58 16218.11,9228 16066.79,9076.68 12845.21,12298.26" fill="none" stroke="#2979ff" stroke-width="20" />
<polygon points="14539.61,10906.5 15114.5,10331.62 14963.17,10180.29 14388.29,10755.18" fill="#FFFFFF55" stroke="white" stroke-width="20" />
<polygon points="14539.61,10906.5 15114.5,10331.62 14963.17,10180.29 14388.29,10755.18" fill="#FFFFFF55" stroke="white" stroke-width="20" />
<polygon points="14539.61,10906.5 15114.5,10331.62 14963.17,10180.29 14388.29,10755.18" fill="#FFFFFF55" stroke="white" stroke-width="20" />
<polygon points="8336.79,7789.84 10497.71,5628.92 10441.85,5573.06 8280.93,7733.98" fill="none" stroke="#2979ff" stroke-width="20" />
<polygon points="10023.71,6102.94 10454.75,5671.88 10398.89,5616.02 9967.84,6047.08" fill="#FFFFFF55" stroke="white" stroke-width="20" />
<polygon points="10023.71,6102.94 10454.75,5671.88 10398.89,5616.02 9967.84,6047.08" fill="#FFFFFF55" stroke="white" stroke-width="20" />
<polygon points="10023.71,6102.94 10454.75,5671.88 10398.89,5616.02 9967.84,6047.08" fill="#FFFFFF55" stroke="white" stroke-width="20" />
<polygon points="9609.56,6517.07 14117.98,11025.49 14173.84,10969.63 9665.43,6461.21" fill="none" stroke="#2979ff" stroke-width="20" />
<polygon points="14108.08,10903.87 13677.03,10472.82 13621.17,10528.68 14052.21,10959.72" fill="#FFFFFF55" stroke="white" stroke-width="20" />
<polygon points="10167.19,6962.97 9736.14,6531.92 9680.28,6587.79 10111.32,7018.83" fill="#FFFFFF55" stroke="white" stroke-width="20" />
<polygon points="14108.08,10903.87 13677.03,10472.82 13621.17,10528.68 14052.21,10959.72" fill="#FFFFFF55" stroke="white" stroke-width="20" />
<polygon points="10167.19,6962.97 9736.14,6531.92 9680.28,6587.79 10111.32,7018.83" fill="#FFFFFF55" stroke="white" stroke-width="20" />
<polygon points="10981,7776.79 10415.31,7211.1 10359.45,7266.96 10925.14,7832.65" fill="#FFFFFF55" stroke="white" stroke-width="20" />
<polygon points="14108.08,10903.87 13677.03,10472.82 13621.17,10528.68 14052.21,10959.72" fill="#FFFFFF55" stroke="white" stroke-width="20" />
<polygon points="10167.19,6962.97 9736.14,6531.92 9680.28,6587.79 10111.32,7018.83" fill="#FFFFFF55" stroke="white" stroke-width="20" />
<polygon points="10630.07,10108.57 11915.57,8823.08 11859.71,8767.22 10574.21,10052.71" fill="none" stroke="#2979ff" stroke-width="20" />
<polygon points="22645.59,8497.48 22578.91,8752.92 25806.87,9595.61 25937.98,9629.83 27058.96,9922.48 27135.4,9942.43 28994.14,10427.67 29070.58,10447.63 30422.44,10800.54 30490.71,10545.52" fill="none" stroke="#2979ff" stroke-width="20" />
<polygon points="11636.41,2709.02 11977.24,2368.19 11790.56,2181.51 11449.74,2522.34" fill="none" stroke="#2979ff" stroke-width="20" />
<polygon points="7564.82,17234.13 7632.01,16978.83 6731.9,16741.93 6471.42,16673.38 6455.87,16942.27" fill="none" stroke="#2979ff" stroke-width="20" />
<polygon points="6471.42,16673.38 6731.9,16741.93 6780.48,15902.08 6516.92,15886.83" fill="none" stroke="#2979ff" stroke-width="20" />
<polygon points="6831.52,10656.29 6808.59,11052.57 7089.27,10771.89 9004.65,8856.51 8817.98,8669.83" fill="none" stroke="#2979ff" stroke-width="20" />
<polygon points="6754.13,11994.03 7017.69,12009.28 7089.27,10771.89 6808.59,11052.57" fill="none" stroke="#2979ff" stroke-width="20" />
<polygon points="9498.7,8977.2 10784.2,7691.71 10728.33,7635.84 9442.84,8921.34" fill="none" stroke="#2979ff" stroke-width="20" />
<polygon points="10263.25,8212.65 10694.3,7781.6 10638.44,7725.74 10207.39,8156.79" fill="#FFFFFF55" stroke="white" stroke-width="20" />
<polygon points="9582.14,8893.76 10013.19,8462.71 9957.33,8406.85 9526.28,8837.9" fill="#FFFFFF55" stroke="white" stroke-width="20" />
<polygon points="10263.25,8212.65 10694.3,7781.6 10638.44,7725.74 10207.39,8156.79" fill="#FFFFFF55" stroke="white" stroke-width="20" />
<polygon points="9582.14,8893.76 10013.19,8462.71 9957.33,8406.85 9526.28,8837.9" fill="#FFFFFF55" stroke="white" stroke-width="20" />
<polygon points="10263.25,8212.65 10694.3,7781.6 10638.44,7725.74 10207.39,8156.79" fill="#FFFFFF55" stroke="white" stroke-width="20" />
<polygon points="9582.14,8893.76 10013.19,8462.71 9957.33,8406.85 9526.28,8837.9" fill="#FFFFFF55" stroke="white" stroke-width="20" />
<polygon points="11761.44,11239.94 13046.94,9954.45 12991.08,9898.59 11705.58,11184.08" fill="none" stroke="#2979ff" stroke-width="20" />
<polygon points="12545.18,10456.21 12976.23,10025.16 12920.36,9969.29 12489.32,10400.35" fill="#FFFFFF55" stroke="white" stroke-width="20" />
<polygon points="11897.65,11103.73 12328.71,10672.68 12272.85,10616.82 11841.79,11047.87" fill="#FFFFFF55" stroke="white" stroke-width="20" />
<polygon points="12545.18,10456.21 12976.23,10025.16 12920.36,9969.29 12489.32,10400.35" fill="#FFFFFF55" stroke="white" stroke-width="20" />
<polygon points="11897.65,11103.73 12328.71,10672.68 12272.85,10616.82 11841.79,11047.87" fill="#FFFFFF55" stroke="white" stroke-width="20" />
<polygon points="12545.18,10456.21 12976.23,10025.16 12920.36,9969.29 12489.32,10400.35" fill="#FFFFFF55" stroke="white" stroke-width="20" />
<polygon points="11897.65,11103.73 12328.71,10672.68 12272.85,10616.82 11841.79,11047.87" fill="#FFFFFF55" stroke="white" stroke-width="20" />
<polygon points="10136.67,8339.23 12343.56,10546.11 12399.42,10490.25 10192.54,8283.37" fill="none" stroke="#2979ff" stroke-width="20" />
<polygon points="11268.04,9470.6 11323.91,9414.74 11268.04,9358.87 11212.18,9414.74" fill="#FFFFFF55" stroke="white" stroke-width="20" />
<polygon points="1550.48,15776.95 5519.2,16771.55 6933.88,500 14594.42,3125.33 15444.89,2274.85 17677.88,4507.84 24865.72,6432.12 35916.77,10219.4 32307.7,30989.66 500,22685.97 1361.51,18016.14" fill="rgba(0,200,83,0.18)" stroke="#2979ff" stroke-width="20" />
<polygon points="21606.96,11590.27 20944.89,14232.11 15642.11,12903.18 17887.22,10658.07" fill="rgba(0,200,83,0.18)" stroke="#2979ff" stroke-width="20" />
<polygon points="32267.75,30927.54 557.62,22649.33 1411.13,18022.74 1595.36,15839.74 5563.93,16834.31 6978.15,568.03 14607.71,3182.74 15444.89,2345.58 17652.02,4552.68 24851.12,6479.97 35860.19,10252.85" fill="none" stroke="#ff1744" stroke-width="40" />
<polygon points="23631.47,17057.05 28337.85,18285.69 25783.82,27825.86 21136.88,26612.74" fill="rgba(255,193,7,0.25)" stroke="#ff9100" stroke-width="20" />
<polygon points="20879.1,12026.42 20508.74,13504.25 16815.2,12578.61 18071.11,11322.71" fill="rgba(255,193,7,0.25)" stroke="#ff9100" stroke-width="20" />
</svg>