<svg xmlns="http://www.w3.org/2000/svg" width="25283.76" height="21184.74" viewBox="0 0 25283.76 21184.74">
<text x="500" y="500" fill="#222" font-size="200" font-family="monospace">First floor</text>
<polygon points="21016.2,7914.85 16680.24,6754.06 16611.97,7009.08 20947.92,8169.87" fill="none" stroke="#2979ff" stroke-width="20" />
<polygon points="8591.85,12532.37 8335.76,12468.19 8329.66,12492.53 7229.23,16880.21 7485.3,16944.43 8558.88,12663.8" fill="none" stroke="#2979ff" stroke-width="20" />
<polygon points="17958.84,14879.83 8793.35,12582.87 8591.85,12532.37 8558.88,12663.8 17923.79,15010.74" fill="none" stroke="#2979ff" stroke-width="20" />
<polygon points="16274.38,14457.68 15386.83,14235.25 15353.89,14366.69 16241.45,14589.12" fill="#FFFFFF55" stroke="white" stroke-width="20" />
<polygon points="13024.88,13643.33 12137.32,13420.9 12104.38,13552.33 12991.94,13774.76" fill="#FFFFFF55" stroke="white" stroke-width="20" />
<polygon points="11811.88,13339.34 10924.34,13116.91 10891.39,13248.35 11778.95,13470.78" fill="#FFFFFF55" stroke="white" stroke-width="20" />
<polygon points="14051.58,18591.25 14183.01,18624.21 15256.88,14342.38 15125.45,14309.44" fill="none" stroke="#2979ff" stroke-width="20" />
<polygon points="10802.21,17776.31 10933.64,17809.27 12007.37,13528.02 11875.94,13495.08" fill="none" stroke="#2979ff" stroke-width="20" />
<polygon points="21310.15,20331.06 21245.93,20587.13 21635.11,20684.74 21703.39,20429.68 21447.29,20365.46" fill="none" stroke="#2979ff" stroke-width="20" />
<polygon points="1279.72,5391.67 6830.06,10942.01 7016.73,10755.34 1466.39,5205" fill="none" stroke="#2979ff" stroke-width="20" />
<polygon points="5984.71,686.68 5810.76,860.62 5798.04,873.35 9861.31,4936.62 9896.07,4945.93 10371.15,5073.11" fill="none" stroke="#2979ff" stroke-width="20" />
<polygon points="22093.04,18974.23 21838.02,18905.96 21447.29,20365.46 21703.39,20429.69" fill="none" stroke="#2979ff" stroke-width="20" />
<polygon points="23192.13,14065.26 18643.21,12847.46 18608.16,12978.35 23157.09,14196.16" fill="none" stroke="#2979ff" stroke-width="20" />
<polygon points="16912.81,19311.06 19965.84,7906.95 19834.95,7871.91 16781.92,19276.02" fill="none" stroke="#2979ff" stroke-width="20" />
<polygon points="18345.78,13958.83 18582.21,13074.9 18451.31,13039.89 18214.88,13923.82" fill="#FFFFFF55" stroke="white" stroke-width="20" />
<polygon points="18669.17,12750.86 18905.6,11866.94 18774.7,11831.93 18538.27,12715.86" fill="#FFFFFF55" stroke="white" stroke-width="20" />
<polygon points="12716.86,9963.57 18836.4,11601.85 18871.44,11470.96 12751.9,9832.68" fill="none" stroke="#2979ff" stroke-width="20" />
<polygon points="18774.85,11445 17890.92,11208.57 17855.92,11339.47 18739.84,11575.9" fill="#FFFFFF55" stroke="white" stroke-width="20" />
<polygon points="12882.8,9867.72 13878.43,6148.7 13747.54,6113.66 12751.91,9832.68" fill="none" stroke="#2979ff" stroke-width="20" />
<polygon points="24783.52,8923.41 24155.64,8755.32 24087.37,9010.34 24715.25,9178.43" fill="none" stroke="#2979ff" stroke-width="20" />
<polygon points="24460.22,9110.16 24365.06,9465.64 24620.08,9533.91 24715.24,9178.43" fill="none" stroke="#2979ff" stroke-width="20" />
<polygon points="6991.28,10780.79 6830.06,10942.01 6804.6,10967.47 8329.66,12492.53 8335.76,12468.19 8591.85,12532.37 8793.35,12582.87" fill="none" stroke="#2979ff" stroke-width="20" />
<polygon points="9520.31,13094.31 7094.09,10668.08 6691.88,11070.28 9118.12,13496.51" fill="#FFFFFF55" stroke="white" stroke-width="20" />
<polygon points="9606.51,722.03 11698.08,2813.59 18692.72,4686.15 18885.92,4737.88 18237.38,7160.37 10405.91,5082.42 7684.6,2361.1 9465.09,580.61" fill="rgba(0,200,83,0.18)" stroke="#2979ff" stroke-width="20" />
<polygon points="1093.04,5205 5798.04,500 10360.11,5062.07 24783.76,8923.48 21635.11,20684.74 21245.93,20587.13 1581.84,15602.97 500,15254.33 851.72,8962.05 2850.91,6962.86" fill="rgba(0,200,83,0.18)" stroke="#2979ff" stroke-width="20" />
<polygon points="21599.56,20624.13 1595.61,15554.88 552.07,15218.57 900.57,8983.91 2921.62,6962.86 1163.76,5205 5798.05,570.72 10334.26,5106.92 10562.12,5167.91 7755.33,2361.11 9465.11,651.33 11672.22,2858.44 18824.68,4773.24 18173.58,7205.39 24722.52,8958.84" fill="none" stroke="#ff1744" stroke-width="40" />
<polygon points="9465.09,863.45 9394.38,934.16 11542.81,3082.59 18615.14,4975.95 18641,4879.35 11594.56,2992.93" fill="rgba(255,193,7,0.25)" stroke="#ff9100" stroke-width="20" />
<polygon points="9323.67,1004.87 9252.96,1075.58 11439.3,3261.92 18563.42,5169.15 18589.28,5072.55 11491.05,3172.26" fill="rgba(255,193,7,0.25)" stroke="#ff9100" stroke-width="20" />
<polygon points="9182.25,1146.29 9111.54,1217.01 11335.79,3441.25 18511.7,5362.34 18537.56,5265.74 11387.54,3351.59" fill="rgba(255,193,7,0.25)" stroke="#ff9100" stroke-width="20" />
<polygon points="11284.03,3530.92 9040.83,1287.72 8970.12,1358.43 11232.28,3620.59 18459.98,5555.54 18485.84,5458.94" fill="rgba(255,193,7,0.25)" stroke="#ff9100" stroke-width="20" />
<polygon points="8899.41,1429.14 8828.7,1499.85 11128.77,3799.92 18408.25,5748.74 18434.12,5652.14 11180.52,3710.25" fill="rgba(255,193,7,0.25)" stroke="#ff9100" stroke-width="20" />
<polygon points="7980.17,2348.38 8050.88,2277.67 10559.46,4786.24 18123.79,6811.32 18097.93,6907.91 10507.7,4875.91" fill="rgba(255,193,7,0.25)" stroke="#ff9100" stroke-width="20" />
<polygon points="8121.59,2206.95 8192.3,2136.24 10662.97,4606.91 18175.51,6618.12 18149.65,6714.72 10611.21,4696.58" fill="rgba(255,193,7,0.25)" stroke="#ff9100" stroke-width="20" />
<polygon points="8263.01,2065.53 8333.72,1994.82 10766.48,4427.58 18227.23,6424.92 18201.37,6521.52 10714.72,4517.24" fill="rgba(255,193,7,0.25)" stroke="#ff9100" stroke-width="20" />
<polygon points="8404.43,1924.11 8475.14,1853.4 10869.99,4248.25 18278.95,6231.73 18253.09,6328.32 10818.23,4337.91" fill="rgba(255,193,7,0.25)" stroke="#ff9100" stroke-width="20" />
<polygon points="8545.85,1782.69 8616.56,1711.98 10973.5,4068.92 18330.67,6038.53 18304.81,6135.13 10921.74,4158.58" fill="rgba(255,193,7,0.25)" stroke="#ff9100" stroke-width="20" />
<polygon points="8687.27,1641.27 8757.98,1570.56 11077.01,3889.58 18382.39,5845.33 18356.53,5941.93 11025.25,3979.25" fill="rgba(255,193,7,0.25)" stroke="#ff9100" stroke-width="20" />
<polygon points="9123.15,6418.6 10086.99,7382.44 9177.65,8291.78 8213.81,7327.94" fill="rgba(255,193,7,0.25)" stroke="#ff9100" stroke-width="20" />
<polygon points="5801.58,876.9 3782.18,2896.3 6829.53,5943.65 8848.93,3924.25" fill="rgba(255,193,7,0.25)" stroke="#ff9100" stroke-width="20" />
</svg>