<svg xmlns="http://www.w3.org/2000/svg" width="25275.57" height="21088.85" viewBox="0 0 25275.57 21088.85">
<text x="500" y="500" fill="#222" font-size="200" font-family="monospace">Roof floor</text>
<polygon points="9397.34,13119.08 9210.66,13305.76 9559.06,13654.15 10057.26,13779.01" fill="none" stroke="#2979ff" stroke-width="20" />
<polygon points="10288.69,14109.17 10352.87,13853.09 10057.26,13779 9559.06,13654.15 9922.24,14017.33" fill="none" stroke="#2979ff" stroke-width="20" />
<polygon points="11532.75,6085.6 10445.35,4998.19 10258.67,5184.87 11346.08,6272.27" fill="none" stroke="#2979ff" stroke-width="20" />
<polygon points="16497.67,15349.93 17978.73,9817.67 17847.84,9782.63 16366.78,15314.89" fill="none" stroke="#2979ff" stroke-width="20" />
<polygon points="17487.94,11651.66 17934.24,9983.11 17803.34,9948.1 17357.04,11616.64" fill="#FFFFFF55" stroke="white" stroke-width="20" />
<polygon points="21005.76,10755.72 21683.88,10937.26 21752.15,10682.24 21074.03,10500.7" fill="none" stroke="#2979ff" stroke-width="20" />
<polygon points="20239.94,16330.88 21683.88,10937.26 21428.86,10868.99 19983.82,16266.7" fill="none" stroke="#2979ff" stroke-width="20" />
<polygon points="21224.99,12652.09 21671.29,10983.55 21416.26,10915.34 20969.96,12583.88" fill="#FFFFFF55" stroke="white" stroke-width="20" />
<polygon points="13937.18,8863.37 14447.02,8999.87 14073.81,8626.66 13624.29,8177.13 13437.61,8363.81" fill="none" stroke="#2979ff" stroke-width="20" />
<polygon points="14073.81,8626.66 14447.02,8999.87 14592.32,9038.77 14660.6,8783.75" fill="none" stroke="#2979ff" stroke-width="20" />
<polygon points="20171.66,16585.94 20239.94,16330.88 19983.82,16266.7 19556.64,16159.64 19492.46,16415.72" fill="none" stroke="#2979ff" stroke-width="20" />
<polygon points="16986.45,15480.78 15885.23,15185.97 15816.96,15440.99 16918.18,15735.8" fill="none" stroke="#2979ff" stroke-width="20" />
<polygon points="2850.91,6864.65 8339.87,12353.62 7250.15,16714.91 500,15156.12 642.12,9073.44" fill="rgba(0,200,83,0.18)" stroke="#2979ff" stroke-width="20" />
<polygon points="1174.67,5220.65 5913.06,500 10387.14,4990.89 24775.57,8820.13 21643.53,20588.85 7184.2,16964.97 8328.01,12400.89" fill="rgba(0,200,83,0.18)" stroke="#2979ff" stroke-width="20" />
<polygon points="21607.88,20528.36 7244.86,16928.62 7307.94,16676.93 550.94,15116.57 691.64,9094.64 2902.32,6883.96 1245.38,5220.8 5912.92,570.71 10361.24,5035.74 24714.4,8855.57" fill="none" stroke="#ff1744" stroke-width="40" />
<polygon points="8848.93,3826.04 6802.05,5872.91 3878.8,2949.66 5925.67,902.78" fill="rgba(255,193,7,0.25)" stroke="#ff9100" stroke-width="20" />
<polygon points="9123.15,6320.39 10086.99,7284.23 9177.65,8193.57 8213.81,7229.73" fill="rgba(255,193,7,0.25)" stroke="#ff9100" stroke-width="20" />
</svg>