<svg xmlns="http://www.w3.org/2000/svg" width="180" height="180" viewBox="0 0 180 180">
  <rect width="180" height="180" rx="36" fill="#fdf8ec" />
  <defs>
    <rect id="logo-strawbale" x="0" y="0" width="3.5" height="2.5" stroke="#000000" fill="#daa520"
      stroke-width="0.1" rx="0.3" ry="0.3" />
    <rect id="logo-post" x="0" y="0" width="0.5" height="12.5" stroke="#000000" fill="#cd853f"
      stroke-width="0.1" />

    <g id="logo-infill-section">
      <use x="0" y="0" href="#logo-post" />
      <use x="0.5" y="0" href="#logo-strawbale" />
      <use x="0.5" y="2.5" href="#logo-strawbale" />
      <use x="0.5" y="5" href="#logo-strawbale" />
      <use x="0.5" y="7.5" href="#logo-strawbale" />
      <use x="0.5" y="10" href="#logo-strawbale" />
      <use x="4" y="0" href="#logo-post" />
    </g>

    <g id="logo-window-section">
      <use x="0" y="0" href="#logo-post" />
      <use x="0.5" y="0" href="#logo-strawbale" />
      <rect x="0.5" y="2.5" width="3.5" height="5" stroke="#000000" fill="#87ceeb"
        stroke-width="0.1" />
      <use x="0.5" y="7.5" href="#logo-strawbale" />
      <use x="0.5" y="10" href="#logo-strawbale" />
      <use x="4" y="0" href="#logo-post" />
    </g>

    <g id="logo-door-section">
      <use x="0" y="0" href="#logo-post" />
      <use x="0.5" y="0" href="#logo-strawbale" />
      <rect x="0.5" y="2.5" width="3.5" height="10" stroke="#000000" fill="#8b4513"
        stroke-width="0.1" />
      <use x="4" y="0" href="#logo-post" />
    </g>
  </defs>

  <g transform="scale(6.55) translate(2.5 -5.5)">
    <rect x="1" y="28" width="20.5" height="1" fill="#8b4513" stroke="#000000" stroke-width="0.1" />

    <use x="1" y="15.5" href="#logo-infill-section" />
    <use x="5" y="15.5" href="#logo-window-section" />
    <use x="9" y="15.5" href="#logo-infill-section" />
    <use x="13" y="15.5" href="#logo-door-section" />
    <use x="17" y="15.5" href="#logo-infill-section" />

    <rect x="1" y="14.5" width="20.5" height="1" fill="#8b4513" stroke="#000000" stroke-width="0.1" />

    <path d="M -2,14.5 h 26.5 L 10.75,8 Z" fill="#cd853f" stroke="#000000" stroke-width="0.12" />
  </g>
</svg>