<svg xmlns="http://www.w3.org/2000/svg" viewBox="0 -2000 3500 2000" width="3500" height="2000">
<rect x="0" y="-532" width="3500" height="532" fill="#FF8888" stroke="#333333" stroke-width="5" /> <g transform="translate(1750 -266)"> <text x="0" y="0" style="text-anchor: middle; dominant-baseline: middle; font-size: 20"> 3500x532 </text></g>
<rect x="0" y="-1064" width="3500" height="532" fill="#FF8888" stroke="#333333" stroke-width="5" /> <g transform="translate(1750 -798)"> <text x="0" y="0" style="text-anchor: middle; dominant-baseline: middle; font-size: 20"> 3500x532 </text></g>
<rect x="0" y="-2000" width="600" height="936" fill="#BBBBBB" stroke="#333333" stroke-width="5" /> <g transform="translate(300 -1532)"> <text x="0" y="0" style="text-anchor: middle; dominant-baseline: middle; font-size: 20"> 600x936 </text></g>
<rect x="600" y="-2000" width="600" height="936" fill="#BBBBBB" stroke="#333333" stroke-width="5" /> <g transform="translate(900 -1532)"> <text x="0" y="0" style="text-anchor: middle; dominant-baseline: middle; font-size: 20"> 600x936 </text></g>
<rect x="1200" y="-2000" width="600" height="936" fill="#BBBBBB" stroke="#333333" stroke-width="5" /> <g transform="translate(1500 -1532)"> <text x="0" y="0" style="text-anchor: middle; dominant-baseline: middle; font-size: 20"> 600x936 </text></g>
<rect x="1800" y="-2000" width="600" height="936" fill="#BBBBBB" stroke="#333333" stroke-width="5" /> <g transform="translate(2100 -1532)"> <text x="0" y="0" style="text-anchor: middle; dominant-baseline: middle; font-size: 20"> 600x936 </text></g>
<rect x="2400" y="-2000" width="600" height="936" fill="#BBBBBB" stroke="#333333" stroke-width="5" /> <g transform="translate(2700 -1532)"> <text x="0" y="0" style="text-anchor: middle; dominant-baseline: middle; font-size: 20"> 600x936 </text></g>
<rect x="3000" y="-2000" width="500" height="936" fill="#BBBBBB" stroke="#333333" stroke-width="5" /> <g transform="translate(3250 -1532)"> <text x="0" y="0" style="text-anchor: middle; dominant-baseline: middle; font-size: 20"> 500x936 </text></g>
</svg>