<svg
    xmlns="http://www.w3.org/2000/svg" height="500" viewBox="0 0 1960 3800"
    style="background: white;">
    <defs>
        <linearGradient id="_r_5k_" x1="0" x2="0" y1="0" y2="1">
            <stop offset="10%" stop-color="white" stop-opacity="1"></stop>
            <stop offset="100%" stop-color="white" stop-opacity="0"></stop>
        </linearGradient>
        <linearGradient id="_r_5l_" x1="0" x2="0" y1="0" y2="1">
            <stop offset="0%" stop-color="white" stop-opacity="0"></stop>
            <stop offset="90%" stop-color="white" stop-opacity="1"></stop>
        </linearGradient>
        <linearGradient id="_r_5m_" x1="0" x2="1" y1="0" y2="0">
            <stop offset="0%" stop-color="white" stop-opacity="0"></stop>
            <stop offset="90%" stop-color="white" stop-opacity="1"></stop>
        </linearGradient>
        <path id="_r_5n_"
            d="M 400 350 H 760 V 250 H 860 V 100 H 2060 V 650 H 860 V 550 H 760 V 450 H 400 Z"></path>
        <clipPath id="_r_5o_" clipPathUnits="userSpaceOnUse">
            <use href="#_r_5n_"></use>
        </clipPath>
        <path id="_r_5p_"
            d="M 400 3350 H 760 V 3250 H 860 V 3100 H 2060 V 3650 H 860 V 3550 H 760 V 3450 H 400 Z"></path>
        <clipPath id="_r_5q_" clipPathUnits="userSpaceOnUse">
            <use href="#_r_5p_"></use>
        </clipPath>
        <path id="_r_5r_" d="M 300 450 H 760 V 550 H 860 V 3250 H 760 V 3350 H 300 Z"></path>
        <clipPath id="_r_5s_" clipPathUnits="userSpaceOnUse">
            <use href="#_r_5r_"></use>
        </clipPath>
        <style>text { font-family: monospace; }</style>
    </defs>
    <g>
        <g>
            <rect x="860" y="100" width="1200" height="150" fill="#bbb"
                stroke="black" stroke-width="5"></rect>
            <path
                d="M 400 350
              h 360
              v -100
              H 2060
              v 300
              H 760
              v -100
              H 400 Z"
                fill="#aaa" stroke="black" stroke-width="5"></path>
            <rect x="860" y="550" width="1200" height="100" fill="#bbb"
                stroke="black" stroke-width="5"></rect>
        </g>
        <g>
            <rect x="860" y="3100" width="1200" height="150" fill="#bbb"
                stroke="black" stroke-width="5"></rect>
            <path
                d="M 400 3350
              h 360
              v -100
              H 2060
              v 300
              H 760
              v -100
              H 400 Z"
                fill="#aaa" stroke="black" stroke-width="5"></path>
            <rect x="860" y="3550" width="1200" height="100" fill="#bbb"
                stroke="black" stroke-width="5"></rect>
        </g>
    </g>
    <g>
        <rect x="400" y="-100" width="360" height="300" fill="#aaa" stroke="black"
            stroke-width="5"></rect>
        <rect x="760" y="-100" width="100" height="350" fill="#CCC" stroke="black"
            stroke-width="5"></rect>
        <rect x="400" y="200" width="360" height="150" fill="#999" stroke="black"
            stroke-width="5"></rect>
        <rect x="400" y="450" width="360" height="150" fill="#999" stroke="black"
            stroke-width="5"></rect>
        <rect x="400" y="600" width="360" height="2600" fill="#aaa" stroke="black"
            stroke-width="5"></rect>
        <rect x="400" y="3200" width="360" height="150" fill="#999" stroke="black"
            stroke-width="5"></rect>
        <rect x="760" y="550" width="100" height="2700" fill="#CCC" stroke="black"
            stroke-width="5"></rect>
        <rect x="400" y="3450" width="360" height="150" fill="#999" stroke="black"
            stroke-width="5"></rect>
        <rect x="400" y="3600" width="360" height="2900" fill="#aaa"
            stroke="black" stroke-width="5"></rect>
        <rect x="760" y="3550" width="100" height="2900" fill="#CCC"
            stroke="black" stroke-width="5"></rect>
        <rect x="300" y="-1" width="100" height="3801" fill="#CCC" stroke="black"
            stroke-width="5"></rect>
    </g>
    <use href="#_r_5n_" clip-path="url(#_r_5o_)" fill="none" stroke="#ffba18"
        stroke-width="50" stroke-linejoin="round" opacity="0.4"></use>
    <use href="#_r_5p_" clip-path="url(#_r_5q_)" fill="none" stroke="#ffba18"
        stroke-width="50" stroke-linejoin="round" opacity="0.4"></use>
    <use href="#_r_5r_" clip-path="url(#_r_5s_)" fill="none" stroke="#dc3b5d"
        stroke-width="50" stroke-linejoin="round" opacity="0.4"></use>
    <line x1="860" y1="650" x2="1960" y2="650" stroke="#0d9b8a" stroke-width="10"></line>
    <line x1="860" y1="3100" x2="1960" y2="3100" stroke="#0d9b8a" stroke-width="10"></line>
    <rect x="-50" y="-5" width="2060" height="105" fill="url(#_r_5k_)"></rect>
    <rect x="-50" y="3650" width="2060" height="155" fill="url(#_r_5l_)"></rect>
    <rect x="1860" y="-50" width="105" height="3900" fill="url(#_r_5m_)"></rect>
    <g>
        <g class="measurement undefined">
            <line x1="1860" y1="100" x2="1820" y2="100" stroke="#666" stroke-width="5"
                opacity="0.5"></line>
            <line x1="1860" y1="3100" x2="1820" y2="3100" stroke="#666" stroke-width="5"
                opacity="0.5"></line>
            <line x1="1820" y1="100" x2="1820" y2="1319.2" stroke="#666" stroke-width="10"></line>
            <line x1="1820" y1="1880.8" x2="1820" y2="1319.2" stroke="#666"
                stroke-width="10" opacity="0.2"></line>
            <line x1="1820" y1="1880.8" x2="1820" y2="3100" stroke="#666"
                stroke-width="10"></line>
            <line x1="1850" y1="100" x2="1790" y2="100" stroke="#666" stroke-width="10"></line>
            <line x1="1850" y1="3100" x2="1790" y2="3100" stroke="#666" stroke-width="10"></line>
            <g class="text" transform="translate( 1820 1600) rotate(90)">
                <text x="0" y="0" font-size="60" font-family="Arial" font-weight="bold"
                    fill="#666" text-anchor="middle" dominant-baseline="central"
                    transform="translate(0 0)" style="filter: drop-shadow(0 0 0.1em var(--gray-1));">
                    <tspan x="0" dy="0">Storey Height</tspan>
                </text>
            </g>
        </g>
        <g class="measurement undefined">
            <line x1="1860" y1="650" x2="1740" y2="650" stroke="#666" stroke-width="5"
                opacity="0.5"></line>
            <line x1="1860" y1="3100" x2="1740" y2="3100" stroke="#666" stroke-width="5"
                opacity="0.5"></line>
            <line x1="1740" y1="650" x2="1740" y2="1637.4" stroke="#666" stroke-width="10"></line>
            <line x1="1740" y1="2112.6" x2="1740" y2="1637.4" stroke="#666"
                stroke-width="10" opacity="0.2"></line>
            <line x1="1740" y1="2112.6" x2="1740" y2="3100" stroke="#666"
                stroke-width="10"></line>
            <line x1="1770" y1="650" x2="1710" y2="650" stroke="#666" stroke-width="10"></line>
            <line x1="1770" y1="3100" x2="1710" y2="3100" stroke="#666" stroke-width="10"></line>
            <g class="text" transform="translate( 1740 1875) rotate(90)">
                <text x="0" y="0" font-size="60" font-family="Arial" font-weight="bold"
                    fill="#666" text-anchor="middle" dominant-baseline="central"
                    transform="translate(0 0)" style="filter: drop-shadow(0 0 0.1em var(--gray-1));">
                    <tspan x="0" dy="0">Room Height</tspan>
                </text>
            </g>
        </g>
    </g>
    <g>
        <g class="measurement undefined">
            <line x1="760" y1="250" x2="1310" y2="250" stroke="#666" stroke-width="5"
                opacity="0.5"></line>
            <line x1="760" y1="350" x2="1310" y2="350" stroke="#666" stroke-width="5"
                opacity="0.5"></line>
            <line x1="1310" y1="250" x2="1310" y2="270" stroke="#666" stroke-width="10"></line>
            <line x1="1310" y1="330" x2="1310" y2="270" stroke="#666" stroke-width="10"
                opacity="0.2"></line>
            <line x1="1310" y1="330" x2="1310" y2="350" stroke="#666" stroke-width="10"></line>
            <line x1="1335" y1="250" x2="1285" y2="250" stroke="#666" stroke-width="10"></line>
            <line x1="1335" y1="350" x2="1285" y2="350" stroke="#666" stroke-width="10"></line>
            <g class="text" transform="translate( 1310 300) rotate(0)">
                <text x="0" y="0" font-size="50" font-family="Arial" font-weight="bold"
                    fill="#666" text-anchor="middle" dominant-baseline="central"
                    transform="translate(0 0)" style="filter: drop-shadow(0 0 0.1em var(--gray-1));">
                    <tspan x="0" dy="0">Construction Top Offset</tspan>
                </text>
            </g>
        </g>
        <g class="measurement undefined">
            <line x1="760" y1="450" x2="1310" y2="450" stroke="#666" stroke-width="5"
                opacity="0.5"></line>
            <line x1="760" y1="550" x2="1310" y2="550" stroke="#666" stroke-width="5"
                opacity="0.5"></line>
            <line x1="1310" y1="450" x2="1310" y2="470" stroke="#666" stroke-width="10"></line>
            <line x1="1310" y1="530" x2="1310" y2="470" stroke="#666" stroke-width="10"
                opacity="0.2"></line>
            <line x1="1310" y1="530" x2="1310" y2="550" stroke="#666" stroke-width="10"></line>
            <line x1="1335" y1="450" x2="1285" y2="450" stroke="#666" stroke-width="10"></line>
            <line x1="1335" y1="550" x2="1285" y2="550" stroke="#666" stroke-width="10"></line>
            <g class="text" transform="translate( 1310 500) rotate(0)">
                <text x="0" y="0" font-size="50" font-family="Arial" font-weight="bold"
                    fill="#666" text-anchor="middle" dominant-baseline="central"
                    transform="translate(0 0)" style="filter: drop-shadow(0 0 0.1em var(--gray-1));">
                    <tspan x="0" dy="0">Construction Bottom Offset</tspan>
                </text>
            </g>
        </g>
        <text x="1310" y="175" font-size="50" text-anchor="middle" dominant-baseline="middle"
            fill="black">Floor Top Layers</text>
        <text x="1310" y="400" font-size="50" text-anchor="middle" dominant-baseline="middle"
            fill="black">Floor Construction</text>
        <text x="1310" y="600" font-size="50" text-anchor="middle" dominant-baseline="middle"
            fill="black">Floor Bottom Layers</text>
        <text x="1310" y="3175" font-size="50" text-anchor="middle" dominant-baseline="middle"
            fill="black">Floor Top Layers</text>
        <text x="1310" y="3400" font-size="50" text-anchor="middle" dominant-baseline="middle"
            fill="black">Floor Construction</text>
        <text x="1310" y="3600" font-size="50" text-anchor="middle" dominant-baseline="middle"
            fill="black">Floor Bottom Layers</text>
        <text x="1310" y="3660" font-size="60" text-anchor="middle"
            dominant-baseline="text-before-edge" fill="#ffba18">Floor Assembly</text>
        <text x="1310" y="660" font-size="60" text-anchor="middle"
            dominant-baseline="text-before-edge" fill="#0d9b8a">Finished Ceiling</text>
        <text x="1310" y="3090" font-size="60" text-anchor="middle"
            dominant-baseline="text-after-edge" fill="#0d9b8a">Finished Floor</text>
        <g class="measurement undefined">
            <line x1="1860" y1="3100" x2="1780" y2="3100" stroke="#666" stroke-width="5"
                opacity="0.5"></line>
            <line x1="1860" y1="3650" x2="1780" y2="3650" stroke="#666" stroke-width="5"
                opacity="0.5"></line>
            <line x1="1780" y1="3100" x2="1780" y2="3252.6" stroke="#666"
                stroke-width="10"></line>
            <line x1="1780" y1="3497.4" x2="1780" y2="3252.6" stroke="#666"
                stroke-width="10" opacity="0.2"></line>
            <line x1="1780" y1="3497.4" x2="1780" y2="3650" stroke="#666"
                stroke-width="10"></line>
            <line x1="1810" y1="3100" x2="1750" y2="3100" stroke="#666" stroke-width="10"></line>
            <line x1="1810" y1="3650" x2="1750" y2="3650" stroke="#666" stroke-width="10"></line>
            <g class="text" transform="translate( 1780 3375) rotate(0)">
                <text x="0" y="0" font-size="60" font-family="Arial" font-weight="bold"
                    fill="#666" text-anchor="middle" dominant-baseline="central"
                    transform="translate(0 -72)"
                    style="filter: drop-shadow(0 0 0.1em var(--gray-1));">
                    <tspan x="0" dy="0">Total</tspan>
                    <tspan x="0" dy="1.2em">Floor</tspan>
                    <tspan x="0" dy="1.2em">Thickness</tspan>
                </text>
            </g>
        </g>
    </g>
    <g>
        <text font-size="60" text-anchor="middle" dominant-baseline="text-after-edge"
            transform="translate(290 1900) rotate(-90)" fill="var(--sky-11)">Finished Outside</text>
        <text font-size="60" text-anchor="middle" dominant-baseline="text-after-edge"
            transform="translate(870 1900) rotate(90)" fill="var(--sky-11)">Finished Inside</text>
        <line x1="860" y1="650" x2="860" y2="3100" stroke="var(--sky-11)" stroke-width="10"></line>
        <line x1="300" y1="0" x2="300" y2="3800" stroke="var(--sky-11)" stroke-width="10"></line>
        <text x="580" y="275" font-size="48" text-anchor="middle" dominant-baseline="middle"
            fill="black">Base Plate</text>
        <text x="580" y="525" font-size="50" text-anchor="middle" dominant-baseline="middle"
            fill="black">Top Plate</text>
        <text x="580" y="3275" font-size="50" text-anchor="middle" dominant-baseline="middle"
            fill="black">Base Plate</text>
        <text x="580" y="3525" font-size="48" text-anchor="middle" dominant-baseline="middle"
            fill="black">Top Plate</text>
        <text font-size="60" text-anchor="middle" dominant-baseline="middle" fill="#dc3b5d"
            transform="translate(580 3050)">
            <tspan x="0">Wall</tspan>
            <tspan x="0" dy="1.2em">Assembly</tspan>
        </text>
        <text x="350" y="1900" font-size="50" text-anchor="middle" dominant-baseline="middle"
            transform="rotate(-90 350 1900)" fill="black">Outside Layers</text>
        <text x="810" y="1900" font-size="50" text-anchor="middle" dominant-baseline="middle"
            transform="rotate(90 810 1900)" fill="black">Inside Layers</text>
        <g class="measurement undefined">
            <line x1="400" y1="450" x2="140" y2="450" stroke="#666" stroke-width="5"
                opacity="0.5"></line>
            <line x1="400" y1="3350" x2="140" y2="3350" stroke="#666" stroke-width="5"
                opacity="0.5"></line>
            <line x1="140" y1="450" x2="140" y2="1468" stroke="#666" stroke-width="10"></line>
            <line x1="140" y1="2332" x2="140" y2="1468" stroke="#666" stroke-width="10"
                opacity="0.2"></line>
            <line x1="140" y1="2332" x2="140" y2="3350" stroke="#666" stroke-width="10"></line>
            <line x1="170" y1="450" x2="110" y2="450" stroke="#666" stroke-width="10"></line>
            <line x1="170" y1="3350" x2="110" y2="3350" stroke="#666" stroke-width="10"></line>
            <g class="text" transform="translate( 140 1900) rotate(90)">
                <text x="0" y="0" font-size="60" font-family="Arial" font-weight="bold"
                    fill="#666" text-anchor="middle" dominant-baseline="central"
                    transform="translate(0 0)" style="filter: drop-shadow(0 0 0.1em var(--gray-1));">
                    <tspan x="0" dy="0">Wall Assembly Height</tspan>
                </text>
            </g>
        </g>
        <g class="measurement undefined">
            <line x1="400" y1="600" x2="200" y2="600" stroke="#666" stroke-width="5"
                opacity="0.5"></line>
            <line x1="400" y1="3200" x2="200" y2="3200" stroke="#666" stroke-width="5"
                opacity="0.5"></line>
            <line x1="200" y1="600" x2="200" y2="1381.6" stroke="#666" stroke-width="10"></line>
            <line x1="200" y1="2418.4" x2="200" y2="1381.6" stroke="#666"
                stroke-width="10" opacity="0.2"></line>
            <line x1="200" y1="2418.4" x2="200" y2="3200" stroke="#666" stroke-width="10"></line>
            <line x1="230" y1="600" x2="170" y2="600" stroke="#666" stroke-width="10"></line>
            <line x1="230" y1="3200" x2="170" y2="3200" stroke="#666" stroke-width="10"></line>
            <g class="text" transform="translate( 200 1900) rotate(90)">
                <text x="0" y="0" font-size="60" font-family="Arial" font-weight="bold"
                    fill="#666" text-anchor="middle" dominant-baseline="central"
                    transform="translate(0 0)" style="filter: drop-shadow(0 0 0.1em var(--gray-1));">
                    <tspan x="0" dy="0">Wall Construction Height</tspan>
                </text>
            </g>
        </g>
        <g class="measurement undefined">
            <line x1="300" y1="600" x2="300" y2="800" stroke="#666" stroke-width="5"
                opacity="0.5"></line>
            <line x1="860" y1="600" x2="860" y2="800" stroke="#666" stroke-width="5"
                opacity="0.5"></line>
            <line x1="300" y1="800" x2="405.04" y2="800" stroke="#666" stroke-width="10"></line>
            <line x1="754.96" y1="800" x2="405.04" y2="800" stroke="#666"
                stroke-width="10" opacity="0.2"></line>
            <line x1="754.96" y1="800" x2="860" y2="800" stroke="#666" stroke-width="10"></line>
            <line x1="300" y1="770" x2="300" y2="830" stroke="#666" stroke-width="10"></line>
            <line x1="860" y1="770" x2="860" y2="830" stroke="#666" stroke-width="10"></line>
            <g class="text" transform="translate( 580 800) rotate(0)">
                <text x="0" y="0" font-size="54" font-family="Arial" font-weight="bold"
                    fill="#666" text-anchor="middle" dominant-baseline="central"
                    transform="translate(0 -64.8)"
                    style="filter: drop-shadow(0 0 0.1em var(--gray-1));">
                    <tspan x="0" dy="0">Total</tspan>
                    <tspan x="0" dy="1.2em">Wall</tspan>
                    <tspan x="0" dy="1.2em">Thickness</tspan>
                </text>
            </g>
        </g>
        <g transform="translate(580 1900)">
            <text x="0" y="0" font-size="50" fill="black" text-anchor="middle"
                dominant-baseline="middle">
                <tspan x="0">Wall</tspan>
                <tspan x="0" dy="1.2em">Construction</tspan>
            </text>
        </g>
    </g>
</svg>